<?xml version="1.0" standalone="no"?>
<!DOCTYPE svg PUBLIC "-//W3C//DTD SVG 1.1//EN" "http://www.w3.org/Graphics/SVG/1.1/DTD/svg11.dtd" >
<svg xmlns="http://www.w3.org/2000/svg">
<metadata>
Created by FontPrep 20130207 at Sun Aug 24 00:30:35 2014
 By Ivor Sangala
Copyright (C) 2006, 2007 Hoefler &#38; Frere-Jones. http://www.typography.com
</metadata>
<defs>
<font id="48c6e39d21ea8e07ca5171cab616e804" horiz-adv-x='1024' >
  <font-face 
    font-family="GothamRounded-MediumItalic"
    font-weight="350"
    font-style="italic"
    font-stretch="normal"
    units-per-em="2048"
    panose-1="0 0 0 0 0 0 0 0 0 0"
    ascent="1638"
    descent="-410"
    x-height="1081"
    cap-height="1444"
    bbox="-305 -563 2501 2183.03"
    underline-thickness="102"
    underline-position="-102"
    slope="-15"
    unicode-range="U+0020-FB04"
  />
<missing-glyph horiz-adv-x="1024" 
d="M512 492l-367 -799h734zM922 1384l-353 -770l353 -770v1540zM102 -156l353 770l-353 770v-1540zM145 1536l367 -799l367 799h-734zM0 -410v2048h1024v-2048h-1024z" />
    <glyph glyph-name="f_f" unicode="ff" horiz-adv-x="1624" 
d="M1018 -10q-63 0 -92 43t-8 117l194 718h-29q-37 6 -65 34t-29 73q0 45 31 76t74 30h75l21 88q90 336 412 336q63 0 116 -14q84 -18 84 -98q0 -57 -35 -89t-77 -21t-82 11q-137 0 -178 -151l-17 -62h174q45 -1 75 -31t30 -75t-30 -76t-75 -31h-227l-203 -755
q-35 -123 -139 -123zM207 -10q-63 0 -92 43t-9 117l195 718h-29q-38 6 -66 34t-28 73t31 76t74 30h75l21 88q90 336 412 336q63 0 116 -14q84 -18 84 -98q0 -57 -35 -89q-34 -32 -76 -21t-83 11q-137 0 -179 -151l-16 -62h174q45 -1 75 -31t30 -75t-30 -76t-75 -31h-227
l-203 -755q-35 -123 -139 -123z" />
    <glyph glyph-name="fi" unicode="fi" horiz-adv-x="1398" 
d="M207 -10q-63 0 -92 43t-9 117l195 718h-29q-38 6 -66 34t-28 73t31 76t74 30h75l21 88q90 336 412 336q63 0 116 -14q84 -18 84 -98q0 -57 -35 -89q-34 -32 -76 -21t-83 11q-137 0 -179 -151l-16 -62h174q45 -1 75 -31t30 -75t-30 -76t-75 -31h-227l-203 -755
q-35 -123 -139 -123zM975 -10q-63 0 -92 43t-9 117l222 819q33 125 137 125q63 0 91 -44t9 -118l-219 -819q-35 -123 -139 -123zM1302 1237q-60 0 -97 34q-36 34 -23 83l6 24q12 53 56 84t104 31t97 -34q36 -34 25 -83l-6 -24q-12 -51 -57 -83t-105 -32z" />
    <glyph glyph-name="fl" unicode="fl" horiz-adv-x="1398" 
d="M207 -10q-63 0 -92 43t-9 117l195 718h-29q-38 6 -66 34t-28 73t31 76t74 30h75l21 88q90 336 412 336q63 0 116 -14q84 -18 84 -98q0 -57 -35 -89q-34 -32 -76 -21t-83 11q-137 0 -179 -151l-16 -62h174q45 -1 75 -31t30 -75t-30 -76t-75 -31h-227l-203 -755
q-35 -123 -139 -123zM975 -10q-63 0 -92 43t-9 117l332 1232q33 123 140 123q62 -1 90 -43t8 -116l-330 -1233q-35 -123 -139 -123z" />
    <glyph glyph-name="f_f_i" unicode="ffi" horiz-adv-x="2209" 
d="M1018 -10q-63 0 -92 43t-8 117l194 718h-29q-37 6 -65 34t-29 73q0 45 31 76t74 30h75l21 88q90 336 412 336q63 0 116 -14q84 -18 84 -98q0 -57 -35 -89t-77 -21t-82 11q-137 0 -178 -151l-17 -62h174q45 -1 75 -31t30 -75t-30 -76t-75 -31h-227l-203 -755
q-35 -123 -139 -123zM207 -10q-63 0 -92 43t-9 117l195 718h-29q-38 6 -66 34t-28 73t31 76t74 30h75l21 88q90 336 412 336q63 0 116 -14q84 -18 84 -98q0 -57 -35 -89q-34 -32 -76 -21t-83 11q-137 0 -179 -151l-16 -62h174q45 -1 75 -31t30 -75t-30 -76t-75 -31h-227
l-203 -755q-35 -123 -139 -123zM1786 -10q-63 0 -92 43t-8 117l221 819q33 125 137 125q64 0 92 -44t8 -118l-219 -819q-35 -123 -139 -123zM2113 1237q-60 0 -97 34q-36 34 -23 83l6 24q12 53 56 84q45 31 105 31t96 -34t25 -83l-6 -24q-12 -51 -57 -83t-105 -32z" />
    <glyph glyph-name="f_f_l" unicode="ffl" horiz-adv-x="2209" 
d="M1018 -10q-63 0 -92 43t-8 117l194 718h-29q-37 6 -65 34t-29 73q0 45 31 76t74 30h75l21 88q90 336 412 336q63 0 116 -14q84 -18 84 -98q0 -57 -35 -89t-77 -21t-82 11q-137 0 -178 -151l-17 -62h174q45 -1 75 -31t30 -75t-30 -76t-75 -31h-227l-203 -755
q-35 -123 -139 -123zM207 -10q-63 0 -92 43t-9 117l195 718h-29q-38 6 -66 34t-28 73t31 76t74 30h75l21 88q90 336 412 336q63 0 116 -14q84 -18 84 -98q0 -57 -35 -89q-34 -32 -76 -21t-83 11q-137 0 -179 -151l-16 -62h174q45 -1 75 -31t30 -75t-30 -76t-75 -31h-227
l-203 -755q-35 -123 -139 -123zM1786 -10q-63 0 -92 43t-8 117l331 1232q33 123 140 123q63 -1 91 -43t7 -116l-330 -1233q-35 -123 -139 -123z" />
    <glyph glyph-name=".notdef" horiz-adv-x="1024" 
d="M512 492l-367 -799h734zM922 1384l-353 -770l353 -770v1540zM102 -156l353 770l-353 770v-1540zM145 1536l367 -799l367 799h-734zM0 -410v2048h1024v-2048h-1024z" />
    <glyph glyph-name=".null" horiz-adv-x="0" 
 />
    <glyph glyph-name="nonmarkingreturn" horiz-adv-x="681" 
 />
    <glyph glyph-name="space" unicode=" " horiz-adv-x="614" 
 />
    <glyph glyph-name="exclam" unicode="!" horiz-adv-x="620" 
d="M178 -10q-62 0 -100 41q-37 41 -25 96l8 35q13 59 57 95t106 36t99 -41t25 -96l-8 -35q-14 -61 -57 -96t-105 -35zM477 1440h137q36 0 52 -26t2 -64l-293 -844q-25 -63 -82 -64q-35 0 -52 23t-12 61l156 828q8 38 33 62t59 24z" />
    <glyph glyph-name="quotedbl" unicode="&#x22;" horiz-adv-x="1009" 
d="M733 809q-33 1 -47 23t-4 55l129 442q12 49 47 80t84 31h68q55 0 66 -40t-15 -85l-242 -443q-31 -63 -86 -63zM274 809q-33 1 -47 23t-4 55l129 442q33 111 131 111h68q55 0 67 -40t-16 -85l-240 -443q-33 -63 -88 -63z" />
    <glyph glyph-name="numbersign" unicode="#" horiz-adv-x="1406" 
d="M1260 1444q46 0 72 -35t9 -80l-75 -217h75q43 0 75 -31t32 -75t-32 -75q-32 -32 -75 -32h-149l-125 -356h98q45 0 76 -31t31 -75t-31 -76t-76 -31h-172l-88 -252q-12 -39 -46 -64q-34 -24 -79 -24q-44 0 -72 35t-12 79l78 226h-319l-88 -252q-33 -88 -121 -88
q-51 0 -79 34t-9 80l78 226h-74q-45 0 -76 30t-31 75q0 44 31 76t76 32h147l125 356h-100q-43 0 -75 32t-32 75q0 42 32 74t75 32h174l86 244q31 88 119 88q51 0 77 -35t13 -80l-76 -217h320l86 244q14 40 48 64q33 24 79 24zM528 543h320l125 356h-322z" />
    <glyph glyph-name="dollar" unicode="$" horiz-adv-x="1292" 
d="M899 412q0 53 -34 90t-117 73l-105 -356q117 4 187 55t69 138zM510 1030q0 -53 36 -89t126 -73l98 346q-120 2 -190 -51t-70 -133zM252 1004q0 184 155 307t381 123q29 0 39 -2l13 43q29 88 100 88q45 0 67 -30t7 -83l-13 -41q133 -29 244 -115q61 -43 61 -97t-35 -88
q-36 -34 -82 -34t-91 31q-76 59 -168 86l-109 -381q170 -61 254 -147t84 -228q0 -192 -160 -314t-401 -122h-12l-35 -123q-31 -90 -100 -90q-45 0 -66 31q-20 31 -6 84l33 116q-213 43 -338 158q-54 42 -54 98t35 90t82 34t90 -33q106 -100 256 -134l115 400
q-176 65 -261 147t-85 226z" />
    <glyph glyph-name="percent" unicode="%" horiz-adv-x="1765" 
d="M302 -10q-36 0 -58 20t-23 55q0 35 31 66l1233 1278q37 37 73 37t58 -22t23 -54q0 -32 -31 -67l-1233 -1276q-37 -37 -73 -37zM1151 314q0 -179 156 -179q79 0 142 86q62 86 62 187q0 167 -156 167q-79 0 -141 -86t-63 -175zM505 860q79 0 140 85t61 175q1 178 -145 178
q-90 0 -151 -86t-62 -186q0 -166 157 -166zM1286 -16q-135 0 -220 87t-85 239t114 284q114 131 266 131t236 -86q84 -87 84 -239q1 -152 -113 -284t-282 -132zM483 709q-137 0 -221 86q-84 87 -84 239t114 284t281 132q135 0 221 -87t85 -239q0 -152 -114 -283
q-114 -132 -282 -132z" />
    <glyph glyph-name="ampersand" unicode="&#x26;" horiz-adv-x="1421" 
d="M494 -20q-195 0 -319 101t-124 263t109 284t327 187q-82 137 -81 256q0 160 121 274q123 113 301 113t282 -92t104 -238q0 -266 -407 -395l199 -274q82 94 145 186q45 59 88 59t71 -23t28 -59t-21 -69q-96 -143 -191 -246l95 -133q39 -49 39 -91t-31 -73q-31 -30 -83 -30
t-87 47l-96 133q-225 -180 -469 -180zM522 188q152 0 322 129l-254 351q-150 -47 -224 -126t-73 -166q0 -88 60 -138t169 -50zM987 1108q0 66 -43 108q-43 44 -123 44t-136 -56q-121 -122 13 -325q162 51 226 107q63 56 63 122z" />
    <glyph glyph-name="quotesingle" unicode="'" horiz-adv-x="550" 
d="M274 809q-33 1 -47 23t-4 55l129 442q33 111 131 111h68q55 0 67 -40t-16 -85l-240 -443q-33 -63 -88 -63z" />
    <glyph glyph-name="parenleft" unicode="(" horiz-adv-x="903" 
d="M954 1452q38 0 68 -29q29 -29 29 -83t-70 -91q-289 -147 -436 -356t-147 -464t225 -515q31 -37 31 -83t-30 -76q-30 -29 -82 -29t-85 32q-313 297 -314 676q1 316 191 576t553 428q29 14 67 14z" />
    <glyph glyph-name="parenright" unicode=")" horiz-adv-x="903" 
d="M274 1347q0 45 30 75t82 30t85 -33q313 -297 313 -674q0 -317 -190 -577t-553 -428q-29 -14 -67 -14t-68 28q-29 28 -29 74q0 66 70 102q289 146 436 356t147 464t-225 514q-31 37 -31 83z" />
    <glyph glyph-name="asterisk" unicode="*" horiz-adv-x="880" 
d="M506 778q-35 0 -52 29t-3 63l67 177l-170 -66q-28 -10 -50 -10t-40 17t-20 45t15 47t48 22l195 31l-152 120q-35 29 -35 58q-1 29 19 49t52 20t56 -30l121 -154l29 178q8 68 67 68q41 0 57 -27t-1 -67l-68 -174l170 65q27 10 51 10t41 -17q16 -17 19 -44q0 -61 -64 -72
l-194 -29l149 -118q37 -29 37 -59t-20 -50t-51 -20q-32 0 -56 32l-121 152l-29 -180q-6 -66 -67 -66z" />
    <glyph glyph-name="plus" unicode="+" horiz-adv-x="1298" 
d="M570 207q-52 0 -80 41t-7 112l68 248h-260q-47 0 -81 33t-34 80t34 80t81 33h319l74 278q16 57 52 90t88 33t80 -41t7 -113l-65 -247h258q47 0 81 -33t34 -80t-34 -80t-81 -33h-320l-73 -276q-17 -59 -53 -92t-88 -33z" />
    <glyph glyph-name="comma" unicode="," horiz-adv-x="600" 
d="M218 293q66 0 96 -48q32 -48 16 -132l-8 -35q-37 -174 -162 -279q-100 -88 -217 -94q-63 -6 -64 53q1 46 58 58q174 47 192 184q-100 27 -82 133l8 27q13 61 55 97t108 36z" />
    <glyph glyph-name="hyphen" unicode="-" horiz-adv-x="841" 
d="M637 506h-385q-49 0 -85 36t-36 86t36 86t85 36h385q51 0 87 -36t36 -86t-36 -86t-87 -36z" />
    <glyph glyph-name="period" unicode="." horiz-adv-x="600" 
d="M169 -10q-62 0 -99 41t-25 96l8 35q13 59 57 95t106 36t99 -41t25 -96l-8 -35q-14 -61 -58 -96t-105 -35z" />
    <glyph glyph-name="slash" unicode="/" horiz-adv-x="1067" 
d="M1219 1647q39 0 63 -23q24 -24 23 -62q0 -38 -39 -89l-1256 -1680q-49 -68 -110 -67q-39 0 -62 22q-22 22 -22 63q0 40 37 89l1255 1679q49 68 111 68z" />
    <glyph glyph-name="zero" unicode="0" horiz-adv-x="1482" 
d="M691 203q136 0 250 105t173 260q60 155 60 315t-78 254t-217 94q-199 0 -339 -215t-141 -463q0 -162 78 -256t214 -94zM676 -25q-246 0 -391 159q-145 160 -145 400t89 445q91 205 269 342t412 137t379 -159q144 -159 145 -418q0 -164 -54 -325q-119 -351 -390 -500
q-146 -81 -314 -81z" />
    <glyph glyph-name="one" unicode="1" horiz-adv-x="827" 
d="M334 -10q-63 0 -92 43t-9 119l279 1030l-158 -43q-26 -4 -52 -4q-26 -1 -56 27t-29 72q0 44 25 75t65 43l262 78q78 23 129 22h2q57 0 84 -39t13 -96l-324 -1204q-33 -123 -139 -123z" />
    <glyph glyph-name="two" unicode="2" horiz-adv-x="1241" 
d="M102 0q-135 0 -135 120q0 62 66 107l731 527q115 82 168 152t53 148q0 79 -58 126t-159 47q-160 0 -303 -131q-43 -39 -89 -39t-79 34q-33 35 -33 83t43 88q211 193 471 192q209 0 338 -105t129 -274q0 -129 -74 -235t-251 -234l-533 -385h541q47 0 79 -33q31 -34 31 -78
t-32 -77t-78 -33h-826z" />
    <glyph glyph-name="three" unicode="3" horiz-adv-x="1239" 
d="M6 253q0 48 36 84t84 36t85 -37q63 -70 130 -102t187 -32t213 74q93 72 93 172t-84 152q-84 51 -234 51h-12q-45 0 -71 25q-25 26 -25 72t55 90l446 376h-481q-45 0 -77 32t-32 77t32 78t77 33h737q57 0 91 -27t34 -71t-19 -72t-65 -62l-456 -375q156 -27 248 -115
t92 -239q0 -211 -171 -354t-419 -144q-297 1 -453 185q-41 45 -41 93z" />
    <glyph glyph-name="four" unicode="4" horiz-adv-x="1341" 
d="M813 -10q-59 0 -87 44t-7 118l45 170h-606q-53 0 -89 28t-36 90t67 125l881 807q88 82 182 82q59 0 92 -37t17 -94l-213 -795h84q43 0 74 -30t31 -73q0 -44 -32 -74q-30 -30 -73 -29h-139l-56 -209q-33 -123 -135 -123zM362 528h457l154 572z" />
    <glyph glyph-name="five" unicode="5" horiz-adv-x="1243" 
d="M29 240q0 52 33 88q34 34 80 34t94 -36q121 -121 285 -121q163 0 259 82t96 187q0 104 -75 166q-76 62 -205 62q-71 0 -209 -43q-55 -4 -111 40t-34 118l172 518q35 98 123 99h614q45 0 79 -33t34 -79t-33 -79t-80 -33h-541l-108 -329q90 33 184 32q203 -1 327 -111
t124 -296q0 -217 -174 -373q-175 -156 -437 -156t-446 164q-51 47 -51 99z" />
    <glyph glyph-name="six" unicode="6" horiz-adv-x="1314" 
d="M698 713q-132 0 -224 -85q-92 -86 -93 -194t69 -176t202 -68t224 88t91 197q0 108 -69 173q-68 65 -200 65zM1331 1256q0 -60 -34 -94t-72 -34t-90 27q-104 76 -236 76q-178 0 -312 -135t-171 -334q55 66 153 112t211 46q193 0 318 -112t125 -294q0 -215 -169 -377
q-170 -162 -406 -162t-374 138t-138 374t74 432q75 196 208 328q215 211 502 211q200 1 354 -108q57 -34 57 -94z" />
    <glyph glyph-name="seven" unicode="7" horiz-adv-x="1228" 
d="M264 -10q-49 0 -78 26q-28 26 -28 71q0 46 41 103l776 1022h-578q-47 0 -80 33t-32 78q0 45 32 78q33 33 80 33h799q115 0 115 -93q-1 -61 -58 -133l-852 -1138q-61 -80 -137 -80z" />
    <glyph glyph-name="eight" unicode="8" horiz-adv-x="1343" 
d="M627 186q139 0 230 64t92 158q1 96 -84 157t-225 61t-230 -66q-90 -67 -92 -161q-2 -93 84 -153t225 -60zM776 829q123 -1 203 63t81 152t-72 145q-74 56 -196 56t-202 -61q-80 -60 -82 -150t72 -148t196 -57zM1198 401q0 -173 -163 -297t-407 -124t-402 112
q-156 112 -156 278q0 165 106 265t283 137q-86 41 -137 117t-52 168q0 157 146 277t374 120q230 0 369 -106t139 -273q0 -137 -90 -233t-239 -129q101 -39 165 -120t64 -192z" />
    <glyph glyph-name="nine" unicode="9" horiz-adv-x="1314" 
d="M1028 994q0 110 -70 180t-202 69q-132 0 -224 -89q-92 -90 -92 -204t70 -178t202 -65q131 0 224 88q92 89 92 199zM498 -25q-211 0 -367 119q-65 42 -65 100t33 92q64 64 163 5q117 -90 250 -90q174 0 305 131t174 325q-57 -67 -153 -113t-211 -46q-195 0 -319 112
t-124 299q2 227 170 388t412 161q106 0 204 -34t158 -97q145 -141 146 -422q0 -207 -76 -395t-211 -324q-206 -211 -489 -211z" />
    <glyph glyph-name="colon" unicode=":" horiz-adv-x="606" 
d="M433 1094q62 0 99 -42t25 -96l-8 -34q-14 -60 -57 -96q-44 -36 -106 -36t-99 42q-37 40 -25 96l8 35q14 59 58 95t105 36zM171 -10q-62 0 -99 41t-25 96l8 35q13 59 57 95t106 36t99 -41t25 -96l-8 -35q-14 -61 -58 -96t-105 -35z" />
    <glyph glyph-name="semicolon" unicode=";" horiz-adv-x="606" 
d="M433 1094q62 0 99 -42t25 -96l-8 -34q-14 -60 -57 -96q-44 -36 -106 -36t-99 42q-37 40 -25 96l8 35q14 59 58 95t105 36zM220 293q64 0 98 -49q32 -49 14 -131l-8 -35q-36 -174 -150 -270t-229 -103q-61 -6 -62 53q1 46 56 58q174 45 192 184q-102 27 -80 133l6 27
q15 61 57 97t106 36z" />
    <glyph glyph-name="less" unicode="&#x3c;" horiz-adv-x="1298" 
d="M1284 1141q0 -74 -72 -105l-786 -325l569 -303q68 -34 68 -92t-31 -91q-51 -55 -143 -16l-608 336q-109 61 -109 149v8q0 109 115 158l833 354q89 38 137 -8q27 -25 27 -65z" />
    <glyph glyph-name="equal" unicode="=" horiz-adv-x="1298" 
d="M256 350q-47 0 -81 34t-34 81t34 81t81 34h750q46 0 80 -34t34 -81t-34 -81t-80 -34h-750zM393 862q-47 0 -81 34t-33 81q0 47 33 81q34 34 81 34h750q47 0 81 -34t34 -81t-34 -81t-81 -34h-750z" />
    <glyph glyph-name="greater" unicode="&#x3e;" horiz-adv-x="1298" 
d="M194 209q-34 -1 -61 25t-27 67q0 74 70 105l787 325l-568 303q-68 35 -67 103q0 47 30 80q50 54 142 16l610 -338q109 -57 109 -147v-11q0 -106 -115 -155l-834 -355q-42 -18 -76 -18z" />
    <glyph glyph-name="question" unicode="?" horiz-adv-x="1107" 
d="M352 -10q-62 0 -100 41q-37 41 -25 96l9 35q14 59 57 95t105 36t99 -41t25 -96l-8 -35q-14 -61 -57 -96t-105 -35zM307 1102q-39 0 -67 31t-29 81q0 50 53 91q186 147 430 147q203 0 323 -106t120 -276q1 -170 -139 -287q-140 -116 -392 -152l-39 -109q-31 -80 -102 -80
h-12q-35 0 -55 25q-19 25 -15 63l29 187q8 74 106 88q160 19 257 83t97 156q0 180 -210 179q-130 0 -263 -90q-53 -31 -92 -31z" />
    <glyph glyph-name="at" unicode="@" horiz-adv-x="2007" 
d="M1393 -160q35 0 37 -37q0 -20 -23 -32q-199 -92 -432 -93q-381 0 -619 222t-237 575q0 195 79 377t212 315t319 214t391 81q373 0 596 -206t223 -502t-139 -456q-139 -161 -325 -161q-104 0 -177 46q-72 46 -98 126q-156 -174 -344 -174q-139 0 -233 92t-95 252
q0 233 157 397t353 162q196 0 283 -166l16 54q33 100 113 100q47 0 74 -37t8 -90l-137 -436q-33 -109 3 -172t124 -64q123 1 229 143q107 142 107 396t-202 437t-536 183q-252 0 -465 -126t-333 -335q-120 -210 -121 -450q0 -319 215 -520t559 -201q201 0 393 80q8 6 25 6z
M934 309q123 0 224 108t102 247q0 90 -56 144t-149 54q-121 0 -215 -105t-95 -251q-1 -92 51 -144t138 -53z" />
    <glyph glyph-name="A" unicode="A" horiz-adv-x="1552" 
d="M1268 -10q-53 0 -86 28t-39 74l-43 254h-699l-194 -276q-57 -80 -129 -80q-47 0 -76 28t-29 72q0 45 31 82l848 1180q70 102 178 102h6q117 0 140 -121l210 -1157q8 -46 8 -80t-36 -70q-37 -36 -90 -36zM557 569h506l-98 580z" />
    <glyph glyph-name="B" unicode="B" horiz-adv-x="1468" 
d="M727 0h-543q-63 0 -93 44t-9 116l307 1147q16 59 54 93t89 34h441q227 0 348 -96t121 -243q0 -149 -90 -243t-238 -127q223 -86 223 -287q-1 -202 -163 -320t-447 -118zM762 223q150 -1 236 59t87 152q0 92 -67 137q-68 45 -184 45h-383l-105 -393h416zM864 829
q152 -1 238 57t86 163q0 162 -238 161h-340l-100 -381h354z" />
    <glyph glyph-name="C" unicode="C" horiz-adv-x="1495" 
d="M804 -25q-286 0 -468 166t-182 445q0 227 115 428q116 200 317 322t434 122q299 0 479 -201q51 -47 51 -103t-37 -94t-94 -38t-88 39q-65 82 -143 124t-197 42q-229 1 -402 -189t-173 -442q0 -176 108 -282q109 -105 283 -105q100 0 170 28t156 93q102 65 167 -4
q33 -34 33 -88t-45 -91q-198 -172 -484 -172z" />
    <glyph glyph-name="D" unicode="D" horiz-adv-x="1587" 
d="M532 1434h281q375 0 561 -187q156 -156 156 -418q0 -330 -232 -561q-268 -268 -745 -268h-369q-63 0 -93 44t-9 116l307 1147q16 59 54 93t89 34zM584 229q330 0 524 195q160 160 160 395q0 164 -101 264q-121 121 -372 121h-179l-264 -975h232z" />
    <glyph glyph-name="E" unicode="E" horiz-adv-x="1351" 
d="M1030 0h-846q-63 0 -93 44t-9 116l307 1147q16 59 54 93t89 34h811q45 0 79 -33t34 -80t-33 -80t-80 -33h-729l-100 -374h576q46 0 80 -33t34 -79t-34 -79t-80 -33h-635l-105 -385h680q47 -1 80 -33t33 -79t-33 -80t-80 -33z" />
    <glyph glyph-name="F" unicode="F" horiz-adv-x="1353" 
d="M532 1434h824q47 0 81 -34q33 -34 33 -81t-34 -81t-80 -34h-742l-104 -391h586q49 0 83 -34q33 -34 33 -81t-34 -81t-82 -33h-647l-125 -469q-37 -125 -142 -125q-63 0 -93 43t-9 114l309 1160q16 59 54 93t89 34z" />
    <glyph glyph-name="G" unicode="G" horiz-adv-x="1601" 
d="M1040 1458q330 0 498 -176q49 -45 49 -99t-36 -90t-86 -36t-83 28q-152 141 -360 142q-254 -1 -430 -189t-176 -438q0 -184 114 -289q115 -104 290 -104t308 74l89 301h-252q-47 0 -79 32t-32 77q0 46 32 78t79 32h407q63 0 93 -44t10 -116l-123 -430q-25 -92 -105 -135
q-182 -100 -445 -100t-457 162q-194 163 -193 454q0 221 113 420q114 198 321 322t454 124z" />
    <glyph glyph-name="H" unicode="H" horiz-adv-x="1548" 
d="M1101 -10q-56 0 -86 43t-9 119l122 452h-673l-133 -491q-33 -123 -140 -123q-63 0 -93 44t-9 118l313 1169q16 57 54 90q39 33 95 33t86 -43t9 -119l-119 -444h674l129 483q33 123 139 123q63 0 93 -44t10 -118l-314 -1169q-16 -57 -54 -90t-94 -33z" />
    <glyph glyph-name="I" unicode="I" horiz-adv-x="649" 
d="M197 -10q-63 0 -94 44q-30 44 -9 118l314 1169q16 57 54 90t94 33t86 -43t9 -119l-315 -1169q-33 -123 -139 -123z" />
    <glyph glyph-name="J" unicode="J" horiz-adv-x="1155" 
d="M396 -20q-242 0 -382 174q-43 43 -43 94t35 86t84 35t92 -41q78 -115 213 -115t216 81t143 306l192 721q16 57 54 90t94 33t86 -43t10 -119l-199 -739q-43 -158 -87 -250t-116 -166q-150 -147 -392 -147z" />
    <glyph glyph-name="K" unicode="K" horiz-adv-x="1470" 
d="M182 -10q-63 0 -93 44t-9 118l313 1169q16 57 54 90q39 33 95 33t86 -43t9 -119l-154 -571l830 686q55 47 106 47t82 -32t31 -85t-45 -90l-533 -432l295 -619q51 -109 -17 -164q-38 -32 -87 -32q-88 0 -129 88l-268 586l-355 -283l-71 -268q-33 -123 -140 -123z" />
    <glyph glyph-name="L" unicode="L" horiz-adv-x="1265" 
d="M973 0h-789q-63 0 -93 44t-9 116l311 1161q16 57 54 90q39 33 95 33t86 -43t9 -119l-283 -1053h619q47 1 81 -33t34 -82t-34 -81t-81 -33z" />
    <glyph glyph-name="M" unicode="M" horiz-adv-x="1777" 
d="M1669 1442h21q63 0 93 -44t9 -120l-313 -1165q-13 -57 -53 -90t-96 -33t-86 44t-11 118l219 819l-465 -496q-71 -76 -141 -76t-103 90l-192 482l-229 -856q-33 -125 -140 -125q-63 0 -93 44t-9 118l311 1159q37 131 144 131h14q90 0 129 -103l252 -645l583 666
q72 82 156 82z" />
    <glyph glyph-name="N" unicode="N" horiz-adv-x="1609" 
d="M1526 1444q63 0 92 -43t8 -119l-317 -1173q-31 -117 -133 -117h-5q-98 0 -143 96l-461 954l-250 -929q-33 -123 -137 -123q-63 0 -92 43t-8 119l311 1163q35 127 150 127h12q102 0 149 -105l441 -917l243 901q33 123 140 123z" />
    <glyph glyph-name="O" unicode="O" horiz-adv-x="1712" 
d="M811 207q174 0 306 91t202 230t70 303t-110 280t-284 116t-306 -91q-132 -90 -202 -230q-69 -140 -69 -305t110 -279t283 -115zM799 -25q-285 -1 -464 179t-179 450q0 217 107 413q107 197 305 319t438 122q288 0 466 -179t179 -450q0 -217 -108 -413t-306 -318
q-198 -123 -438 -123z" />
    <glyph glyph-name="P" unicode="P" horiz-adv-x="1380" 
d="M731 688q197 0 311 80t113 221q0 86 -55 141q-74 74 -232 74h-254l-137 -516h254zM182 -10q-63 0 -93 44t-9 118l309 1155q16 59 54 93t89 34h345q295 0 434 -142q106 -106 106 -282q0 -254 -194 -400q-195 -145 -506 -145h-299l-96 -352q-33 -123 -140 -123z" />
    <glyph glyph-name="Q" unicode="Q" horiz-adv-x="1712" 
d="M156 604q0 217 107 413q107 197 305 319t438 122q288 0 466 -179t179 -450q0 -169 -69 -329t-191 -281l53 -61q41 -46 41 -98t-34 -86t-93 -34t-92 56l-66 84q-186 -104 -401 -105q-285 -1 -464 179t-179 450zM995 1227q-174 0 -306 -91q-132 -90 -202 -230
q-69 -140 -69 -305t110 -279t297 -115q129 0 244 65l-123 150q-45 63 -45 109t36 82t92 36t89 -51l127 -174q143 172 144 391q0 180 -110 296t-284 116z" />
    <glyph glyph-name="R" unicode="R" horiz-adv-x="1480" 
d="M1221 992q0 214 -291 212h-314l-129 -481h324q233 0 338 108q72 73 72 161zM182 -10q-63 0 -93 44t-9 118l309 1155q16 59 54 93t89 34h412q297 0 434 -140q104 -104 104 -288t-130 -310q-117 -121 -344 -170l202 -338q29 -41 29 -89t-37 -79t-86 -30q-96 0 -143 82
l-248 428h-299l-104 -387q-33 -123 -140 -123z" />
    <glyph glyph-name="S" unicode="S" horiz-adv-x="1304" 
d="M621 203q121 0 199 55t77 132q0 77 -56 123q-56 47 -224 113t-261 152q-92 86 -92 226q0 198 158 324t404 126t434 -141q57 -43 57 -101t-36 -93q-36 -36 -85 -36t-76 27q-145 121 -323 121q-121 0 -194 -56q-73 -57 -73 -129t58 -116t230 -110q171 -68 259 -154t88 -228
q0 -205 -163 -332t-396 -126q-338 0 -532 184q-49 41 -49 99t34 95q35 37 85 37t87 -33q93 -86 181 -122t209 -37z" />
    <glyph glyph-name="T" unicode="T" horiz-adv-x="1267" 
d="M500 -10q-63 0 -93 44t-10 118l283 1048h-318q-48 0 -82 35t-34 82t35 82t81 35h951q47 0 82 -35t35 -82t-35 -82t-82 -35h-381l-293 -1087q-33 -123 -139 -123z" />
    <glyph glyph-name="U" unicode="U" horiz-adv-x="1560" 
d="M176 451q0 102 33 227l170 643q16 57 54 90t94 33t86 -43t10 -119l-172 -639q-20 -94 -21 -158q0 -123 78 -199t232 -75q154 -1 260 107q108 108 157 300l189 703q14 57 53 90t95 33t86 -43t9 -119l-190 -702q-162 -601 -692 -603q-250 0 -391 127q-140 127 -140 347z
" />
    <glyph glyph-name="V" unicode="V" horiz-adv-x="1476" 
d="M586 -20h-11q-102 0 -120 114l-181 1174q-6 26 -6 68t37 75t96 33q121 0 134 -117l131 -989l688 1024q51 82 133 82q113 0 112 -92q1 -43 -24 -78l-819 -1190q-74 -104 -170 -104z" />
    <glyph glyph-name="W" unicode="W" horiz-adv-x="2248" 
d="M1432 -20h-11q-111 0 -116 112l-68 916l-561 -924q-66 -104 -164 -104h-12q-106 0 -117 112l-104 1176q-5 32 -5 70t37 72t93 34t91 -29q34 -29 35 -78l70 -966l582 979q55 98 143 98h14q106 0 113 -100l64 -977l598 989q51 84 137 84q51 0 84 -28t33 -66t-23 -78
l-746 -1188q-63 -104 -167 -104z" />
    <glyph glyph-name="X" unicode="X" horiz-adv-x="1429" 
d="M1227 106q0 -46 -37 -81t-90 -35q-88 0 -131 88l-232 461l-483 -480q-66 -69 -120 -69t-86 30t-32 82q0 53 50 99l548 542l-264 484q-31 57 -31 102t37 80t90 35q88 0 129 -88l228 -445l457 465q68 68 121 68t85 -30t31 -81q0 -51 -45 -96l-530 -524l272 -506
q33 -55 33 -101z" />
    <glyph glyph-name="Y" unicode="Y" horiz-adv-x="1341" 
d="M1389 1446q119 0 117 -108q0 -52 -46 -97l-678 -706l-112 -422q-16 -57 -54 -90t-95 -33q-56 0 -86 43t-9 119l111 409l-283 670q-25 57 -25 101t38 78t98 34q88 0 122 -98l222 -566l553 594q68 72 127 72z" />
    <glyph glyph-name="Z" unicode="Z" horiz-adv-x="1394" 
d="M444 1210q-48 0 -80 33t-32 79t33 79t79 33h938q51 0 80 -26t29 -71v-4q0 -59 -70 -125l-1052 -985h698q47 0 80 -34q33 -35 33 -79t-33 -77t-80 -33h-975q-49 0 -79 26t-29 70v4q-1 55 69 125l1053 985h-662z" />
    <glyph glyph-name="bracketleft" unicode="[" horiz-adv-x="931" 
d="M971 1239h-334l-352 -1311h280q41 0 70 -28t29 -69q0 -40 -29 -69t-70 -28h-430q-57 0 -88 38t-16 91l387 1444q14 57 54 92t99 35h400q39 0 67 -29t29 -70t-27 -69t-69 -27z" />
    <glyph glyph-name="backslash" unicode="\" horiz-adv-x="1067" 
d="M285 1564q0 30 26 55q27 26 70 26q86 -1 106 -99l379 -1650q10 -55 10 -86t-26 -57q-27 -26 -70 -25q-86 0 -106 98l-379 1651q-10 57 -10 87z" />
    <glyph glyph-name="bracketright" unicode="]" horiz-adv-x="931" 
d="M383 -266h-399q-41 0 -70 28t-29 69q0 40 29 69t70 28h331l353 1311h-281q-41 0 -70 29q-29 28 -29 68t30 69t69 29h432q55 0 86 -39t17 -90l-387 -1444q-15 -57 -55 -92t-97 -35z" />
    <glyph glyph-name="asciicircum" unicode="^" horiz-adv-x="1024" 
d="M698 1442h17q80 0 116 -78l121 -262q18 -41 19 -60q1 -43 -53 -43q-54 -1 -80 15t-54 73l-98 193l-203 -197q-92 -84 -155 -84q-58 1 -60 55q0 26 31 56l258 258q74 74 141 74z" />
    <glyph glyph-name="underscore" unicode="_" horiz-adv-x="1228" 
d="M-207 -328q-41 0 -69 29t-29 68q0 39 29 67t69 29h1237q39 0 68 -29q28 -30 28 -68t-28 -67t-68 -29h-1237z" />
    <glyph glyph-name="grave" unicode="`" horiz-adv-x="1024" 
d="M559 1456q0 26 47 52q47 28 109 28t82 -63l65 -175q8 -18 8 -36q0 -53 -77 -54q-37 0 -59 12t-46 44l-104 131q-25 35 -25 61z" />
    <glyph glyph-name="a" unicode="a" horiz-adv-x="1193" 
d="M852 719q0 164 -240 164q-104 -1 -168 -19t-98 -18q-32 0 -60 28t-28 72q0 74 78 98q158 52 348 52t300 -87t110 -247q0 -59 -23 -158l-131 -491q-35 -123 -139 -123q-117 0 -105 114l11 39q-150 -166 -357 -166q-141 0 -233 82t-92 213q0 182 132 286t341 106
q158 0 336 -54q18 57 18 109zM272 314q0 -158 194 -158q96 0 190 74t126 184l15 49q-127 41 -253 41t-199 -55t-73 -135z" />
    <glyph glyph-name="b" unicode="b" 
d="M645 190q153 0 263 127t110 308q0 123 -70 195t-186 71q-152 0 -270 -129t-119 -299q1 -119 77 -196t195 -77zM1276 641q0 -281 -181 -473t-425 -191q-244 0 -361 216l-20 -80q-33 -123 -137 -123q-63 0 -93 43q-29 43 -8 117l328 1232q35 123 139 123q63 0 92 -43
t8 -116l-110 -408q166 166 348 166t301 -126t119 -337z" />
    <glyph glyph-name="c" unicode="c" horiz-adv-x="1148" 
d="M90 457q0 264 190 455q190 192 438 192q247 0 386 -158q43 -47 43 -96t-34 -83t-86 -34t-83 39q-86 117 -234 117t-260 -129t-112 -301q0 -123 74 -197t188 -74t221 82q41 29 80 29t68 -31q29 -30 29 -76t-40 -81q-164 -135 -374 -135t-352 132t-142 349z" />
    <glyph glyph-name="d" unicode="d" 
d="M954 -10q-53 0 -82 30t-26 78l12 45q-166 -166 -348 -166t-301 126t-119 337q0 281 181 472q181 192 425 192t361 -215l131 493q33 123 139 123q63 0 91 -43t7 -116l-327 -1233q-33 -123 -144 -123zM606 190q152 0 271 129t118 299q0 119 -76 196q-77 77 -198 77
q-153 0 -263 -127t-110 -307q0 -123 70 -195t188 -72z" />
    <glyph glyph-name="e" unicode="e" horiz-adv-x="1228" 
d="M700 901q-114 0 -210 -79t-138 -204h561q10 31 11 76q0 90 -54 148q-56 58 -170 59zM602 178q125 0 221 66q91 51 146 -2q27 -27 27 -75t-48 -79q-154 -113 -372 -113t-353 128q-133 128 -133 346q0 161 79 311t228 247t341 97t306 -119t115 -301q0 -49 -12 -119
q-25 -111 -123 -110h-696v-21q4 -120 76 -188t198 -68z" />
    <glyph glyph-name="f" unicode="f" horiz-adv-x="811" 
d="M207 -10q-63 0 -92 43t-9 117l195 718h-29q-38 6 -66 34t-28 73t31 76t74 30h75l21 88q90 336 412 336q63 0 116 -14q84 -18 84 -98q0 -57 -35 -89q-34 -32 -76 -21t-83 11q-137 0 -179 -151l-16 -62h174q45 -1 75 -31t30 -75t-30 -76t-75 -31h-227l-203 -755
q-35 -123 -139 -123z" />
    <glyph glyph-name="g" unicode="g" horiz-adv-x="1363" 
d="M1212 1094q62 0 92 -44t9 -118l-199 -744q-39 -145 -80 -226q-149 -294 -530 -294q-258 0 -471 117q-68 35 -68 88t30 85t71 32t79 -21q162 -100 337 -100t272 96q72 72 112 219l19 66q-177 -164 -359 -164t-305 105t-123 286q0 263 182 445t416 182q140 0 222 -60
t135 -157l22 82q33 125 137 125zM606 289q150 -1 264 109t113 253q0 104 -72 173q-73 69 -205 69t-241 -110t-109 -263q0 -111 70 -171t180 -60z" />
    <glyph glyph-name="h" unicode="h" horiz-adv-x="1265" 
d="M870 -10q-63 0 -92 43t-8 117l121 450q16 55 16 123t-49 112t-145 44t-177 -75t-114 -196l-133 -495q-33 -123 -137 -123q-63 0 -93 43q-29 43 -8 117l328 1232q35 123 139 123q63 0 92 -43t8 -116l-108 -402q164 160 322 160t246 -87t89 -237q1 -63 -32 -190l-127 -477
q-33 -123 -138 -123z" />
    <glyph glyph-name="i" unicode="i" horiz-adv-x="585" 
d="M164 -10q-63 0 -92 43t-9 117l222 819q33 125 137 125q64 0 92 -44t8 -118l-219 -819q-35 -123 -139 -123zM491 1237q-60 0 -97 34q-36 34 -23 83l6 24q12 53 56 84q45 31 105 31t96 -34t25 -83l-6 -24q-12 -51 -57 -83t-105 -32z" />
    <glyph glyph-name="j" unicode="j" horiz-adv-x="583" 
d="M491 1237q-60 0 -97 34q-36 34 -23 83l6 24q12 53 56 84q45 31 105 31t96 -34t25 -83l-6 -24q-12 -51 -57 -83t-105 -32zM-252 -229q0 45 30 75t66 26q36 -5 71 -5q72 0 112 139l258 963q33 125 137 125q64 0 92 -44t8 -118l-254 -946q-84 -319 -366 -320
q-154 0 -154 105z" />
    <glyph glyph-name="k" unicode="k" horiz-adv-x="1191" 
d="M1090 1094q42 0 71 -29t29 -78t-47 -80l-373 -284l199 -437q25 -55 25 -96t-40 -71q-39 -30 -90 -29q-90 0 -127 88l-182 391l-215 -164l-51 -192q-33 -123 -137 -123q-63 0 -93 43q-29 43 -8 117l332 1232q33 123 137 123q63 -1 92 -43t9 -116l-199 -742l569 445
q57 45 99 45z" />
    <glyph glyph-name="l" unicode="l" horiz-adv-x="585" 
d="M164 -10q-63 0 -92 43t-9 117l332 1232q33 123 140 123q63 -1 91 -43t7 -116l-330 -1233q-35 -123 -139 -123z" />
    <glyph glyph-name="m" unicode="m" horiz-adv-x="1945" 
d="M703 879q-93 0 -171 -74t-110 -197l-133 -495q-33 -123 -137 -123q-63 0 -93 43q-29 43 -8 117l219 819q33 125 142 125q53 0 83 -31t27 -76l-12 -43q160 160 317 160q115 0 191 -60t104 -157q162 217 406 217q145 0 233 -88t88 -236q0 -55 -34 -190l-127 -477
q-33 -123 -138 -123q-63 0 -92 43t-8 117l121 450q14 61 14 126t-46 109t-138 44t-170 -75t-109 -196l-133 -495q-33 -123 -139 -123q-63 0 -91 43q-27 43 -7 117l120 450q14 61 15 109q0 170 -184 170z" />
    <glyph glyph-name="n" unicode="n" horiz-adv-x="1263" 
d="M412 1094q53 0 83 -31t27 -76l-12 -43q164 160 322 160t246 -87t89 -237q0 -63 -32 -190l-127 -477q-33 -123 -138 -123q-63 0 -92 43t-8 117l121 450q16 55 16 123t-49 112t-145 44t-177 -75t-114 -196l-133 -495q-33 -123 -137 -123q-63 0 -93 43q-29 43 -8 117
l219 819q33 125 142 125z" />
    <glyph glyph-name="o" unicode="o" horiz-adv-x="1323" 
d="M628 190q138 0 248 130t110 274q0 143 -77 219q-76 76 -200 76q-154 0 -263 -130q-108 -129 -108 -273t76 -220t214 -76zM614 -25q-242 1 -382 139t-140 372t186 426t430 192t384 -139t139 -373q1 -234 -187 -426t-430 -191z" />
    <glyph glyph-name="p" unicode="p" 
d="M412 1094q53 0 82 -30t26 -81l-12 -45q166 166 348 166t301 -126t119 -337q0 -281 -181 -472t-425 -191t-361 215l-108 -408q-33 -123 -138 -123q-63 0 -92 43t-8 117l307 1147q33 125 142 125zM762 891q-152 0 -270 -129t-119 -299q0 -119 77 -196t195 -77
q153 0 263 127t110 308q0 123 -70 195t-186 71z" />
    <glyph glyph-name="q" unicode="q" 
d="M721 891q-153 0 -263 -127t-110 -307q0 -123 71 -195t187 -72q152 0 271 129t118 302q-1 119 -77 195t-197 75zM90 440q0 280 181 472t426 192t360 -213l22 78q33 125 138 125q63 0 91 -44t7 -118l-303 -1147q-35 -123 -140 -123q-63 0 -92 43t-8 117l86 323
q-162 -168 -346 -168t-303 126t-119 337z" />
    <glyph glyph-name="r" unicode="r" horiz-adv-x="843" 
d="M150 -10q-63 0 -93 43q-29 43 -8 117l221 819q33 125 138 125q62 0 90 -41t12 -107l-25 -92q68 117 151 179q84 63 152 63q128 1 125 -113q0 -102 -116 -131q-328 -74 -430 -451l-78 -288q-35 -123 -139 -123z" />
    <glyph glyph-name="s" unicode="s" horiz-adv-x="1021" 
d="M465 170q74 0 123 35t49 84t-37 80t-159 81q-121 50 -197 114t-76 179q0 156 117 258q117 103 304 103t351 -103q57 -33 57 -86q1 -53 -29 -85q-56 -60 -143 -7q-125 86 -252 86q-77 0 -121 -35t-44 -82q0 -48 38 -78t159 -80q120 -50 196 -117t76 -175q0 -166 -122 -266
t-331 -100t-397 141q-45 33 -45 83t29 81q30 31 69 31t74 -27q143 -115 311 -115z" />
    <glyph glyph-name="t" unicode="t" horiz-adv-x="837" 
d="M639 113q0 -133 -233 -131q-131 0 -203 57t-72 156q0 63 19 124l145 549h-29q-38 6 -66 34t-28 73t31 76t73 30h76l51 185q33 123 138 123q63 0 92 -43t8 -117l-41 -148h166q43 -1 74 -31q30 -30 30 -75t-30 -76t-74 -31h-223l-140 -522q-8 -41 -8 -61q0 -84 105 -84
q22 0 54 4t58 -21t27 -71z" />
    <glyph glyph-name="u" unicode="u" horiz-adv-x="1265" 
d="M854 -10q-51 0 -82 30t-29 74l13 45q-162 -162 -321 -162q-159 -1 -248 87t-89 237q0 63 33 191l127 477q33 125 137 125q63 0 92 -44t9 -118l-121 -451q-15 -57 -15 -123t50 -111q50 -44 144 -44q95 0 176 75t114 195l133 496q33 125 137 125q63 0 92 -44t8 -118
l-217 -819q-34 -123 -143 -123z" />
    <glyph glyph-name="v" unicode="v" horiz-adv-x="1191" 
d="M444 -18h-6q-109 0 -125 110l-133 821q-6 27 -6 70t38 77t90 34t86 -29t38 -80l84 -694l471 721q55 82 131 82q49 0 77 -26q27 -26 27 -66t-20 -76l-588 -842q-72 -102 -164 -102z" />
    <glyph glyph-name="w" unicode="w" horiz-adv-x="1746" 
d="M178 987q0 37 39 72t91 35t86 -30t36 -79l31 -641l385 651q55 98 145 99h13q104 0 110 -101l37 -651l399 674q43 78 119 78q47 0 74 -26q53 -51 4 -140l-516 -846q-57 -100 -160 -100h-8q-109 0 -115 114l-39 635l-387 -647q-59 -102 -160 -102h-8q-108 -1 -114 114
l-58 817q-4 37 -4 74z" />
    <glyph glyph-name="x" unicode="x" horiz-adv-x="1171" 
d="M1078 1096q30 0 59 -28t29 -80t-58 -101l-379 -346l203 -342q31 -53 31 -101t-34 -82q-34 -33 -87 -32q-74 0 -123 94l-160 303l-342 -330q-46 -46 -74 -56q-28 -9 -59 -9q-32 0 -60 28t-28 79q0 52 57 104l400 362l-193 324q-33 49 -33 97t33 82t82 34q48 0 76 -22
t55 -70l152 -285l319 311q56 54 80 60t54 6z" />
    <glyph glyph-name="y" unicode="y" horiz-adv-x="1198" 
d="M170 -123q88 0 174 121l-151 915q-5 37 -5 75t35 72t87 34t86 -30t38 -81l96 -709l451 738q47 82 129 82q49 0 79 -27t30 -66t-33 -92l-606 -940q-109 -167 -210 -235t-214 -68t-174 31q-76 33 -76 108q0 45 29 77t57 32t69 -12q63 -25 109 -25z" />
    <glyph glyph-name="z" unicode="z" horiz-adv-x="1134" 
d="M328 1081h710q51 -1 81 -25t30 -65v-2q0 -59 -59 -110l-758 -676h493q41 0 72 -30t31 -72q0 -41 -31 -71t-72 -30h-739q-51 0 -81 25t-30 67v2q0 57 60 109l758 676h-465q-43 -1 -73 29t-30 72t30 72t73 29z" />
    <glyph glyph-name="braceleft" unicode="{" horiz-adv-x="997" 
d="M213 682h12q145 0 207 71q61 71 92 275t149 310q118 105 343 122q53 4 82 -18t28 -66q0 -74 -79 -88q-156 -22 -221 -96q-66 -74 -90 -256t-98 -265t-226 -102q80 -14 123 -61q43 -48 43 -110t-33 -152q-37 -115 -37 -172q0 -123 129 -178q59 -27 59 -80t-34 -79t-82 -13
q-309 74 -310 309q0 70 35 175q35 104 35 160t-27 85t-94 36q-109 20 -108 99q1 42 29 68t73 26z" />
    <glyph glyph-name="bar" unicode="|" horiz-adv-x="677" 
d="M276 -174v1720q0 41 29 70t70 29t71 -29t29 -70v-1720q0 -41 -30 -70q-31 -28 -71 -28t-69 28t-29 70z" />
    <glyph glyph-name="braceright" unicode="}" horiz-adv-x="997" 
d="M809 494h-12q-143 0 -205 -72t-94 -276q-31 -204 -149 -308q-118 -106 -343 -123q-53 -4 -82 19t-28 65q0 74 79 88q156 23 221 97q66 74 90 256t98 265q75 83 226 101q-164 31 -164 178q0 61 34 161t34 157q0 125 -129 178q-59 27 -59 80t33 79q34 26 83 13
q311 -74 312 -309q0 -69 -36 -173t-36 -161t27 -86t94 -37h2q106 -20 106 -98q0 -41 -28 -68q-29 -26 -74 -26z" />
    <glyph glyph-name="asciitilde" unicode="~" horiz-adv-x="1013" 
d="M227 469q-37 0 -59 19q-22 18 -21 48q0 30 17 56q106 190 252 190q76 0 153 -63q74 -55 107 -55q55 0 108 75q35 41 72 41q76 0 78 -67q0 -29 -14 -56q-109 -188 -252 -188q-76 0 -153 59t-107 60q-53 0 -111 -76q-33 -43 -70 -43z" />
    <glyph glyph-name="uni00A0" unicode="&#xa0;" horiz-adv-x="614" 
 />
    <glyph glyph-name="exclamdown" unicode="&#xa1;" horiz-adv-x="620" 
d="M536 1444q62 0 99 -41t24 -96l-8 -35q-14 -59 -57 -95q-44 -36 -106 -36t-99 41q-36 41 -24 96l8 35q14 61 57 96q44 35 106 35zM420 991q35 -1 52 -23t11 -61l-155 -827q-8 -37 -33 -62t-59 -24h-138q-35 0 -51 26t-2 64l293 844q25 63 82 63z" />
    <glyph glyph-name="cent" unicode="&#xa2;" horiz-adv-x="1183" 
d="M387 657q0 -160 119 -231l254 649h-8q-156 -10 -260 -134t-105 -284zM436 -23q-44 0 -66 33t-3 82l49 121q-129 59 -202 174t-73 266q-1 269 185 453t456 184q35 0 54 -2l32 82q37 86 101 86q45 0 65 -32t2 -83l-35 -88q121 -45 183 -127q47 -47 47 -95t-34 -82t-85 -34
t-84 37q-49 63 -117 92l-260 -665q6 -2 21 -2q123 2 233 74q98 55 152 -7q27 -31 27 -83t-50 -87q-164 -113 -362 -112q-33 0 -94 8l-43 -107q-33 -86 -99 -86z" />
    <glyph glyph-name="sterling" unicode="&#xa3;" horiz-adv-x="1306" 
d="M934 1221q-211 0 -283 -267l-49 -172h391q43 0 75 -32t32 -75q0 -44 -32 -75t-75 -31h-446l-92 -350h534q47 0 79 -32q32 -31 32 -77t-32 -78t-79 -32h-897q-42 0 -70 26t-28 62q0 72 82 94l125 35l94 352h-37q-43 0 -75 31q-31 31 -31 75t31 76q32 32 75 31h94l58 215
q120 455 532 455q217 0 340 -133q53 -49 53 -103t-35 -92t-86 -37q-51 0 -90 39q-80 95 -190 95z" />
    <glyph glyph-name="yen" unicode="&#xa5;" horiz-adv-x="1449" 
d="M1418 1446q52 0 80 -28t28 -77t-47 -100l-514 -518h217q40 0 66 -27q26 -26 26 -64t-27 -65t-65 -26h-340l-39 -150h291q40 -1 66 -27t26 -64t-27 -64t-65 -27h-340l-25 -96q-16 -57 -53 -90t-91 -33t-83 40t-8 111l16 68h-289q-37 0 -65 27q-28 26 -27 64q0 38 28 65
t64 26h338l39 150h-289q-39 1 -65 27t-27 64q0 38 27 64t65 27h266l-225 508q-26 61 -26 102t36 76q37 35 91 35q90 0 122 -84l213 -529l512 543q68 72 120 72z" />
    <glyph glyph-name="section" unicode="&#xa7;" horiz-adv-x="1294" 
d="M598 172q78 0 127 29t49 71t-50 74q-50 31 -214 80q-164 50 -258 112t-94 170t83 179q83 70 232 90q-98 74 -98 178q0 133 124 217q123 84 329 84t370 -113q51 -35 51 -86q-1 -51 -31 -81t-69 -31q-39 0 -70 22q-143 98 -284 99q-82 0 -131 -28q-50 -28 -50 -72t50 -74
t214 -79q163 -49 258 -111t95 -170t-83 -180q-83 -71 -233 -91q98 -74 99 -178q0 -133 -123 -217t-307 -84q-254 0 -426 137q-43 33 -43 82t29 80q30 31 73 31t72 -25q143 -115 309 -115zM809 563q80 0 133 37t53 85t-47 80q-48 33 -168 71t-200 38t-134 -36
q-53 -36 -53 -85q0 -48 47 -80t168 -71t201 -39z" />
    <glyph glyph-name="dieresis" unicode="&#xa8;" horiz-adv-x="1024" 
d="M947 1475q56 0 90 -36t22 -85l-8 -33q-13 -49 -55 -82t-99 -33t-91 36t-22 85l9 33q14 51 56 83t98 32zM540 1475q56 0 90 -36t21 -85l-8 -33q-12 -49 -54 -82t-99 -33t-92 36q-34 36 -21 85l8 33q14 51 56 83q43 32 99 32z" />
    <glyph glyph-name="copyright" unicode="&#xa9;" horiz-adv-x="1699" 
d="M900 326q-166 0 -278 114t-112 283v4q0 168 114 285q114 116 278 116t272 -88q32 -22 32 -58t-22 -58t-48 -21q-26 0 -53 21q-84 66 -181 66t-167 -77q-70 -76 -69 -184v-4q0 -109 70 -185t171 -75q102 0 189 74q18 18 46 18q28 1 50 -21t20 -52q0 -30 -24 -50
q-123 -108 -288 -108zM233 713q-1 -276 189 -470t472 -194t473 196t192 472v4q-1 276 -191 470q-190 193 -472 193t-472 -196t-191 -471v-4zM893 -25q-309 0 -524 216t-215 522v4q0 305 217 523t526 218t524 -216t215 -521v-4q0 -305 -217 -523t-526 -219z" />
    <glyph glyph-name="ordfeminine" unicode="&#xaa;" horiz-adv-x="798" 
d="M164 578q-25 0 -42 17t-18 42q0 25 18 42t42 17h452q25 0 42 -17q18 -17 18 -42t-18 -42t-42 -17h-452zM535 1317q-60 0 -144 -21q-53 0 -53 56q0 47 47 63q85 27 191 27t167 -48t62 -137q0 -31 -12 -88l-74 -268q-20 -72 -80 -72q-35 -1 -50 19t-11 49l6 21
q-88 -92 -182 -92t-142 44q-49 45 -49 130q0 84 75 144t173 60t194 -30q12 42 13 55q0 88 -131 88zM356 1009q0 -81 98 -81q49 0 104 42q54 42 69 99l4 21q-161 49 -235 -9q-40 -31 -40 -72z" />
    <glyph glyph-name="guillemotleft" unicode="&#xab;" horiz-adv-x="1239" 
d="M1111 981q42 0 68 -25q25 -26 25 -70t-35 -75l-319 -307l133 -266q16 -33 16 -71q-1 -38 -31 -67t-75 -28q-66 0 -98 63l-152 301q-27 52 -27 80t35 59l359 355q59 51 101 51zM599 981q42 0 68 -25q25 -24 25 -70t-37 -75l-317 -307l133 -266q16 -39 16 -74
q-1 -35 -31 -64t-75 -28q-66 0 -98 63l-152 301q-27 54 -27 82t33 57l361 355q59 51 101 51z" />
    <glyph glyph-name="registered" unicode="&#xae;" horiz-adv-x="782" 
d="M487 1108h78q63 0 64 51q0 51 -64 51h-78v-102zM397 954v287q-1 19 13 33t32 14h129q68 0 109 -32t41 -91q0 -82 -74 -112l55 -68q12 -11 12 -31t-12 -32q-32 -31 -69 6l-86 106h-60v-80q0 -18 -13 -31q-14 -13 -32 -13t-32 12q-14 14 -13 32zM545 776q133 0 224 94
t91 226v2q0 131 -91 224t-224 93t-224 -94t-92 -225v-2q-1 -130 91 -224t225 -94zM901 1096q-1 -147 -105 -253t-252 -106q-148 1 -252 105q-103 104 -104 252v2q0 146 104 252t254 106q149 0 252 -104t103 -252v-2z" />
    <glyph glyph-name="macron" unicode="&#xaf;" horiz-adv-x="1024" 
d="M995 1241h-542q-37 0 -64 27q-27 28 -27 64t27 63t64 26h542q39 -1 66 -27t27 -63t-28 -63q-26 -26 -65 -27z" />
    <glyph glyph-name="degree" unicode="&#xb0;" horiz-adv-x="862" 
d="M505 911q81 0 142 72t61 155t-43 129q-44 46 -124 46q-81 0 -143 -73t-62 -155t44 -128t125 -46zM864 1142q0 -140 -110 -256q-110 -114 -258 -114q-146 0 -231 84t-85 226t111 254q111 114 257 114t231 -84t85 -224z" />
    <glyph glyph-name="plusminus" unicode="&#xb1;" horiz-adv-x="1298" 
d="M928 0h-791q-43 0 -74 31t-31 75t31 74q31 31 74 31h791q45 0 76 -31q30 -31 30 -75q0 -45 -30 -75t-76 -30zM625 383q-57 0 -83 39t-7 108l61 234h-252q-45 0 -76 32q-30 32 -30 76t30 77q31 32 76 32h311l70 260q33 119 127 119q57 0 83 -39t7 -109l-61 -231h252
q45 0 75 -32t31 -77q0 -44 -31 -76t-75 -32h-312l-69 -262q-33 -119 -127 -119z" />
    <glyph glyph-name="acute" unicode="&#xb4;" horiz-adv-x="1024" 
d="M796 1538q46 0 95 -28t49 -57t-39 -58l-174 -131q-76 -56 -148 -56t-71 47q0 25 20 45l164 181q58 57 104 57z" />
    <glyph glyph-name="paragraph" unicode="&#xb6;" horiz-adv-x="1157" 
d="M712 -10q-56 0 -86 44t-10 118l82 313q-240 7 -374 111t-136 307q0 247 182 399t523 152h182q57 0 87 -38t16 -91l-318 -1192q-16 -57 -54 -90t-94 -33z" />
    <glyph glyph-name="periodcentered" unicode="&#xb7;" horiz-adv-x="600" 
d="M292 475q-62 0 -99 41t-25 96l8 35q14 59 57 95t105 36t100 -41q37 -41 25 -96l-8 -35q-13 -61 -57 -96t-106 -35z" />
    <glyph glyph-name="cedilla" unicode="&#xb8;" horiz-adv-x="1024" 
d="M141 -242q0 30 29 62l190 200h187l-205 -294q-35 -54 -80 -54t-83 28t-38 58z" />
    <glyph glyph-name="ordmasculine" unicode="&#xba;" horiz-adv-x="815" 
d="M166 578q-23 0 -41 17t-19 42q0 25 18 42t42 17h483q25 0 42 -17t17 -42t-16 -42q-18 -17 -43 -17h-483zM518 946q74 0 131 68t57 144t-40 118q-41 43 -116 43t-131 -67q-57 -68 -57 -144t41 -119t115 -43zM850 1160q0 -130 -102 -234t-237 -105q-136 0 -214 77t-78 207
q-1 130 101 234q102 105 237 105t214 -77t79 -207z" />
    <glyph glyph-name="guillemotright" unicode="&#xbb;" horiz-adv-x="1239" 
d="M124 86q-44 0 -70 25t-26 71t38 74l317 307l-133 266q-37 91 15 138q32 29 75 28q66 0 98 -63l152 -301q27 -53 27 -81t-33 -58l-361 -355q-55 -51 -99 -51zM637 86q-43 0 -70 25t-27 69t38 76l317 307l-131 266q-43 88 13 138q32 29 75 28q66 0 98 -63l152 -301
q27 -53 27 -81t-33 -58l-361 -355q-55 -51 -98 -51z" />
    <glyph glyph-name="questiondown" unicode="&#xbf;" horiz-adv-x="1107" 
d="M850 1444q62 0 100 -41q37 -41 25 -96l-8 -35q-13 -59 -57 -95t-106 -36t-99 41t-25 96l8 35q14 61 57 96t105 35zM895 332q39 0 68 -31t29 -81t-54 -91q-186 -147 -430 -147q-203 0 -323 106t-119 262q0 184 139 300t391 153l39 108q31 80 102 80h13q35 -1 54 -25
t15 -63l-28 -186q-8 -74 -107 -88q-160 -19 -257 -83t-97 -156q0 -180 211 -179q129 0 262 90q53 31 92 31z" />
    <glyph glyph-name="Agrave" unicode="&#xc0;" horiz-adv-x="1552" 
d="M1116 1616q0 -53 -78 -53q-37 0 -58 11t-46 44l-105 131q-25 35 -25 61t48 53q47 28 98 27q72 0 92 -63l66 -174q8 -18 8 -37zM1268 -10q-53 0 -86 28t-39 74l-43 254h-699l-194 -276q-57 -80 -129 -80q-47 0 -76 28t-29 72q0 45 31 82l848 1180q70 102 178 102h6
q117 0 140 -121l210 -1157q8 -46 8 -80t-36 -70q-37 -36 -90 -36zM557 569h506l-98 580z" />
    <glyph glyph-name="Aacute" unicode="&#xc1;" horiz-adv-x="1552" 
d="M1091 1563q-72 0 -71 47q0 25 20 45l164 180q58 57 104 57t95 -28t49 -56q0 -30 -39 -59l-174 -131q-76 -55 -148 -55zM1268 -10q-53 0 -86 28t-39 74l-43 254h-699l-194 -276q-57 -80 -129 -80q-47 0 -76 28t-29 72q0 45 31 82l848 1180q70 102 178 102h6
q117 0 140 -121l210 -1157q8 -46 8 -80t-36 -70q-37 -36 -90 -36zM557 569h506l-98 580z" />
    <glyph glyph-name="Acircumflex" unicode="&#xc2;" horiz-adv-x="1552" 
d="M1393 1604q-1 -41 -55 -41t-85 9t-63 46l-80 92l-131 -92q-80 -55 -158 -55q-53 0 -53 39q0 23 29 55l176 166q59 59 131 59h67q82 1 115 -65l84 -160q23 -37 23 -53zM1268 -10q-53 0 -86 28t-39 74l-43 254h-699l-194 -276q-57 -80 -129 -80q-47 0 -76 28t-29 72
q0 45 31 82l848 1180q70 102 178 102h6q117 0 140 -121l210 -1157q8 -46 8 -80t-36 -70q-37 -36 -90 -36zM557 569h506l-98 580z" />
    <glyph glyph-name="Atilde" unicode="&#xc3;" horiz-adv-x="1552" 
d="M792 1565q-36 0 -58 19q-43 38 -5 104q106 190 252 190q76 0 154 -63q74 -55 106 -56q55 0 109 76q36 41 72 41t56 -18t21 -48q0 -30 -14 -57q-109 -188 -252 -188q-76 0 -153 59t-107 59q-53 0 -111 -75q-33 -43 -70 -43zM1268 -10q-53 0 -86 28t-39 74l-43 254h-699
l-194 -276q-57 -80 -129 -80q-47 0 -76 28t-29 72q0 45 31 82l848 1180q70 102 178 102h6q117 0 140 -121l210 -1157q8 -46 8 -80t-36 -70q-37 -36 -90 -36zM557 569h506l-98 580z" />
    <glyph glyph-name="Adieresis" unicode="&#xc4;" horiz-adv-x="1552" 
d="M1334 1829q56 0 90 -36t22 -85l-8 -33q-12 -49 -54 -82t-100 -33q-57 0 -91 36t-22 85l9 33q14 51 56 83t98 32zM927 1829q56 0 90 -36t21 -85l-8 -33q-12 -49 -54 -82t-99 -33t-92 36q-34 36 -21 85l8 33q14 51 56 83q43 32 99 32zM1268 -10q-53 0 -86 28t-39 74
l-43 254h-699l-194 -276q-57 -80 -129 -80q-47 0 -76 28t-29 72q0 45 31 82l848 1180q70 102 178 102h6q117 0 140 -121l210 -1157q8 -46 8 -80t-36 -70q-37 -36 -90 -36zM557 569h506l-98 580z" />
    <glyph glyph-name="Aring" unicode="&#xc5;" horiz-adv-x="1552" 
d="M940 1564q0 -54 29 -82t83 -28t94 47t40 101t-29 82t-83 28t-94 -47t-40 -101zM557 569h506l-98 580zM78 -10q-47 0 -76 28t-29 72q0 45 31 82l889 1237q-68 55 -68 153t76 174t178 74q101 0 161 -57t60 -134t-36 -137t-99 -91l221 -1215q8 -46 8 -80t-36 -70
q-37 -36 -90 -36t-86 28t-39 74l-43 254h-699l-194 -276q-57 -80 -129 -80z" />
    <glyph glyph-name="AE" unicode="&#xc6;" horiz-adv-x="2172" 
d="M1171 1434h983q45 0 79 -33t34 -80t-33 -80t-80 -33h-694l-100 -374h541q47 0 81 -33t33 -79q0 -46 -34 -79t-80 -33h-601l-104 -385h645q47 -1 80 -33t33 -79t-33 -80t-80 -33h-811q-63 0 -93 44t-9 116l51 186h-524l-232 -283q-63 -73 -117 -73q-106 1 -106 90
q0 51 39 98l960 1159q82 97 172 97zM637 569h401l172 645h-43z" />
    <glyph glyph-name="Ccedilla" unicode="&#xc7;" horiz-adv-x="1495" 
d="M801 -25h-17l-172 -249q-35 -54 -80 -54q-44 0 -82 28t-38 58t28 62l168 178q-206 51 -330 206t-124 382t115 428q116 200 317 322t434 122q299 0 479 -201q51 -47 51 -103t-37 -94t-94 -38t-88 39q-65 82 -143 124t-197 42q-229 1 -402 -189t-173 -442q0 -176 108 -282
q109 -105 283 -105q100 0 170 28t156 93q102 65 167 -4q33 -34 33 -88t-45 -91q-197 -172 -487 -172z" />
    <glyph glyph-name="Egrave" unicode="&#xc8;" horiz-adv-x="1351" 
d="M866 1870q62 0 82 -64l66 -174q8 -18 8 -37q0 -53 -78 -53q-37 0 -58 11t-46 44l-105 132q-25 35 -25 61t48 52q46 28 108 28zM1030 0h-846q-63 0 -93 44t-9 116l307 1147q16 59 54 93t89 34h811q45 0 79 -33t34 -80t-33 -80t-80 -33h-729l-100 -374h576q46 0 80 -33
t34 -79t-34 -79t-80 -33h-635l-105 -385h680q47 -1 80 -33t33 -79t-33 -80t-80 -33z" />
    <glyph glyph-name="Eacute" unicode="&#xc9;" horiz-adv-x="1351" 
d="M1030 0h-846q-63 0 -93 44t-9 116l307 1147q16 59 54 93t89 34h811q45 0 79 -33t34 -80t-33 -80t-80 -33h-729l-100 -374h576q46 0 80 -33t34 -79t-34 -79t-80 -33h-635l-105 -385h680q47 -1 80 -33t33 -79t-33 -80t-80 -33zM997 1542q-72 0 -71 47q0 25 20 45l164 181
q57 57 103 57q45 0 95 -28t50 -57t-39 -58l-174 -132q-76 -55 -148 -55z" />
    <glyph glyph-name="Ecircumflex" unicode="&#xca;" horiz-adv-x="1351" 
d="M1030 0h-846q-63 0 -93 44t-9 116l307 1147q16 59 54 93t89 34h811q45 0 79 -33t34 -80t-33 -80t-80 -33h-729l-100 -374h576q46 0 80 -33t34 -79t-34 -79t-80 -33h-635l-105 -385h680q47 -1 80 -33t33 -79t-33 -80t-80 -33zM1242 1542q-54 0 -85 9t-63 46l-80 93
l-131 -93q-80 -55 -158 -55q-53 0 -53 39q0 23 28 55l177 166q59 59 131 60h67q82 0 115 -66l84 -160q23 -37 22 -53q0 -41 -54 -41z" />
    <glyph glyph-name="Edieresis" unicode="&#xcb;" horiz-adv-x="1351" 
d="M1030 0h-846q-63 0 -93 44t-9 116l307 1147q16 59 54 93t89 34h811q45 0 79 -33t34 -80t-33 -80t-80 -33h-729l-100 -374h576q46 0 80 -33t34 -79t-34 -79t-80 -33h-635l-105 -385h680q47 -1 80 -33t33 -79t-33 -80t-80 -33zM1238 1808q56 0 90 -36t22 -84l-9 -33
q-12 -49 -54 -82t-99 -33t-91 36t-22 85l8 33q15 50 57 82t98 32zM830 1808q56 0 91 -35q34 -36 21 -85l-8 -33q-12 -49 -54 -82t-100 -33t-91 36q-34 36 -21 85l8 33q14 50 56 82t98 32z" />
    <glyph glyph-name="Igrave" unicode="&#xcc;" horiz-adv-x="649" 
d="M488 1870q62 0 81 -64l66 -174q8 -18 8 -37q0 -53 -78 -53q-37 0 -58 11t-46 44l-105 132q-24 35 -24 61t47 52q47 28 109 28zM197 -10q-63 0 -94 44q-30 44 -9 118l314 1169q16 57 54 90t94 33t86 -43t9 -119l-315 -1169q-33 -123 -139 -123z" />
    <glyph glyph-name="Iacute" unicode="&#xcd;" horiz-adv-x="649" 
d="M614 1542q-72 0 -71 47q0 25 20 45l164 181q57 57 103 57t96 -28t49 -57q0 -29 -39 -58l-174 -132q-76 -55 -148 -55zM197 -10q-63 0 -94 44q-30 44 -9 118l314 1169q16 57 54 90t94 33t86 -43t9 -119l-315 -1169q-33 -123 -139 -123z" />
    <glyph glyph-name="Icircumflex" unicode="&#xce;" horiz-adv-x="649" 
d="M918 1583q0 -41 -54 -41t-86 9q-31 9 -63 46l-80 93l-131 -93q-80 -55 -158 -55q-53 0 -53 39q0 23 29 55l176 166q59 59 131 60h67q82 0 115 -66l84 -160q23 -37 23 -53zM197 -10q-63 0 -94 44q-30 44 -9 118l314 1169q16 57 54 90t94 33t86 -43t9 -119l-315 -1169
q-33 -123 -139 -123z" />
    <glyph glyph-name="Idieresis" unicode="&#xcf;" horiz-adv-x="649" 
d="M859 1808q56 0 90 -36t22 -84l-8 -33q-13 -49 -55 -82t-99 -33t-91 36t-22 85l9 33q14 50 56 82t98 32zM452 1808q56 0 90 -36t21 -84l-8 -33q-12 -49 -54 -82q-41 -33 -99 -33t-92 36t-21 85l8 33q14 51 56 83q43 31 99 31zM197 -10q-63 0 -94 44q-30 44 -9 118
l314 1169q16 57 54 90t94 33t86 -43t9 -119l-315 -1169q-33 -123 -139 -123z" />
    <glyph glyph-name="Eth" unicode="&#xd0;" horiz-adv-x="1634" 
d="M631 229q330 0 524 195q160 160 160 395q0 164 -101 264q-121 121 -372 121h-178l-101 -370h213q47 0 80 -33t33 -80t-33 -80t-80 -33h-274l-103 -379h232zM580 1434h280q375 0 561 -187q156 -156 156 -418q0 -330 -231 -561q-268 -268 -746 -268h-369q-63 0 -93 44
t-9 116l119 448h-33q-45 0 -78 33t-33 80t32 80t79 33h94l127 473q16 59 54 93q39 34 90 34z" />
    <glyph glyph-name="Ntilde" unicode="&#xd1;" horiz-adv-x="1609" 
d="M797 1544q-37 0 -59 20t-22 48q0 29 17 55q106 190 252 191q76 0 154 -64q74 -55 106 -55q55 0 109 76q35 41 72 41t57 -19q20 -18 20 -48t-14 -56q-109 -188 -252 -189q-76 0 -156 64q-74 55 -104 55q-53 0 -111 -76q-32 -43 -69 -43zM1526 1444q63 0 92 -43t8 -119
l-317 -1173q-31 -117 -133 -117h-5q-98 0 -143 96l-461 954l-250 -929q-33 -123 -137 -123q-63 0 -92 43t-8 119l311 1163q35 127 150 127h12q102 0 149 -105l441 -917l243 901q33 123 140 123z" />
    <glyph glyph-name="Ograve" unicode="&#xd2;" horiz-adv-x="1712" 
d="M1159 1616q0 -53 -78 -53q-37 0 -58 11t-46 44l-105 131q-24 35 -24 61t47 53q47 28 98 27q72 0 92 -63l66 -174q8 -18 8 -37zM811 207q174 0 306 91t202 230t70 303t-110 280t-284 116t-306 -91q-132 -90 -202 -230q-69 -140 -69 -305t110 -279t283 -115zM799 -25
q-285 -1 -464 179t-179 450q0 217 107 413q107 197 305 319t438 122q288 0 466 -179t179 -450q0 -217 -108 -413t-306 -318q-198 -123 -438 -123z" />
    <glyph glyph-name="Oacute" unicode="&#xd3;" horiz-adv-x="1712" 
d="M811 207q174 0 306 91t202 230t70 303t-110 280t-284 116t-306 -91q-132 -90 -202 -230q-69 -140 -69 -305t110 -279t283 -115zM799 -25q-285 -1 -464 179t-179 450q0 217 107 413q107 197 305 319t438 122q288 0 466 -179t179 -450q0 -217 -108 -413t-306 -318
q-198 -123 -438 -123zM1132 1563q-72 0 -71 47q0 25 20 45l164 180q57 57 103 57t96 -27q49 -27 49 -57t-39 -59l-174 -131q-76 -55 -148 -55z" />
    <glyph glyph-name="Ocircumflex" unicode="&#xd4;" horiz-adv-x="1712" 
d="M811 207q174 0 306 91t202 230t70 303t-110 280t-284 116t-306 -91q-132 -90 -202 -230q-69 -140 -69 -305t110 -279t283 -115zM799 -25q-285 -1 -464 179t-179 450q0 217 107 413q107 197 305 319t438 122q288 0 466 -179t179 -450q0 -217 -108 -413t-306 -318
q-198 -123 -438 -123zM1432 1604q0 -41 -54 -41t-86 9q-31 9 -63 46l-80 92l-131 -92q-80 -55 -158 -55q-53 0 -53 39q0 23 29 55l176 166q59 59 131 59h67q82 1 115 -65l84 -160q23 -37 23 -53z" />
    <glyph glyph-name="Otilde" unicode="&#xd5;" horiz-adv-x="1712" 
d="M833 1565q-37 0 -59 19q-43 38 -4 104q106 190 252 190q76 0 154 -63q74 -55 106 -56q55 0 109 76q35 41 71 41t58 -18q20 -18 20 -48t-14 -57q-109 -188 -252 -188q-76 0 -153 59t-107 59q-53 0 -111 -75q-33 -43 -70 -43zM811 207q174 0 306 91t202 230t70 303
t-110 280t-284 116t-306 -91q-132 -90 -202 -230q-69 -140 -69 -305t110 -279t283 -115zM799 -25q-285 -1 -464 179t-179 450q0 217 107 413q107 197 305 319t438 122q288 0 466 -179t179 -450q0 -217 -108 -413t-306 -318q-198 -123 -438 -123z" />
    <glyph glyph-name="Odieresis" unicode="&#xd6;" horiz-adv-x="1712" 
d="M811 207q174 0 306 91t202 230t70 303t-110 280t-284 116t-306 -91q-132 -90 -202 -230q-69 -140 -69 -305t110 -279t283 -115zM799 -25q-285 -1 -464 179t-179 450q0 217 107 413q107 197 305 319t438 122q288 0 466 -179t179 -450q0 -217 -108 -413t-306 -318
q-198 -123 -438 -123zM1373 1829q56 0 90 -36t22 -85l-8 -33q-13 -49 -55 -82t-99 -33t-91 36t-22 85l9 33q14 51 56 83t98 32zM966 1829q56 0 90 -36t21 -85l-8 -33q-12 -49 -54 -82t-99 -33t-92 36q-34 36 -21 85l8 33q14 51 56 83q43 32 99 32z" />
    <glyph glyph-name="multiply" unicode="&#xd7;" horiz-adv-x="1298" 
d="M1067 378q0 -42 -35 -77t-88 -35t-90 51l-176 252l-344 -276q-35 -25 -75 -25t-72 32q-31 32 -31 79t45 86l350 270l-184 248q-29 39 -29 82t35 77t89 34t89 -52l178 -252l344 277q31 25 73 25t73 -32t31 -79t-46 -86l-350 -270l184 -248q29 -39 29 -81z" />
    <glyph glyph-name="Oslash" unicode="&#xd8;" horiz-adv-x="1712" 
d="M41 55q0 35 51 82l154 129q-90 145 -90 350t107 401q107 197 305 319t455 122t439 -172l156 131q45 37 84 37t58 -20q20 -20 20 -56t-51 -82l-164 -139q86 -147 86 -346t-108 -395q-109 -196 -307 -318q-198 -123 -451 -123t-435 166l-147 -123q-43 -38 -82 -38
q-80 2 -80 75zM816 197q169 0 303 94t206 235t72 289q0 94 -35 176l-823 -690q108 -104 277 -104zM410 640q0 -126 36 -212l828 696q-111 111 -282 111t-305 -93q-133 -93 -205 -235q-72 -141 -72 -267z" />
    <glyph glyph-name="Ugrave" unicode="&#xd9;" horiz-adv-x="1560" 
d="M770 1790q0 26 47 52q47 28 109 28t82 -64l65 -174q8 -18 8 -37q0 -53 -77 -53q-36 0 -58 11t-47 44l-104 132q-25 35 -25 61zM176 451q0 102 33 227l170 643q16 57 54 90t94 33t86 -43t10 -119l-172 -639q-20 -94 -21 -158q0 -123 78 -199t232 -75q154 -1 260 107
q108 108 157 300l189 703q14 57 53 90t95 33t86 -43t9 -119l-190 -702q-162 -601 -692 -603q-250 0 -391 127q-140 127 -140 347z" />
    <glyph glyph-name="Uacute" unicode="&#xda;" horiz-adv-x="1560" 
d="M176 451q0 102 33 227l170 643q16 57 54 90t94 33t86 -43t10 -119l-172 -639q-20 -94 -21 -158q0 -123 78 -199t232 -75q154 -1 260 107q108 108 157 300l189 703q14 57 53 90t95 33t86 -43t9 -119l-190 -702q-162 -601 -692 -603q-250 0 -391 127q-140 127 -140 347z
M1054 1542q-72 0 -71 47q0 25 21 45l163 181q57 57 103 57t96 -28q49 -28 49 -57t-39 -58l-174 -132q-76 -55 -148 -55z" />
    <glyph glyph-name="Ucircumflex" unicode="&#xdb;" horiz-adv-x="1560" 
d="M176 451q0 102 33 227l170 643q16 57 54 90t94 33t86 -43t10 -119l-172 -639q-20 -94 -21 -158q0 -123 78 -199t232 -75q154 -1 260 107q108 108 157 300l189 703q14 57 53 90t95 33t86 -43t9 -119l-190 -702q-162 -601 -692 -603q-250 0 -391 127q-140 127 -140 347z
M1354 1583q0 -41 -54 -41t-86 9q-31 9 -63 46l-80 93l-131 -93q-80 -55 -158 -55q-53 0 -53 39q0 23 29 55l176 166q59 59 131 60h68q81 0 114 -66l84 -160q23 -37 23 -53z" />
    <glyph glyph-name="Udieresis" unicode="&#xdc;" horiz-adv-x="1560" 
d="M176 451q0 102 33 227l170 643q16 57 54 90t94 33t86 -43t10 -119l-172 -639q-20 -94 -21 -158q0 -123 78 -199t232 -75q154 -1 260 107q108 108 157 300l189 703q14 57 53 90t95 33t86 -43t9 -119l-190 -702q-162 -601 -692 -603q-250 0 -391 127q-140 127 -140 347z
M1295 1808q56 0 90 -36t22 -84l-8 -33q-12 -49 -54 -82q-41 -33 -99 -33t-92 36t-21 85l8 33q14 50 56 82t98 32zM888 1808q56 0 90 -36t21 -84l-8 -33q-12 -49 -54 -82t-99 -33t-92 36q-34 36 -21 85l8 33q15 50 57 82t98 32z" />
    <glyph glyph-name="Yacute" unicode="&#xdd;" horiz-adv-x="1341" 
d="M932 1542q-72 0 -72 47q0 25 21 45l163 181q58 57 104 57t95 -28t49 -57t-39 -58l-174 -132q-75 -55 -147 -55zM1389 1446q119 0 117 -108q0 -52 -46 -97l-678 -706l-112 -422q-16 -57 -54 -90t-95 -33q-56 0 -86 43t-9 119l111 409l-283 670q-25 57 -25 101t38 78t98 34
q88 0 122 -98l222 -566l553 594q68 72 127 72z" />
    <glyph glyph-name="Thorn" unicode="&#xde;" horiz-adv-x="1398" 
d="M817 1210q293 0 434 -141q106 -111 107 -283q0 -256 -195 -400t-506 -144h-299l-36 -129q-33 -123 -140 -123q-63 0 -93 44t-9 118l313 1169q16 57 54 90q39 33 95 33t86 -43t9 -119l-19 -72h199zM670 463q198 0 312 80t114 223q0 84 -56 139q-74 76 -233 76h-252
l-137 -518h252z" />
    <glyph glyph-name="germandbls" unicode="&#xdf;" horiz-adv-x="1286" 
d="M1016 1116q0 84 -55 133t-151 49t-172 -76q-75 -76 -112 -214l-237 -895q-33 -123 -137 -123q-63 0 -93 43q-29 43 -8 117l236 878q61 223 178 340q145 141 351 141t322 -104t115 -266q0 -295 -352 -404q248 -86 248 -299q0 -188 -159 -315t-404 -127q-109 0 -109 102
q0 39 24 66t64 28q182 12 264 81t82 171q0 129 -178 187q-84 31 -84 105t86 100q281 82 281 282z" />
    <glyph glyph-name="agrave" unicode="&#xe0;" horiz-adv-x="1193" 
d="M648 1536q62 0 81 -63l66 -175q8 -18 8 -36q0 -53 -78 -54q-37 0 -58 12t-46 44l-105 131q-24 35 -24 61t47 52q47 28 109 28zM852 719q0 164 -240 164q-104 -1 -168 -19t-98 -18q-32 0 -60 28t-28 72q0 74 78 98q158 52 348 52t300 -87t110 -247q0 -59 -23 -158
l-131 -491q-35 -123 -139 -123q-117 0 -105 114l11 39q-150 -166 -357 -166q-141 0 -233 82t-92 213q0 182 132 286t341 106q158 0 336 -54q18 57 18 109zM272 314q0 -158 194 -158q96 0 190 74t126 184l15 49q-127 41 -253 41t-199 -55t-73 -135z" />
    <glyph glyph-name="aacute" unicode="&#xe1;" horiz-adv-x="1193" 
d="M702 1255q0 25 21 45l164 181q57 57 103 57t95 -28q94 -54 11 -115l-174 -131q-76 -56 -148 -56t-72 47zM852 719q0 164 -240 164q-104 -1 -168 -19t-98 -18q-32 0 -60 28t-28 72q0 74 78 98q158 52 348 52t300 -87t110 -247q0 -59 -23 -158l-131 -491
q-35 -123 -139 -123q-117 0 -105 114l11 39q-150 -166 -357 -166q-141 0 -233 82t-92 213q0 182 132 286t341 106q158 0 336 -54q18 57 18 109zM272 314q0 -158 194 -158q96 0 190 74t126 184l15 49q-127 41 -253 41t-199 -55t-73 -135z" />
    <glyph glyph-name="acircumflex" unicode="&#xe2;" horiz-adv-x="1193" 
d="M1021 1208q-54 0 -85 10t-64 46l-79 92l-131 -92q-80 -55 -158 -56q-53 0 -53 39q0 23 28 56l176 165q59 59 131 60h68q82 0 115 -66l84 -159q23 -37 22 -54q0 -41 -54 -41zM852 719q0 164 -240 164q-104 -1 -168 -19t-98 -18q-32 0 -60 28t-28 72q0 74 78 98
q158 52 348 52t300 -87t110 -247q0 -59 -23 -158l-131 -491q-35 -123 -139 -123q-117 0 -105 114l11 39q-150 -166 -357 -166q-141 0 -233 82t-92 213q0 182 132 286t341 106q158 0 336 -54q18 57 18 109zM272 314q0 -158 194 -158q96 0 190 74t126 184l15 49
q-127 41 -253 41t-199 -55t-73 -135z" />
    <glyph glyph-name="atilde" unicode="&#xe3;" horiz-adv-x="1193" 
d="M475 1210q-37 0 -59 20t-21 48q0 29 17 55q106 190 252 191q76 0 153 -64q74 -55 107 -55q55 0 108 76q35 41 72 41t57 -18q21 -18 21 -49q0 -30 -15 -56q-109 -188 -252 -189q-76 0 -155 64q-74 55 -105 55q-53 0 -110 -76q-33 -43 -70 -43zM852 719q0 164 -240 164
q-104 -1 -168 -19t-98 -18q-32 0 -60 28t-28 72q0 74 78 98q158 52 348 52t300 -87t110 -247q0 -59 -23 -158l-131 -491q-35 -123 -139 -123q-117 0 -105 114l11 39q-150 -166 -357 -166q-141 0 -233 82t-92 213q0 182 132 286t341 106q158 0 336 -54q18 57 18 109zM272 314
q0 -158 194 -158q96 0 190 74t126 184l15 49q-127 41 -253 41t-199 -55t-73 -135z" />
    <glyph glyph-name="adieresis" unicode="&#xe4;" horiz-adv-x="1193" 
d="M1015 1475q56 0 90 -36t21 -85l-8 -33q-12 -49 -54 -82t-99 -33t-92 36q-34 36 -21 85l8 33q14 51 56 83q43 32 99 32zM607 1475q56 0 90 -36t22 -85l-8 -33q-13 -49 -55 -82t-99 -33t-91 36t-22 85l9 33q14 51 56 83t98 32zM852 719q0 164 -240 164q-104 -1 -168 -19
t-98 -18q-32 0 -60 28t-28 72q0 74 78 98q158 52 348 52t300 -87t110 -247q0 -59 -23 -158l-131 -491q-35 -123 -139 -123q-117 0 -105 114l11 39q-150 -166 -357 -166q-141 0 -233 82t-92 213q0 182 132 286t341 106q158 0 336 -54q18 57 18 109zM272 314q0 -158 194 -158
q96 0 190 74t126 184l15 49q-127 41 -253 41t-199 -55t-73 -135z" />
    <glyph glyph-name="aring" unicode="&#xe5;" horiz-adv-x="1193" 
d="M828 1571q-54 0 -94 -46q-42 -45 -42 -99t29 -82t83 -29q54 0 95 46t41 99t-29 82t-83 29zM799 1217q-102 0 -161 56q-58 56 -58 151t75 170q77 75 179 75t160 -56q58 -57 58 -151t-75 -170q-76 -76 -178 -75zM852 719q0 164 -240 164q-104 -1 -168 -19t-98 -18
q-32 0 -60 28t-28 72q0 74 78 98q158 52 348 52t300 -87t110 -247q0 -59 -23 -158l-131 -491q-35 -123 -139 -123q-117 0 -105 114l11 39q-150 -166 -357 -166q-141 0 -233 82t-92 213q0 182 132 286t341 106q158 0 336 -54q18 57 18 109zM272 314q0 -158 194 -158
q96 0 190 74t126 184l15 49q-127 41 -253 41t-199 -55t-73 -135z" />
    <glyph glyph-name="ae" unicode="&#xe6;" horiz-adv-x="1941" 
d="M1636 694q0 90 -53 148t-169 59q-116 0 -211 -79t-138 -204h563q8 37 8 76zM852 719q0 164 -240 164q-111 0 -213 -31q-20 -6 -53 -6q-32 0 -60 28t-28 72q0 74 78 98q154 51 326 52q291 0 370 -189q176 197 416 197q196 0 310 -119t114 -301q0 -66 -12 -119
q-25 -111 -123 -110h-695q-2 -6 -2 -21q6 -120 78 -188t196 -68t224 66q87 53 144 -2q28 -27 28 -75t-49 -79q-154 -113 -365 -113q-301 0 -417 226q-213 -223 -500 -224q-164 0 -259 80t-95 219q0 180 134 284q135 104 323 104t352 -54q18 57 18 109zM558 504
q-138 0 -212 -55t-74 -135q0 -158 195 -158q92 0 189 46t178 128q-18 83 -9 121q-129 53 -267 53z" />
    <glyph glyph-name="ccedilla" unicode="&#xe7;" horiz-adv-x="1148" 
d="M215 -242q0 30 29 62l172 180q-147 47 -237 167q-89 120 -89 290q0 264 190 455q190 192 438 192q247 0 386 -158q43 -47 43 -96t-34 -83t-86 -34t-83 39q-86 117 -234 117t-260 -129t-112 -301q0 -123 74 -197t188 -74t221 82q41 29 80 29t68 -31q29 -30 29 -76t-40 -81
q-160 -133 -370 -136l-172 -249q-35 -54 -80 -54t-83 28t-38 58z" />
    <glyph glyph-name="egrave" unicode="&#xe8;" horiz-adv-x="1228" 
d="M522 1456q0 26 47 52q47 28 109 28t82 -63l65 -175q8 -18 9 -36q0 -53 -78 -54q-36 0 -58 12t-47 44l-104 131q-25 35 -25 61zM700 901q-114 0 -210 -79t-138 -204h561q10 31 11 76q0 90 -54 148q-56 58 -170 59zM602 178q125 0 221 66q91 51 146 -2q27 -27 27 -75
t-48 -79q-154 -113 -372 -113t-353 128q-133 128 -133 346q0 161 79 311t228 247t341 97t306 -119t115 -301q0 -49 -12 -119q-25 -111 -123 -110h-696v-21q4 -120 76 -188t198 -68z" />
    <glyph glyph-name="eacute" unicode="&#xe9;" horiz-adv-x="1228" 
d="M735 1255q0 25 21 45l164 181q57 57 103 57t95 -28t49 -57t-39 -58l-174 -131q-76 -56 -148 -56t-71 47zM700 901q-114 0 -210 -79t-138 -204h561q10 31 11 76q0 90 -54 148q-56 58 -170 59zM602 178q125 0 221 66q91 51 146 -2q27 -27 27 -75t-48 -79
q-154 -113 -372 -113t-353 128q-133 128 -133 346q0 161 79 311t228 247t341 97t306 -119t115 -301q0 -49 -12 -119q-25 -111 -123 -110h-696v-21q4 -120 76 -188t198 -68z" />
    <glyph glyph-name="ecircumflex" unicode="&#xea;" horiz-adv-x="1228" 
d="M1108 1249q0 -41 -54 -41t-85 10t-64 46l-80 92l-131 -92q-80 -56 -145 -56t-66 39q0 23 29 56l176 165q59 59 131 60h68q81 0 114 -66l84 -159q23 -37 23 -54zM700 901q-114 0 -210 -79t-138 -204h561q10 31 11 76q0 90 -54 148q-56 58 -170 59zM602 178q125 0 221 66
q91 51 146 -2q27 -27 27 -75t-48 -79q-154 -113 -372 -113t-353 128q-133 128 -133 346q0 161 79 311t228 247t341 97t306 -119t115 -301q0 -49 -12 -119q-25 -111 -123 -110h-696v-21q4 -120 76 -188t198 -68z" />
    <glyph glyph-name="edieresis" unicode="&#xeb;" horiz-adv-x="1228" 
d="M1050 1475q56 0 90 -36t21 -85l-8 -33q-12 -49 -54 -82q-41 -33 -99 -33t-92 36t-21 85l8 33q14 51 56 83q43 32 99 32zM642 1475q56 0 90 -36t22 -85l-9 -33q-12 -49 -54 -82t-99 -33t-91 36t-22 85l8 33q15 51 57 83t98 32zM700 901q-114 0 -210 -79t-138 -204h561
q10 31 11 76q0 90 -54 148q-56 58 -170 59zM602 178q125 0 221 66q91 51 146 -2q27 -27 27 -75t-48 -79q-154 -113 -372 -113t-353 128q-133 128 -133 346q0 161 79 311t228 247t341 97t306 -119t115 -301q0 -49 -12 -119q-25 -111 -123 -110h-696v-21q4 -120 76 -188
t198 -68z" />
    <glyph glyph-name="igrave" unicode="&#xec;" horiz-adv-x="585" 
d="M211 1456q0 26 47 52q46 28 108 28t83 -63l65 -175q8 -18 8 -36q0 -53 -78 -54q-37 0 -58 12t-46 44l-104 131q-25 35 -25 61zM164 -10q-63 0 -92 43t-9 117l222 819q33 125 137 125q64 0 92 -44t8 -118l-219 -819q-35 -123 -139 -123z" />
    <glyph glyph-name="iacute" unicode="&#xed;" horiz-adv-x="585" 
d="M164 -10q-63 0 -92 43t-9 117l222 819q33 125 137 125q64 0 92 -44t8 -118l-219 -819q-35 -123 -139 -123zM424 1255q0 25 20 45l164 181q58 57 104 57t95 -28t49 -57t-39 -58l-174 -131q-75 -56 -147 -56t-72 47z" />
    <glyph glyph-name="icircumflex" unicode="&#xee;" horiz-adv-x="585" 
d="M164 -10q-63 0 -92 43t-9 117l222 819q33 125 137 125q64 0 92 -44t8 -118l-219 -819q-35 -123 -139 -123zM797 1249q-1 -41 -55 -41t-85 10t-63 46l-80 92l-131 -92q-80 -55 -158 -56q-53 0 -53 39q0 23 29 56l176 165q59 59 131 60h67q82 0 115 -66l84 -159
q23 -37 23 -54z" />
    <glyph glyph-name="idieresis" unicode="&#xef;" horiz-adv-x="585" 
d="M164 -10q-63 0 -92 43t-9 117l222 819q33 125 137 125q64 0 92 -44t8 -118l-219 -819q-35 -123 -139 -123zM740 1475q56 0 90 -36t22 -85l-8 -33q-12 -49 -54 -82t-100 -33t-91 36q-34 36 -21 85l8 33q14 51 56 83t98 32zM333 1475q56 0 90 -36t21 -85l-8 -33
q-12 -49 -54 -82t-99 -33t-92 36q-34 36 -21 85l8 33q14 51 56 83q43 32 99 32z" />
    <glyph glyph-name="eth" unicode="&#xf0;" horiz-adv-x="1292" 
d="M946 533q0 129 -76 205t-210 75q-134 0 -236 -105q-100 -106 -100 -240t74 -207t210 -73q134 0 236 108t102 237zM721 1414q0 34 33 66t80 31q78 0 104 -63l10 -29l201 78q20 8 46 8t45 -19t20 -50q0 -53 -62 -76l-192 -74l100 -237q92 -211 92 -410q0 -279 -170 -471
t-450 -193q-219 0 -357 131q-137 131 -137 348q0 218 163 380t384 161q180 0 311 -116l-145 325l-236 -90q-20 -8 -45 -8t-45 19t-20 51q0 50 61 75l225 86q-16 43 -16 77z" />
    <glyph glyph-name="ntilde" unicode="&#xf1;" horiz-adv-x="1263" 
d="M520 1210q-36 0 -58 20t-22 48q0 29 17 55q106 190 252 191q76 0 153 -64q74 -55 107 -55q55 0 108 76q35 41 72 41t57 -18t20 -49q0 -30 -14 -56q-109 -188 -251 -189q-76 0 -156 64q-74 55 -105 55q-53 0 -110 -76q-33 -43 -70 -43zM412 1094q53 0 83 -31t27 -76
l-12 -43q164 160 322 160t246 -87t89 -237q0 -63 -32 -190l-127 -477q-33 -123 -138 -123q-63 0 -92 43t-8 117l121 450q16 55 16 123t-49 112t-145 44t-177 -75t-114 -196l-133 -495q-33 -123 -137 -123q-63 0 -93 43q-29 43 -8 117l219 819q33 125 142 125z" />
    <glyph glyph-name="ograve" unicode="&#xf2;" horiz-adv-x="1323" 
d="M567 1456q0 26 47 52q47 28 109 28t82 -63l65 -175q8 -18 9 -36q0 -53 -78 -54q-37 0 -59 12t-46 44l-104 131q-25 35 -25 61zM628 190q138 0 248 130t110 274q0 143 -77 219q-76 76 -200 76q-154 0 -263 -130q-108 -129 -108 -273t76 -220t214 -76zM614 -25
q-242 1 -382 139t-140 372t186 426t430 192t384 -139t139 -373q1 -234 -187 -426t-430 -191z" />
    <glyph glyph-name="oacute" unicode="&#xf3;" horiz-adv-x="1323" 
d="M628 190q138 0 248 130t110 274q0 143 -77 219q-76 76 -200 76q-154 0 -263 -130q-108 -129 -108 -273t76 -220t214 -76zM614 -25q-242 1 -382 139t-140 372t186 426t430 192t384 -139t139 -373q1 -234 -187 -426t-430 -191zM780 1255q0 25 21 45l164 181q57 57 103 57
t95 -28q94 -54 11 -115l-175 -131q-75 -56 -147 -56t-72 47z" />
    <glyph glyph-name="ocircumflex" unicode="&#xf4;" horiz-adv-x="1323" 
d="M628 190q138 0 248 130t110 274q0 143 -77 219q-76 76 -200 76q-154 0 -263 -130q-108 -129 -108 -273t76 -220t214 -76zM614 -25q-242 1 -382 139t-140 372t186 426t430 192t384 -139t139 -373q1 -234 -187 -426t-430 -191zM1153 1249q0 -41 -54 -41t-85 10t-64 46
l-80 92l-131 -92q-80 -56 -145 -56t-66 39q0 23 29 56l176 165q59 59 131 60h68q82 0 115 -66l83 -159q23 -37 23 -54z" />
    <glyph glyph-name="otilde" unicode="&#xf5;" horiz-adv-x="1323" 
d="M555 1210q-37 0 -59 20t-21 48q0 29 17 55q106 190 251 191q76 0 154 -64q74 -55 107 -55q55 0 108 76q35 41 72 41t57 -18q21 -18 21 -49q0 -30 -15 -56q-109 -188 -252 -189q-76 0 -155 64q-74 55 -105 55q-53 0 -110 -76q-33 -43 -70 -43zM628 190q138 0 248 130
t110 274q0 143 -77 219q-76 76 -200 76q-154 0 -263 -130q-108 -129 -108 -273t76 -220t214 -76zM614 -25q-242 1 -382 139t-140 372t186 426t430 192t384 -139t139 -373q1 -234 -187 -426t-430 -191z" />
    <glyph glyph-name="odieresis" unicode="&#xf6;" horiz-adv-x="1323" 
d="M628 190q138 0 248 130t110 274q0 143 -77 219q-76 76 -200 76q-154 0 -263 -130q-108 -129 -108 -273t76 -220t214 -76zM614 -25q-242 1 -382 139t-140 372t186 426t430 192t384 -139t139 -373q1 -234 -187 -426t-430 -191zM1095 1475q56 0 90 -36t21 -85l-8 -33
q-12 -49 -54 -82t-99 -33t-92 36q-34 36 -21 85l8 33q14 51 56 83q43 32 99 32zM687 1475q56 0 90 -36t22 -85l-8 -33q-13 -49 -55 -82t-99 -33t-91 36t-22 85l8 33q14 51 56 83t99 32z" />
    <glyph glyph-name="divide" unicode="&#xf7;" horiz-adv-x="1298" 
d="M600 436q58 0 94 -36t30 -100t-53 -105q-45 -41 -105 -41t-95 34t-31 86l2 21q6 59 52 100t106 41zM827 1288q59 0 95 -35t30 -86l-2 -20q-6 -59 -52 -100t-106 -41t-94 34q-35 34 -30 86l2 21q6 59 52 100t105 41zM1110 614h-829q-43 0 -75 32t-32 75t32 75t75 31h829
q45 1 76 -31t31 -75t-31 -75t-76 -32z" />
    <glyph glyph-name="oslash" unicode="&#xf8;" horiz-adv-x="1323" 
d="M92 469q0 251 186 443t445 192q193 0 319 -103l76 68q43 35 79 35q35 0 57 -20t22 -53q0 -34 -41 -75l-80 -67q76 -123 76 -281q1 -250 -187 -441t-444 -192q-195 1 -330 107l-75 -68q-39 -34 -77 -34t-60 19t-22 53t42 75l86 72q-72 111 -72 270zM330 477q0 -57 16 -110
l533 479q-63 51 -170 51q-155 0 -267 -132t-112 -288zM614 182q154 0 267 131t112 289q0 61 -20 119l-537 -485q69 -54 178 -54z" />
    <glyph glyph-name="ugrave" unicode="&#xf9;" horiz-adv-x="1265" 
d="M694 1536q62 0 82 -63l66 -175q8 -18 8 -36q0 -53 -78 -54q-37 0 -58 12t-46 44l-105 131q-25 35 -25 61t48 52q46 28 108 28zM854 -10q-51 0 -82 30t-29 74l13 45q-162 -162 -321 -162q-159 -1 -248 87t-89 237q0 63 33 191l127 477q33 125 137 125q63 0 92 -44t9 -118
l-121 -451q-15 -57 -15 -123t50 -111q50 -44 144 -44q95 0 176 75t114 195l133 496q33 125 137 125q63 0 92 -44t8 -118l-217 -819q-34 -123 -143 -123z" />
    <glyph glyph-name="uacute" unicode="&#xfa;" horiz-adv-x="1265" 
d="M854 -10q-51 0 -82 30t-29 74l13 45q-162 -162 -321 -162q-159 -1 -248 87t-89 237q0 63 33 191l127 477q33 125 137 125q63 0 92 -44t9 -118l-121 -451q-15 -57 -15 -123t50 -111q50 -44 144 -44q95 0 176 75t114 195l133 496q33 125 137 125q63 0 92 -44t8 -118
l-217 -819q-34 -123 -143 -123zM1037 1538q45 0 95 -28t50 -57t-39 -58l-174 -131q-76 -56 -148 -56t-71 47q0 25 20 45l164 181q57 57 103 57z" />
    <glyph glyph-name="ucircumflex" unicode="&#xfb;" horiz-adv-x="1265" 
d="M854 -10q-51 0 -82 30t-29 74l13 45q-162 -162 -321 -162q-159 -1 -248 87t-89 237q0 63 33 191l127 477q33 125 137 125q63 0 92 -44t9 -118l-121 -451q-15 -57 -15 -123t50 -111q50 -44 144 -44q95 0 176 75t114 195l133 496q33 125 137 125q63 0 92 -44t8 -118
l-217 -819q-34 -123 -143 -123zM1066 1208q-54 0 -85 10t-63 46l-80 92l-131 -92q-80 -55 -158 -56q-53 0 -53 39q0 23 28 56l176 165q59 59 131 60h68q82 0 115 -66l84 -159q23 -37 22 -54q0 -41 -54 -41z" />
    <glyph glyph-name="udieresis" unicode="&#xfc;" horiz-adv-x="1265" 
d="M854 -10q-51 0 -82 30t-29 74l13 45q-162 -162 -321 -162q-159 -1 -248 87t-89 237q0 63 33 191l127 477q33 125 137 125q63 0 92 -44t9 -118l-121 -451q-15 -57 -15 -123t50 -111q50 -44 144 -44q95 0 176 75t114 195l133 496q33 125 137 125q63 0 92 -44t8 -118
l-217 -819q-34 -123 -143 -123zM1062 1475q56 0 90 -36t22 -85l-9 -33q-12 -49 -54 -82t-99 -33t-91 36t-22 85l8 33q15 51 57 83t98 32zM654 1475q56 0 90 -36t22 -85l-8 -33q-12 -49 -54 -82t-100 -33q-57 0 -91 36t-21 85l8 33q14 51 56 83t98 32z" />
    <glyph glyph-name="yacute" unicode="&#xfd;" horiz-adv-x="1198" 
d="M692 1255q0 25 21 45l164 181q57 57 103 57t95 -28t49 -57t-39 -58l-174 -131q-75 -56 -147 -56t-72 47zM170 -123q88 0 174 121l-151 915q-5 37 -5 75t35 72t87 34t86 -30t38 -81l96 -709l451 738q47 82 129 82q49 0 79 -27t30 -66t-33 -92l-606 -940
q-109 -167 -210 -235t-214 -68t-174 31q-76 33 -76 108q0 45 29 77t57 32t69 -12q63 -25 109 -25z" />
    <glyph glyph-name="thorn" unicode="&#xfe;" 
d="M520 1505q63 0 91 -43t7 -116l-110 -408q166 166 348 166t301 -126t119 -337q0 -281 -181 -472t-425 -191t-361 215l-108 -408q-33 -123 -138 -123q-63 0 -92 43q-28 43 -8 117l418 1560q33 123 139 123zM645 190q153 0 263 127t110 308q0 123 -70 195t-186 71
q-152 0 -270 -129t-119 -299q1 -119 77 -196t195 -77z" />
    <glyph glyph-name="ydieresis" unicode="&#xff;" horiz-adv-x="1198" 
d="M1007 1475q56 0 90 -36t21 -85l-8 -33q-12 -49 -54 -82t-100 -33t-91 36q-34 36 -21 85l8 33q14 51 56 83q43 32 99 32zM599 1475q56 0 90 -36t22 -85l-9 -33q-12 -49 -54 -82t-99 -33t-91 36t-22 85l8 33q14 51 56 83t99 32zM170 -123q88 0 174 121l-151 915
q-5 37 -5 75t35 72t87 34t86 -30t38 -81l96 -709l451 738q47 82 129 82q49 0 79 -27t30 -66t-33 -92l-606 -940q-109 -167 -210 -235t-214 -68t-174 31q-76 33 -76 108q0 45 29 77t57 32t69 -12q63 -25 109 -25z" />
    <glyph glyph-name="Amacron" unicode="&#x100;" horiz-adv-x="1552" 
d="M1374 1595h-543q-37 0 -63 27t-27 64q0 38 27 64t63 26h543q39 0 66 -27q26 -27 26 -63t-26 -64q-26 -27 -66 -27zM1268 -10q-53 0 -86 28t-39 74l-43 254h-699l-194 -276q-57 -80 -129 -80q-47 0 -76 28t-29 72q0 45 31 82l848 1180q70 102 178 102h6q117 0 140 -121
l210 -1157q8 -46 8 -80t-36 -70q-37 -36 -90 -36zM557 569h506l-98 580z" />
    <glyph glyph-name="amacron" unicode="&#x101;" horiz-adv-x="1193" 
d="M1055 1241h-543q-38 0 -64 27q-26 28 -26 64t27 63t63 26h543q39 -1 65 -27t27 -63q-1 -37 -27 -63t-65 -27zM852 719q0 164 -240 164q-104 -1 -168 -19t-98 -18q-32 0 -60 28t-28 72q0 74 78 98q158 52 348 52t300 -87t110 -247q0 -59 -23 -158l-131 -491
q-35 -123 -139 -123q-117 0 -105 114l11 39q-150 -166 -357 -166q-141 0 -233 82t-92 213q0 182 132 286t341 106q158 0 336 -54q18 57 18 109zM272 314q0 -158 194 -158q96 0 190 74t126 184l15 49q-127 41 -253 41t-199 -55t-73 -135z" />
    <glyph glyph-name="Abreve" unicode="&#x102;" horiz-adv-x="1552" 
d="M1087 1569q-120 -1 -203 67t-83 160q0 39 26 64q27 24 74 24t72 -49q37 -92 141 -92t178 92q43 49 84 49t63 -20q21 -20 21 -52t-22 -61q-55 -80 -143 -131t-208 -51zM1268 -10q-53 0 -86 28t-39 74l-43 254h-699l-194 -276q-57 -80 -129 -80q-47 0 -76 28t-29 72
q0 45 31 82l848 1180q70 102 178 102h6q117 0 140 -121l210 -1157q8 -46 8 -80t-36 -70q-37 -36 -90 -36zM557 569h506l-98 580z" />
    <glyph glyph-name="abreve" unicode="&#x103;" horiz-adv-x="1193" 
d="M771 1214q-120 0 -203 68t-83 160q0 40 27 64q28 24 74 24t71 -49q37 -92 141 -92t179 92q43 49 84 49t63 -20t21 -53q0 -32 -23 -60q-55 -79 -143 -131t-208 -52zM852 719q0 164 -240 164q-104 -1 -168 -19t-98 -18q-32 0 -60 28t-28 72q0 74 78 98q158 52 348 52
t300 -87t110 -247q0 -59 -23 -158l-131 -491q-35 -123 -139 -123q-117 0 -105 114l11 39q-150 -166 -357 -166q-141 0 -233 82t-92 213q0 182 132 286t341 106q158 0 336 -54q18 57 18 109zM272 314q0 -158 194 -158q96 0 190 74t126 184l15 49q-127 41 -253 41t-199 -55
t-73 -135z" />
    <glyph glyph-name="Aogonek" unicode="&#x104;" horiz-adv-x="1552" 
d="M557 569h506l-98 580zM1240 -342q-108 0 -164 38t-56 99q0 98 162 223q-33 27 -39 68l-43 260h-699l-194 -276q-57 -80 -129 -80q-47 0 -76 28t-29 72q0 45 31 82l848 1180q70 102 178 102h6q117 0 140 -121l210 -1157q8 -45 9 -65q0 -51 -47 -97q-127 -111 -127 -168
q0 -24 17 -36t58 -23q57 -18 56 -61q-4 -68 -112 -68z" />
    <glyph glyph-name="aogonek" unicode="&#x105;" horiz-adv-x="1193" 
d="M272 314q0 -158 194 -158q96 0 190 74t126 184l15 49q-127 41 -253 41t-199 -55t-73 -135zM852 719q0 164 -240 164q-104 -1 -168 -19t-98 -18q-32 0 -60 28t-28 72q0 74 78 98q158 52 348 52t300 -87t110 -247q0 -59 -23 -158l-131 -491q-16 -56 -61 -101
q-125 -111 -125 -166q0 -24 17 -36t58 -23q57 -18 56 -61q-3 -68 -111 -68t-165 38q-56 38 -56 99q0 100 164 225q0 4 2 9q-20 16 -12 114q-150 -166 -357 -166q-141 0 -233 82t-92 213q0 182 132 286t341 106q158 0 336 -54q18 57 18 109z" />
    <glyph glyph-name="Cacute" unicode="&#x106;" horiz-adv-x="1495" 
d="M804 -25q-286 0 -468 166t-182 445q0 227 115 428q116 200 317 322t434 122q299 0 479 -201q51 -47 51 -103t-37 -94t-94 -38t-88 39q-65 82 -143 124t-197 42q-229 1 -402 -189t-173 -442q0 -176 108 -282q109 -105 283 -105q100 0 170 28t156 93q102 65 167 -4
q33 -34 33 -88t-45 -91q-198 -172 -484 -172zM1098 1563q-72 0 -72 47q0 25 21 45l163 180q58 57 104 57t95 -28t49 -56q0 -30 -39 -59l-174 -131q-75 -55 -147 -55z" />
    <glyph glyph-name="cacute" unicode="&#x107;" horiz-adv-x="1148" 
d="M90 457q0 264 190 455q190 192 438 192q247 0 386 -158q43 -47 43 -96t-34 -83t-86 -34t-83 39q-86 117 -234 117t-260 -129t-112 -301q0 -123 74 -197t188 -74t221 82q41 29 80 29t68 -31q29 -30 29 -76t-40 -81q-164 -135 -374 -135t-352 132t-142 349zM723 1255
q0 25 20 45l164 181q57 57 103 57t96 -28q49 -28 49 -57t-39 -58l-174 -131q-76 -56 -148 -56t-71 47z" />
    <glyph glyph-name="Cdotaccent" unicode="&#x10a;" horiz-adv-x="1495" 
d="M1134 1829q56 0 91 -36t22 -85l-8 -33q-12 -49 -55 -82q-42 -33 -100 -33t-93 36t-22 85l8 33q14 51 57 83q44 32 100 32zM804 -25q-286 0 -468 166t-182 445q0 227 115 428q116 200 317 322t434 122q299 0 479 -201q51 -47 51 -103t-37 -94t-94 -38t-88 39
q-65 82 -143 124t-197 42q-229 1 -402 -189t-173 -442q0 -176 108 -282q109 -105 283 -105q100 0 170 28t156 93q102 65 167 -4q33 -34 33 -88t-45 -91q-198 -172 -484 -172z" />
    <glyph glyph-name="cdotaccent" unicode="&#x10b;" horiz-adv-x="1148" 
d="M835 1475q56 0 91 -36t22 -85l-8 -33q-12 -49 -55 -82t-101 -33t-92 36q-35 36 -22 85l8 33q14 51 57 83q44 32 100 32zM90 457q0 264 190 455q190 192 438 192q247 0 386 -158q43 -47 43 -96t-34 -83t-86 -34t-83 39q-86 117 -234 117t-260 -129t-112 -301
q0 -123 74 -197t188 -74t221 82q41 29 80 29t68 -31q29 -30 29 -76t-40 -81q-164 -135 -374 -135t-352 132t-142 349z" />
    <glyph glyph-name="Ccaron" unicode="&#x10c;" horiz-adv-x="1495" 
d="M804 -25q-286 0 -468 166t-182 445q0 227 115 428q116 200 317 322t434 122q299 0 479 -201q51 -47 51 -103t-37 -94t-94 -38t-88 39q-65 82 -143 124t-197 42q-229 1 -402 -189t-173 -442q0 -176 108 -282q109 -105 283 -105q100 0 170 28t156 93q102 65 167 -4
q33 -34 33 -88t-45 -91q-198 -172 -484 -172zM836 1843q0 41 54 41t85 -10t63 -47l78 -90l133 92q83 55 147 55t64 -39q0 -27 -28 -55l-177 -166q-59 -59 -131 -59h-67q-82 -1 -117 65l-84 160q-20 41 -20 53z" />
    <glyph glyph-name="ccaron" unicode="&#x10d;" horiz-adv-x="1148" 
d="M90 457q0 264 190 455q190 192 438 192q247 0 386 -158q43 -47 43 -96t-34 -83t-86 -34t-83 39q-86 117 -234 117t-260 -129t-112 -301q0 -123 74 -197t188 -74t221 82q41 29 80 29t68 -31q29 -30 29 -76t-40 -81q-164 -135 -374 -135t-352 132t-142 349zM535 1489
q0 41 54 41t85 -10t63 -47l78 -91l133 93q82 55 146 55t65 -39q0 -27 -29 -55l-176 -166q-59 -59 -131 -60h-67q-82 0 -117 66l-84 160q-20 41 -20 53z" />
    <glyph glyph-name="Dcaron" unicode="&#x10e;" horiz-adv-x="1587" 
d="M532 1434h281q375 0 561 -187q156 -156 156 -418q0 -330 -232 -561q-268 -268 -745 -268h-369q-63 0 -93 44t-9 116l307 1147q16 59 54 93t89 34zM584 229q330 0 524 195q160 160 160 395q0 164 -101 264q-121 121 -372 121h-179l-264 -975h232zM748 1823q0 41 54 41
t85 -10t63 -48l78 -90l133 92q83 56 147 56t64 -39q0 -27 -29 -56l-176 -165q-59 -59 -131 -60h-67q-82 0 -117 66l-84 159q-20 41 -20 54z" />
    <glyph glyph-name="dcaron" unicode="&#x10f;" 
d="M954 -10q-53 0 -82 30t-26 78l12 45q-166 -166 -348 -166t-301 126t-119 337q0 281 181 472q181 192 425 192t361 -215l131 493q33 123 139 123q63 0 91 -43t7 -116l-327 -1233q-33 -123 -144 -123zM606 190q152 0 271 129t118 299q0 119 -76 196q-77 77 -198 77
q-153 0 -263 -127t-110 -307q0 -123 70 -195t188 -72zM1686 1499h40q49 0 50 -41q0 -23 -23 -63l-141 -252q-31 -49 -74 -49t-43 39q0 14 6 26l76 256q23 84 109 84z" />
    <glyph glyph-name="Dcroat" unicode="&#x110;" horiz-adv-x="1634" 
d="M631 229q330 0 524 195q160 160 160 395q0 164 -101 264q-121 121 -372 121h-178l-101 -370h213q47 0 80 -33t33 -80t-33 -80t-80 -33h-274l-103 -379h232zM580 1434h280q375 0 561 -187q156 -156 156 -418q0 -330 -231 -561q-268 -268 -746 -268h-369q-63 0 -93 44
t-9 116l119 448h-33q-45 0 -78 33t-33 80t32 80t79 33h94l127 473q16 59 54 93q39 34 90 34z" />
    <glyph glyph-name="dcroat" unicode="&#x111;" 
d="M606 190q152 0 271 129t118 299q0 119 -76 196q-77 77 -198 77q-153 0 -263 -127t-110 -307q0 -123 70 -195t188 -72zM954 -10q-53 0 -82 30t-26 78l12 45q-166 -166 -348 -166t-301 126t-119 337q0 281 181 472q181 192 425 192t361 -215l90 344h-252q-31 -1 -53 21
t-21 52q0 30 22 52t52 22h291l2 2q33 123 139 123q55 0 84 -34t21 -91h61q31 0 53 -22t21 -52q0 -30 -22 -52t-52 -21h-98l-297 -1120q-33 -123 -144 -123z" />
    <glyph glyph-name="Emacron" unicode="&#x112;" horiz-adv-x="1351" 
d="M1278 1575h-543q-37 0 -63 27q-26 28 -27 64q0 36 27 63t63 26h543q40 -1 66 -27t26 -63t-26 -63t-66 -27zM1030 0h-846q-63 0 -93 44t-9 116l307 1147q16 59 54 93t89 34h811q45 0 79 -33t34 -80t-33 -80t-80 -33h-729l-100 -374h576q46 0 80 -33t34 -79t-34 -79
t-80 -33h-635l-105 -385h680q47 -1 80 -33t33 -79t-33 -80t-80 -33z" />
    <glyph glyph-name="emacron" unicode="&#x113;" horiz-adv-x="1228" 
d="M1090 1241h-543q-37 0 -64 27q-27 28 -27 64t27 63t64 26h543q40 -1 66 -27t26 -63t-26 -63t-66 -27zM700 901q-114 0 -210 -79t-138 -204h561q10 31 11 76q0 90 -54 148q-56 58 -170 59zM602 178q125 0 221 66q91 51 146 -2q27 -27 27 -75t-48 -79q-154 -113 -372 -113
t-353 128q-133 128 -133 346q0 161 79 311t228 247t341 97t306 -119t115 -301q0 -49 -12 -119q-25 -111 -123 -110h-696v-21q4 -120 76 -188t198 -68z" />
    <glyph glyph-name="Ebreve" unicode="&#x114;" horiz-adv-x="1351" 
d="M993 1548q-120 0 -203 68t-83 160q1 40 27 64t73 24t72 -49q37 -93 141 -93t178 93q43 49 84 49t63 -20q21 -20 21 -53q0 -32 -23 -60q-55 -79 -143 -131t-207 -52zM1030 0h-846q-63 0 -93 44t-9 116l307 1147q16 59 54 93t89 34h811q45 0 79 -33t34 -80t-33 -80t-80 -33
h-729l-100 -374h576q46 0 80 -33t34 -79t-34 -79t-80 -33h-635l-105 -385h680q47 -1 80 -33t33 -79t-33 -80t-80 -33z" />
    <glyph glyph-name="ebreve" unicode="&#x115;" horiz-adv-x="1228" 
d="M700 901q-114 0 -210 -79t-138 -204h561q10 31 11 76q0 90 -54 148q-56 58 -170 59zM804 1214q-120 0 -203 68t-83 160q0 40 27 64t73 24t72 -49q38 -92 142 -92t178 92q43 49 84 49q40 0 62 -20t22 -53q0 -32 -23 -60q-55 -79 -143 -131t-208 -52zM602 178q125 0 221 66
q91 51 146 -2q27 -27 27 -75t-48 -79q-154 -113 -372 -113t-353 128q-133 128 -133 346q0 161 79 311t228 247t341 97t306 -119t115 -301q0 -49 -12 -119q-25 -111 -123 -110h-696v-21q4 -120 76 -188t198 -68z" />
    <glyph glyph-name="Edotaccent" unicode="&#x116;" horiz-adv-x="1351" 
d="M1033 1808q56 0 91 -36t23 -84l-8 -33q-11 -49 -55 -82t-101 -33t-92 36t-23 85l9 33q14 50 57 82t99 32zM1030 0h-846q-63 0 -93 44t-9 116l307 1147q16 59 54 93t89 34h811q45 0 79 -33t34 -80t-33 -80t-80 -33h-729l-100 -374h576q46 0 80 -33t34 -79t-34 -79t-80 -33
h-635l-105 -385h680q47 -1 80 -33t33 -79t-33 -80t-80 -33z" />
    <glyph glyph-name="edotaccent" unicode="&#x117;" horiz-adv-x="1228" 
d="M845 1475q56 0 91 -36t22 -85l-8 -33q-12 -49 -55 -82t-100 -33t-93 36q-35 36 -22 85l8 33q14 51 57 83q44 32 100 32zM700 901q-114 0 -210 -79t-138 -204h561q10 31 11 76q0 90 -54 148q-56 58 -170 59zM602 178q125 0 221 66q91 51 146 -2q27 -27 27 -75t-48 -79
q-154 -113 -372 -113t-353 128q-133 128 -133 346q0 161 79 311t228 247t341 97t306 -119t115 -301q0 -49 -12 -119q-25 -111 -123 -110h-696v-21q4 -120 76 -188t198 -68z" />
    <glyph glyph-name="Eogonek" unicode="&#x118;" horiz-adv-x="1351" 
d="M952 -150q0 -28 18 -40t58 -23q57 -18 55 -61q-4 -68 -111 -68t-164 38q-56 38 -56 99q0 92 143 205h-711q-63 0 -93 44t-9 116l307 1147q16 59 54 93t89 34h811q45 0 79 -33t34 -80t-33 -80t-80 -33h-729l-100 -374h576q46 0 80 -33t34 -79t-34 -79t-80 -33h-635
l-105 -385h678q47 -1 81 -33q33 -32 33 -82t-63 -106q-75 -59 -101 -92t-26 -62z" />
    <glyph glyph-name="eogonek" unicode="&#x119;" horiz-adv-x="1228" 
d="M700 901q-114 0 -210 -79t-138 -204h561q10 31 11 76q0 90 -54 148q-56 58 -170 59zM752 -342q-108 0 -165 38q-56 38 -57 99q0 88 111 185q-37 -4 -59 -5q-225 0 -359 128q-133 128 -133 346q0 161 79 311t228 247t341 97t306 -119t115 -301q0 -49 -12 -119
q-25 -111 -123 -110h-696v-21q4 -120 76 -188t198 -68q125 0 221 66q91 51 146 -2q27 -27 27 -74t-48 -80q-92 -74 -112 -90q-104 -92 -105 -152q0 -43 74 -59q57 -18 55 -61q0 -68 -108 -68z" />
    <glyph glyph-name="Ecaron" unicode="&#x11a;" horiz-adv-x="1351" 
d="M1030 0h-846q-63 0 -93 44t-9 116l307 1147q16 59 54 93t89 34h811q45 0 79 -33t34 -80t-33 -80t-80 -33h-729l-100 -374h576q46 0 80 -33t34 -79t-34 -79t-80 -33h-635l-105 -385h680q47 -1 80 -33t33 -79t-33 -80t-80 -33zM790 1864q54 0 84 -10t64 -48l78 -90l133 92
q83 56 147 56t64 -39q0 -27 -29 -56l-176 -165q-59 -59 -131 -60h-68q-81 0 -116 66l-84 159q-20 41 -21 54q1 41 55 41z" />
    <glyph glyph-name="ecaron" unicode="&#x11b;" horiz-adv-x="1228" 
d="M547 1489q0 41 54 41t85 -10t64 -47l77 -91l134 93q82 55 146 55t64 -39q0 -27 -28 -55l-176 -166q-59 -59 -131 -60h-68q-82 0 -117 66l-84 160q-20 41 -20 53zM700 901q-114 0 -210 -79t-138 -204h561q10 31 11 76q0 90 -54 148q-56 58 -170 59zM602 178q125 0 221 66
q91 51 146 -2q27 -27 27 -75t-48 -79q-154 -113 -372 -113t-353 128q-133 128 -133 346q0 161 79 311t228 247t341 97t306 -119t115 -301q0 -49 -12 -119q-25 -111 -123 -110h-696v-21q4 -120 76 -188t198 -68z" />
    <glyph glyph-name="Gbreve" unicode="&#x11e;" horiz-adv-x="1601" 
d="M1113 1569q-120 -1 -203 67t-83 160q0 39 27 64q27 24 74 24t71 -49q37 -92 141 -92t179 92q43 49 84 49t63 -20t21 -52q0 -32 -23 -61q-55 -80 -143 -131t-208 -51zM1040 1458q330 0 498 -176q49 -45 49 -99t-36 -90t-86 -36t-83 28q-152 141 -360 142
q-254 -1 -430 -189t-176 -438q0 -184 114 -289q115 -104 290 -104t308 74l89 301h-252q-47 0 -79 32t-32 77q0 46 32 78t79 32h407q63 0 93 -44t10 -116l-123 -430q-25 -92 -105 -135q-182 -100 -445 -100t-457 162q-194 163 -193 454q0 221 113 420q114 198 321 322
t454 124z" />
    <glyph glyph-name="gbreve" unicode="&#x11f;" horiz-adv-x="1363" 
d="M876 1214q-120 0 -203 68t-83 160q0 40 26 64t74 24q47 0 72 -49q37 -92 141 -92t178 92q43 49 84 49t63 -20t22 -53q0 -32 -23 -60q-55 -79 -143 -131t-208 -52zM1212 1094q62 0 92 -44t9 -118l-199 -744q-39 -145 -80 -226q-149 -294 -530 -294q-258 0 -471 117
q-68 35 -68 88t30 85t71 32t79 -21q162 -100 337 -100t272 96q72 72 112 219l19 66q-177 -164 -359 -164t-305 105t-123 286q0 263 182 445t416 182q140 0 222 -60t135 -157l22 82q33 125 137 125zM606 289q150 -1 264 109t113 253q0 104 -72 173q-73 69 -205 69t-241 -110
t-109 -263q0 -111 70 -171t180 -60z" />
    <glyph glyph-name="Gdotaccent" unicode="&#x120;" horiz-adv-x="1601" 
d="M1154 1829q56 0 91 -36t23 -85l-8 -33q-12 -49 -56 -82t-100 -33q-57 0 -92 36t-23 85l8 33q13 51 57 83t100 32zM1040 1458q330 0 498 -176q49 -45 49 -99t-36 -90t-86 -36t-83 28q-152 141 -360 142q-254 -1 -430 -189t-176 -438q0 -184 114 -289q115 -104 290 -104
t308 74l89 301h-252q-47 0 -79 32t-32 77q0 46 32 78t79 32h407q63 0 93 -44t10 -116l-123 -430q-25 -92 -105 -135q-182 -100 -445 -100t-457 162q-194 163 -193 454q0 221 113 420q114 198 321 322t454 124z" />
    <glyph glyph-name="gdotaccent" unicode="&#x121;" horiz-adv-x="1363" 
d="M916 1475q56 0 92 -36t22 -85l-8 -33q-12 -49 -55 -82t-101 -33t-92 36q-35 36 -22 85l8 33q14 51 57 83t99 32zM1212 1094q62 0 92 -44t9 -118l-199 -744q-39 -145 -80 -226q-149 -294 -530 -294q-258 0 -471 117q-68 35 -68 88t30 85t71 32t79 -21q162 -100 337 -100
t272 96q72 72 112 219l19 66q-177 -164 -359 -164t-305 105t-123 286q0 263 182 445t416 182q140 0 222 -60t135 -157l22 82q33 125 137 125zM606 289q150 -1 264 109t113 253q0 104 -72 173q-73 69 -205 69t-241 -110t-109 -263q0 -111 70 -171t180 -60z" />
    <glyph glyph-name="Gcommaaccent" unicode="&#x122;" horiz-adv-x="1601" 
d="M1040 1458q330 0 498 -176q49 -45 49 -99t-36 -90t-86 -36t-83 28q-152 141 -360 142q-254 -1 -430 -189t-176 -438q0 -184 114 -289q115 -104 290 -104t308 74l89 301h-252q-47 0 -79 32t-32 77q0 46 32 78t79 32h407q63 0 93 -44t10 -116l-123 -430q-25 -92 -105 -135
q-182 -100 -445 -100t-457 162q-194 163 -193 454q0 221 113 420q114 198 321 322t454 124zM666 -125q58 0 91 -32q32 -32 31 -89q0 -121 -94 -211q-102 -106 -235 -106q-47 0 -47 37t55 49q137 29 160 131q-96 20 -97 92q0 51 39 90t97 39z" />
    <glyph glyph-name="gcommaaccent" unicode="&#x123;" horiz-adv-x="1363" 
d="M1212 1094q62 0 92 -44t9 -118l-199 -744q-39 -145 -80 -226q-149 -294 -530 -294q-258 0 -471 117q-68 35 -68 88t30 85t71 32t79 -21q162 -100 337 -100t272 96q72 72 112 219l19 66q-177 -164 -359 -164t-305 105t-123 286q0 263 182 445t416 182q140 0 222 -60
t135 -157l22 82q33 125 137 125zM606 289q150 -1 264 109t113 253q0 104 -72 173q-73 69 -205 69t-241 -110t-109 -263q0 -111 70 -171t180 -60zM874 1204q-58 0 -91 32q-32 32 -31 89q0 121 94 211q102 106 235 106q47 0 47 -36t-55 -50q-137 -29 -160 -131q96 -20 97 -92
q0 -51 -39 -90t-97 -39z" />
    <glyph glyph-name="Hbar" unicode="&#x126;" horiz-adv-x="1548" 
d="M518 838h674l55 209h-674zM1591 1225q37 0 65 -27q28 -26 28 -62t-28 -63t-65 -26h-92l-250 -934q-16 -57 -54 -90t-94 -33t-86 43t-9 119l122 452h-673l-133 -491q-33 -123 -140 -123q-63 0 -93 44t-9 118l239 895h-40q-39 1 -66 27t-27 62t27 62t66 27h88l26 96
q16 57 54 90q39 33 95 33t86 -43t9 -119l-16 -57h673l27 96q33 123 139 123q63 0 93 -44t10 -118l-17 -57h45z" />
    <glyph glyph-name="hbar" unicode="&#x127;" horiz-adv-x="1265" 
d="M870 -10q-63 0 -92 43t-8 117l121 450q16 55 16 123t-49 112t-145 44t-177 -75t-114 -196l-133 -495q-33 -123 -137 -123q-63 0 -93 43q-29 43 -8 117l287 1083h-57q-31 -1 -53 21t-22 52t22 52t53 22h96l2 2q35 123 139 123q55 0 84 -34t23 -91h256q29 0 51 -22t22 -52
t-22 -52t-51 -21h-293l-78 -289q164 160 322 160t246 -87t89 -237q1 -63 -32 -190l-127 -477q-33 -123 -138 -123z" />
    <glyph glyph-name="Imacron" unicode="&#x12a;" horiz-adv-x="649" 
d="M899 1575h-543q-38 0 -64 27q-26 28 -26 64t27 63t63 26h543q39 -1 66 -27t27 -63t-28 -63q-26 -26 -65 -27zM197 -10q-63 0 -94 44q-30 44 -9 118l314 1169q16 57 54 90t94 33t86 -43t9 -119l-315 -1169q-33 -123 -139 -123z" />
    <glyph glyph-name="imacron" unicode="&#x12b;" horiz-adv-x="585" 
d="M778 1241h-542q-37 0 -64 27q-27 28 -27 64t27 63t64 26h542q39 -1 66 -27q26 -26 26 -63t-26 -63t-66 -27zM164 -10q-63 0 -92 43t-9 117l222 819q33 125 137 125q64 0 92 -44t8 -118l-219 -819q-35 -123 -139 -123z" />
    <glyph glyph-name="Ibreve" unicode="&#x12c;" horiz-adv-x="649" 
d="M612 1548q-120 0 -203 68t-83 160q0 40 26 64t74 24q47 0 72 -49q37 -93 141 -93t178 93q43 49 84 49t63 -20t22 -53q0 -32 -23 -60q-55 -79 -143 -131t-208 -52zM197 -10q-63 0 -94 44q-30 44 -9 118l314 1169q16 57 54 90t94 33t86 -43t9 -119l-315 -1169
q-33 -123 -139 -123z" />
    <glyph glyph-name="ibreve" unicode="&#x12d;" horiz-adv-x="585" 
d="M491 1214q-120 0 -203 68t-83 160q1 40 27 64t73 24t72 -49q37 -92 141 -92t178 92q43 49 84 49t63 -20q21 -20 21 -53q0 -32 -22 -60q-55 -79 -143 -131t-208 -52zM164 -10q-63 0 -92 43t-9 117l222 819q33 125 137 125q64 0 92 -44t8 -118l-219 -819
q-35 -123 -139 -123z" />
    <glyph glyph-name="Iogonek" unicode="&#x12e;" horiz-adv-x="649" 
d="M170 -342q-108 0 -165 38q-56 38 -56 99q0 98 166 228q-45 41 -21 129l314 1169q16 57 54 90t94 33t86 -43t9 -119l-315 -1169q-14 -53 -62 -101q-125 -111 -124 -166q0 -43 73 -59q57 -18 58 -61q-3 -68 -111 -68z" />
    <glyph glyph-name="iogonek" unicode="&#x12f;" horiz-adv-x="585" 
d="M491 1237q-60 0 -97 34q-36 34 -23 83l6 24q12 53 56 84q45 31 105 31t96 -34t25 -83l-6 -24q-12 -51 -57 -83t-105 -32zM117 -154q0 -24 17 -36t59 -23q57 -18 55 -61q-4 -68 -112 -68t-164 38t-56 99q0 98 166 228q-25 31 -25 67t6 60l222 819q33 125 137 125
q64 0 92 -44t8 -118l-219 -819q-16 -55 -61 -101q-125 -111 -125 -166z" />
    <glyph glyph-name="Idotaccent" unicode="&#x130;" horiz-adv-x="649" 
d="M656 1808q56 0 92 -35q35 -36 22 -85l-8 -33q-12 -49 -55 -82t-101 -33t-92 36q-35 36 -22 85l8 33q14 50 57 82t99 32zM197 -10q-63 0 -94 44q-30 44 -9 118l314 1169q16 57 54 90t94 33t86 -43t9 -119l-315 -1169q-33 -123 -139 -123z" />
    <glyph glyph-name="dotlessi" unicode="&#x131;" horiz-adv-x="585" 
d="M164 -10q-63 0 -92 43t-9 117l222 819q33 125 137 125q64 0 92 -44t8 -118l-219 -819q-35 -123 -139 -123z" />
    <glyph glyph-name="Kcommaaccent" unicode="&#x136;" horiz-adv-x="1480" 
d="M182 -10q-63 0 -93 44t-9 118l313 1169q16 57 54 90q39 33 95 33t86 -43t9 -119l-154 -571l830 686q55 47 106 47t82 -32t31 -85t-45 -90l-533 -432l295 -619q51 -109 -17 -164q-38 -32 -87 -32q-88 0 -129 88l-268 586l-355 -283l-71 -268q-33 -123 -140 -123zM453 -238
q0 50 39 90t97 40t90 -32t32 -89q0 -121 -95 -211q-102 -106 -235 -107q-47 0 -47 37t55 49q137 29 160 131q-96 20 -96 92z" />
    <glyph glyph-name="kcommaaccent" unicode="&#x137;" horiz-adv-x="1191" 
d="M1090 1094q42 0 71 -29t29 -78t-47 -80l-373 -284l199 -437q25 -55 25 -96t-40 -71q-39 -30 -90 -29q-90 0 -127 88l-182 391l-215 -164l-51 -192q-33 -123 -137 -123q-63 0 -93 43q-29 43 -8 117l332 1232q33 123 137 123q63 -1 92 -43t9 -116l-199 -742l569 445
q57 45 99 45zM412 -119q58 0 91 -32q32 -32 32 -89q0 -121 -95 -211q-102 -106 -235 -106q-47 0 -47 37t55 49q137 29 160 131q-96 20 -97 92q0 51 39 90t97 39z" />
    <glyph glyph-name="Lacute" unicode="&#x139;" horiz-adv-x="1265" 
d="M973 0h-789q-63 0 -93 44t-9 116l311 1161q16 57 54 90q39 33 95 33t86 -43t9 -119l-283 -1053h619q47 1 81 -33t34 -82t-34 -81t-81 -33zM634 1542q-72 0 -71 47q0 25 21 45l164 181q57 57 103 57t95 -28t49 -57t-39 -58l-174 -132q-76 -55 -148 -55z" />
    <glyph glyph-name="lacute" unicode="&#x13a;" horiz-adv-x="585" 
d="M164 -10q-63 0 -92 43t-9 117l332 1232q33 123 140 123q63 -1 91 -43t7 -116l-330 -1233q-35 -123 -139 -123zM598 1577q-72 0 -72 47q0 25 21 45l164 180q57 57 103 57t95 -27q94 -54 11 -116l-175 -131q-75 -55 -147 -55z" />
    <glyph glyph-name="Lcommaaccent" unicode="&#x13b;" horiz-adv-x="1265" 
d="M973 0h-789q-63 0 -93 44t-9 116l311 1161q16 57 54 90q39 33 95 33t86 -43t9 -119l-283 -1053h619q47 1 81 -33t34 -82t-34 -81t-81 -33zM332 -248q0 51 39 90t97 39t90 -32t32 -89q0 -121 -94 -211q-102 -106 -236 -106q-47 0 -47 37t55 49q137 29 160 131
q-96 20 -96 92z" />
    <glyph glyph-name="lcommaaccent" unicode="&#x13c;" horiz-adv-x="585" 
d="M164 -10q-63 0 -92 43t-9 117l332 1232q33 123 140 123q63 -1 91 -43t7 -116l-330 -1233q-35 -123 -139 -123zM-35 -248q0 51 39 90t97 39t90 -32t32 -89q0 -121 -94 -211q-102 -106 -235 -106q-47 0 -48 39q0 35 56 47q136 29 159 131q-96 20 -96 92z" />
    <glyph glyph-name="Lcaron" unicode="&#x13d;" horiz-adv-x="1265" 
d="M973 0h-789q-63 0 -93 44t-9 116l311 1161q16 57 54 90q39 33 95 33t86 -43t9 -119l-283 -1053h619q47 1 81 -33t34 -82t-34 -81t-81 -33zM903 1438h41q49 0 49 -41q0 -23 -22 -64l-142 -252q-31 -49 -73 -49t-43 39q0 15 6 27l76 256q23 84 108 84z" />
    <glyph glyph-name="lcaron" unicode="&#x13e;" horiz-adv-x="585" 
d="M164 -10q-63 0 -92 43t-9 117l332 1232q33 123 140 123q63 -1 91 -43t7 -116l-330 -1233q-35 -123 -139 -123zM881 1499h41q49 0 49 -41q0 -23 -23 -63l-141 -252q-31 -49 -74 -49t-43 39q0 14 6 26l76 256q23 84 109 84z" />
    <glyph glyph-name="Ldot" unicode="&#x13f;" horiz-adv-x="1265" 
d="M973 0h-789q-63 0 -93 44t-9 116l311 1161q16 57 54 90q39 33 95 33t86 -43t9 -119l-283 -1053h619q47 1 81 -33t34 -82t-34 -81t-81 -33zM1062 905q56 0 91 -36t23 -85l-9 -32q-12 -49 -55 -82t-100 -33t-92 36t-23 85l8 33q13 51 57 83t100 31z" />
    <glyph glyph-name="ldot" unicode="&#x140;" horiz-adv-x="751" 
d="M164 -10q-63 0 -92 43t-9 117l332 1232q33 123 140 123q63 -1 91 -43t7 -116l-330 -1233q-35 -123 -139 -123zM748 893q52 0 80 -36t18 -81l-6 -26q-25 -106 -125 -107q-51 0 -81 36t-20 81l7 26q27 107 127 107z" />
    <glyph glyph-name="Lslash" unicode="&#x141;" horiz-adv-x="1341" 
d="M612 1444q55 0 84 -44t9 -118l-109 -403l270 75q80 22 116 -12q36 -35 36 -82q0 -80 -84 -104l-402 -113l-110 -414h627q47 1 79 -33t33 -82q0 -48 -33 -81t-79 -33h-789q-63 0 -93 44t-9 116l108 407h-2q-37 -6 -41 -6q-47 0 -77 28t-29 75q0 79 86 104l127 35l139 518
q14 57 51 90t92 33z" />
    <glyph glyph-name="lslash" unicode="&#x142;" horiz-adv-x="704" 
d="M645 926q35 0 60 -28t24 -73q0 -86 -92 -110l-121 -33l-151 -569q-35 -123 -140 -123q-63 0 -92 43t-8 117l123 456q-48 -8 -55 -8q-43 0 -68 28t-25 72q0 86 93 111l118 33l146 540q33 123 139 123q62 -1 90 -43t8 -116l-114 -431q30 11 65 11z" />
    <glyph glyph-name="Nacute" unicode="&#x143;" horiz-adv-x="1609" 
d="M1526 1444q63 0 92 -43t8 -119l-317 -1173q-31 -117 -133 -117h-5q-98 0 -143 96l-461 954l-250 -929q-33 -123 -137 -123q-63 0 -92 43t-8 119l311 1163q35 127 150 127h12q102 0 149 -105l441 -917l243 901q33 123 140 123zM1096 1542q-72 0 -72 47q0 25 20 45l164 181
q58 57 104 57t95 -28t49 -57t-39 -58l-174 -132q-75 -55 -147 -55z" />
    <glyph glyph-name="nacute" unicode="&#x144;" horiz-adv-x="1263" 
d="M412 1094q53 0 83 -31t27 -76l-12 -43q164 160 322 160t246 -87t89 -237q0 -63 -32 -190l-127 -477q-33 -123 -138 -123q-63 0 -92 43t-8 117l121 450q16 55 16 123t-49 112t-145 44t-177 -75t-114 -196l-133 -495q-33 -123 -137 -123q-63 0 -93 43q-29 43 -8 117
l219 819q33 125 142 125zM1035 1538q46 0 95 -28q94 -54 11 -115l-174 -131q-76 -56 -148 -56t-71 47q0 25 20 45l164 181q57 57 103 57z" />
    <glyph glyph-name="Ncommaaccent" unicode="&#x145;" horiz-adv-x="1609" 
d="M1526 1444q63 0 92 -43t8 -119l-317 -1173q-31 -117 -133 -117h-5q-98 0 -143 96l-461 954l-250 -929q-33 -123 -137 -123q-63 0 -92 43t-8 119l311 1163q35 127 150 127h12q102 0 149 -105l441 -917l243 901q33 123 140 123zM477 -238q0 50 39 90t97 40t90 -32t32 -89
q0 -121 -94 -211q-102 -106 -235 -107q-47 0 -48 39q0 35 56 47q136 29 159 131q-96 20 -96 92z" />
    <glyph glyph-name="ncommaaccent" unicode="&#x146;" horiz-adv-x="1263" 
d="M412 1094q53 0 83 -31t27 -76l-12 -43q164 160 322 160t246 -87t89 -237q0 -63 -32 -190l-127 -477q-33 -123 -138 -123q-63 0 -92 43t-8 117l121 450q16 55 16 123t-49 112t-145 44t-177 -75t-114 -196l-133 -495q-33 -123 -137 -123q-63 0 -93 43q-29 43 -8 117
l219 819q33 125 142 125zM291 -248q0 51 39 90t97 39t90 -32t32 -89q0 -121 -94 -211q-102 -106 -236 -106q-47 0 -47 37t55 49q137 29 160 131q-96 20 -96 92z" />
    <glyph glyph-name="Ncaron" unicode="&#x147;" horiz-adv-x="1609" 
d="M1526 1444q63 0 92 -43t8 -119l-317 -1173q-31 -117 -133 -117h-5q-98 0 -143 96l-461 954l-250 -929q-33 -123 -137 -123q-63 0 -92 43t-8 119l311 1163q35 127 150 127h12q102 0 149 -105l441 -917l243 901q33 123 140 123zM834 1823q0 41 54 41t85 -10t63 -48l78 -90
l133 92q83 56 147 56t64 -39q0 -27 -28 -56l-177 -165q-59 -59 -131 -60h-67q-82 0 -117 66l-84 159q-20 41 -20 54z" />
    <glyph glyph-name="ncaron" unicode="&#x148;" horiz-adv-x="1263" 
d="M412 1094q53 0 83 -31t27 -76l-12 -43q164 160 322 160t246 -87t89 -237q0 -63 -32 -190l-127 -477q-33 -123 -138 -123q-63 0 -92 43t-8 117l121 450q16 55 16 123t-49 112t-145 44t-177 -75t-114 -196l-133 -495q-33 -123 -137 -123q-63 0 -93 43q-29 43 -8 117
l219 819q33 125 142 125zM613 1530q54 0 85 -10t64 -47l78 -91l133 93q82 55 146 55t65 -39q0 -27 -29 -55l-176 -166q-59 -59 -131 -60h-68q-81 0 -116 66l-84 160q-20 41 -21 53q0 41 54 41z" />
    <glyph glyph-name="Omacron" unicode="&#x14c;" horiz-adv-x="1712" 
d="M811 207q174 0 306 91t202 230t70 303t-110 280t-284 116t-306 -91q-132 -90 -202 -230q-69 -140 -69 -305t110 -279t283 -115zM799 -25q-285 -1 -464 179t-179 450q0 217 107 413q107 197 305 319t438 122q288 0 466 -179t179 -450q0 -217 -108 -413t-306 -318
q-198 -123 -438 -123zM1413 1595h-543q-38 0 -64 27t-26 64q0 38 27 64t63 26h543q39 0 66 -27t27 -63t-28 -64q-26 -27 -65 -27z" />
    <glyph glyph-name="omacron" unicode="&#x14d;" horiz-adv-x="1323" 
d="M628 190q138 0 248 130t110 274q0 143 -77 219q-76 76 -200 76q-154 0 -263 -130q-108 -129 -108 -273t76 -220t214 -76zM614 -25q-242 1 -382 139t-140 372t186 426t430 192t384 -139t139 -373q1 -234 -187 -426t-430 -191zM1135 1241h-543q-37 0 -64 27q-26 28 -26 64
t26 63q27 27 64 26h543q39 -1 65 -27t27 -63q-1 -37 -27 -63t-65 -27z" />
    <glyph glyph-name="Obreve" unicode="&#x14e;" horiz-adv-x="1712" 
d="M1128 1569q-120 -1 -203 67t-83 160q0 39 26 64q27 24 74 24t72 -49q37 -92 141 -92t178 92q43 49 84 49t63 -20t22 -52t-23 -61q-55 -80 -143 -131t-208 -51zM811 207q174 0 306 91t202 230t70 303t-110 280t-284 116t-306 -91q-132 -90 -202 -230q-69 -140 -69 -305
t110 -279t283 -115zM799 -25q-285 -1 -464 179t-179 450q0 217 107 413q107 197 305 319t438 122q288 0 466 -179t179 -450q0 -217 -108 -413t-306 -318q-198 -123 -438 -123z" />
    <glyph glyph-name="obreve" unicode="&#x14f;" horiz-adv-x="1323" 
d="M849 1214q-120 0 -203 68t-83 160q0 40 27 64q28 24 74 24t71 -49q37 -92 141 -92t179 92q43 49 84 49t63 -20t21 -53q0 -32 -23 -60q-55 -79 -143 -131t-208 -52zM628 190q138 0 248 130t110 274q0 143 -77 219q-76 76 -200 76q-154 0 -263 -130q-108 -129 -108 -273
t76 -220t214 -76zM614 -25q-242 1 -382 139t-140 372t186 426t430 192t384 -139t139 -373q1 -234 -187 -426t-430 -191z" />
    <glyph glyph-name="Ohungarumlaut" unicode="&#x150;" horiz-adv-x="1712" 
d="M811 207q174 0 306 91t202 230t70 303t-110 280t-284 116t-306 -91q-132 -90 -202 -230q-69 -140 -69 -305t110 -279t283 -115zM799 -25q-285 -1 -464 179t-179 450q0 217 107 413q107 197 305 319t438 122q288 0 466 -179t179 -450q0 -217 -108 -413t-306 -318
q-198 -123 -438 -123zM1487 1892q45 0 81 -26t36 -57q0 -32 -39 -62l-170 -129q-75 -55 -135 -55t-60 45q0 27 21 47l163 180q58 57 103 57zM1111 1892q46 0 82 -26t36 -57q0 -32 -39 -62l-170 -129q-76 -55 -135 -55t-60 45q0 27 23 47l164 180q53 57 99 57z" />
    <glyph glyph-name="ohungarumlaut" unicode="&#x151;" horiz-adv-x="1323" 
d="M628 190q138 0 248 130t110 274q0 143 -77 219q-76 76 -200 76q-154 0 -263 -130q-108 -129 -108 -273t76 -220t214 -76zM614 -25q-242 1 -382 139t-140 372t186 426t430 192t384 -139t139 -373q1 -234 -187 -426t-430 -191zM1206 1538q45 0 81 -26t36 -58t-39 -61
l-170 -129q-76 -56 -135 -56t-59 45q0 27 20 47l164 181q57 57 102 57zM830 1538q46 0 82 -26t36 -58t-39 -61l-170 -129q-76 -56 -135 -56t-59 45q0 27 22 47l164 181q53 57 99 57z" />
    <glyph glyph-name="OE" unicode="&#x152;" horiz-adv-x="2244" 
d="M1911 0h-1043q-373 0 -567 195q-147 147 -147 409q0 334 231 561q268 268 743 269h1098q47 0 80 -33t33 -80t-33 -80t-80 -33h-694l-98 -374h538q47 0 81 -33t34 -79t-34 -79t-81 -33h-600l-104 -385h643q47 -1 81 -33t34 -79t-34 -80t-81 -33zM889 229h129l262 975h-180
q-332 0 -527 -194q-158 -158 -157 -396q0 -166 98 -264q121 -121 375 -121z" />
    <glyph glyph-name="oe" unicode="&#x153;" horiz-adv-x="2115" 
d="M1489 178q123 0 223 66q91 50 147 -2q27 -27 27 -75t-49 -79q-156 -113 -364 -113q-152 -1 -260 61t-156 175q-178 -236 -457 -236q-228 -1 -368 139t-140 355q0 252 186 443t443 192q157 0 267 -69t159 -183q178 252 469 252q204 0 318 -119t114 -301q0 -66 -12 -121
q-25 -109 -121 -108h-696q-2 -6 -2 -21q5 -120 77 -188t195 -68zM612 190q156 0 265 125t109 271t-77 224q-76 79 -198 79q-156 0 -265 -126q-108 -127 -108 -271t76 -223t198 -79zM1812 694q0 90 -54 148t-169 59q-115 0 -210 -79t-138 -204h561q10 31 10 76z" />
    <glyph glyph-name="Racute" unicode="&#x154;" horiz-adv-x="1480" 
d="M1221 992q0 214 -291 212h-314l-129 -481h324q233 0 338 108q72 73 72 161zM182 -10q-63 0 -93 44t-9 118l309 1155q16 59 54 93t89 34h412q297 0 434 -140q104 -104 104 -288t-130 -310q-117 -121 -344 -170l202 -338q29 -41 29 -89t-37 -79t-86 -30q-96 0 -143 82
l-248 428h-299l-104 -387q-33 -123 -140 -123zM964 1542q-72 0 -71 47q0 25 20 45l164 181q57 57 103 57t96 -28q49 -28 49 -57t-39 -58l-174 -132q-76 -55 -148 -55z" />
    <glyph glyph-name="racute" unicode="&#x155;" horiz-adv-x="843" 
d="M150 -10q-63 0 -93 43q-29 43 -8 117l221 819q33 125 138 125q62 0 90 -41t12 -107l-25 -92q68 117 151 179q84 63 152 63q128 1 125 -113q0 -102 -116 -131q-328 -74 -430 -451l-78 -288q-35 -123 -139 -123zM553 1255q0 25 20 45l164 181q57 57 103 57t96 -28
q49 -28 49 -57t-39 -58l-174 -131q-76 -56 -148 -56t-71 47z" />
    <glyph glyph-name="Rcommaaccent" unicode="&#x156;" horiz-adv-x="1480" 
d="M1221 992q0 214 -291 212h-314l-129 -481h324q233 0 338 108q72 73 72 161zM182 -10q-63 0 -93 44t-9 118l309 1155q16 59 54 93t89 34h412q297 0 434 -140q104 -104 104 -288t-130 -310q-117 -121 -344 -170l202 -338q29 -41 29 -89t-37 -79t-86 -30q-96 0 -143 82
l-248 428h-299l-104 -387q-33 -123 -140 -123zM412 -238q0 50 39 90t97 40t90 -32t32 -89q0 -121 -95 -211q-102 -106 -235 -107q-47 0 -47 37t55 49q137 29 160 131q-96 20 -96 92z" />
    <glyph glyph-name="rcommaaccent" unicode="&#x157;" horiz-adv-x="843" 
d="M150 -10q-63 0 -93 43q-29 43 -8 117l221 819q33 125 138 125q62 0 90 -41t12 -107l-25 -92q68 117 151 179q84 63 152 63q128 1 125 -113q0 -102 -116 -131q-328 -74 -430 -451l-78 -288q-35 -123 -139 -123zM-35 -248q0 51 39 90t97 39t90 -32t32 -89q0 -121 -94 -211
q-102 -106 -235 -106q-47 0 -48 39q0 35 56 47q136 29 159 131q-96 20 -96 92z" />
    <glyph glyph-name="Rcaron" unicode="&#x158;" horiz-adv-x="1480" 
d="M1221 992q0 214 -291 212h-314l-129 -481h324q233 0 338 108q72 73 72 161zM182 -10q-63 0 -93 44t-9 118l309 1155q16 59 54 93t89 34h412q297 0 434 -140q104 -104 104 -288t-130 -310q-117 -121 -344 -170l202 -338q29 -41 29 -89t-37 -79t-86 -30q-96 0 -143 82
l-248 428h-299l-104 -387q-33 -123 -140 -123zM705 1823q0 41 54 41t85 -10t63 -48l78 -90l133 92q82 56 146 56t65 -39q0 -27 -29 -56l-176 -165q-59 -59 -131 -60h-67q-82 0 -117 66l-84 159q-20 41 -20 54z" />
    <glyph glyph-name="rcaron" unicode="&#x159;" horiz-adv-x="843" 
d="M150 -10q-63 0 -93 43q-29 43 -8 117l221 819q33 125 138 125q62 0 90 -41t12 -107l-25 -92q68 117 151 179q84 63 152 63q128 1 125 -113q0 -102 -116 -131q-328 -74 -430 -451l-78 -288q-35 -123 -139 -123zM365 1489q0 41 54 41t85 -10t63 -47l78 -91l133 93
q82 55 146 55t65 -39q0 -27 -28 -55l-177 -166q-59 -59 -131 -60h-67q-82 0 -117 66l-84 160q-20 41 -20 53z" />
    <glyph glyph-name="Sacute" unicode="&#x15a;" horiz-adv-x="1304" 
d="M621 203q121 0 199 55t77 132q0 77 -56 123q-56 47 -224 113t-261 152q-92 86 -92 226q0 198 158 324t404 126t434 -141q57 -43 57 -101t-36 -93q-36 -36 -85 -36t-76 27q-145 121 -323 121q-121 0 -194 -56q-73 -57 -73 -129t58 -116t230 -110q171 -68 259 -154t88 -228
q0 -205 -163 -332t-396 -126q-338 0 -532 184q-49 41 -49 99t34 95q35 37 85 37t87 -33q93 -86 181 -122t209 -37zM915 1563q-72 0 -71 47q0 25 20 45l164 180q57 57 103 57t96 -27q49 -27 49 -57t-39 -59l-174 -131q-76 -55 -148 -55z" />
    <glyph glyph-name="sacute" unicode="&#x15b;" horiz-adv-x="1021" 
d="M465 170q74 0 123 35t49 84t-37 80t-159 81q-121 50 -197 114t-76 179q0 156 117 258q117 103 304 103t351 -103q57 -33 57 -86q1 -53 -29 -85q-56 -60 -143 -7q-125 86 -252 86q-77 0 -121 -35t-44 -82q0 -48 38 -78t159 -80q120 -50 196 -117t76 -175q0 -166 -122 -266
t-331 -100t-397 141q-45 33 -45 83t29 81q30 31 69 31t74 -27q143 -115 311 -115zM614 1255q0 25 21 45l164 181q57 57 103 57t95 -28q94 -54 11 -115l-174 -131q-76 -56 -148 -56t-72 47z" />
    <glyph glyph-name="Scedilla" unicode="&#x15e;" horiz-adv-x="1304" 
d="M621 203q121 0 199 55t77 132q0 77 -56 123q-56 47 -224 113t-261 152q-92 86 -92 226q0 198 158 324t404 126t434 -141q57 -43 57 -101t-36 -93q-36 -36 -85 -36t-76 27q-145 121 -323 121q-121 0 -194 -56q-73 -57 -73 -129t58 -116t230 -110q171 -68 259 -154t88 -228
q0 -205 -163 -332t-396 -126h-4l-176 -254q-35 -54 -80 -54t-83 28t-38 58t29 62l166 176q-213 41 -346 168q-49 41 -49 99t34 95q35 37 85 37t87 -33q93 -86 181 -122t209 -37z" />
    <glyph glyph-name="scedilla" unicode="&#x15f;" horiz-adv-x="1021" 
d="M465 170q74 0 123 35t49 84t-37 80t-159 81q-121 50 -197 114t-76 179q0 156 117 258q117 103 304 103t351 -103q57 -33 57 -86q1 -53 -29 -85q-56 -60 -143 -7q-125 86 -252 86q-77 0 -121 -35t-44 -82q0 -48 38 -78t159 -80q120 -50 196 -117t76 -175q0 -162 -118 -262
t-302 -105l-172 -249q-35 -54 -80 -54t-83 28t-38 58t29 62l166 176q-139 35 -252 121q-45 33 -45 83t29 81q30 31 69 31t74 -27q143 -115 311 -115z" />
    <glyph glyph-name="Scaron" unicode="&#x160;" horiz-adv-x="1304" 
d="M621 203q121 0 199 55t77 132q0 77 -56 123q-56 47 -224 113t-261 152q-92 86 -92 226q0 198 158 324t404 126t434 -141q57 -43 57 -101t-36 -93q-36 -36 -85 -36t-76 27q-145 121 -323 121q-121 0 -194 -56q-73 -57 -73 -129t58 -116t230 -110q171 -68 259 -154t88 -228
q0 -205 -163 -332t-396 -126q-338 0 -532 184q-49 41 -49 99t34 95q35 37 85 37t87 -33q93 -86 181 -122t209 -37zM708 1884q54 0 85 -10t63 -47l78 -90l133 92q83 55 147 55t64 -39q0 -27 -29 -55l-176 -166q-59 -59 -131 -59h-68q-81 -1 -116 65l-84 160q-20 41 -21 53
q1 41 55 41z" />
    <glyph glyph-name="scaron" unicode="&#x161;" horiz-adv-x="1021" 
d="M465 170q74 0 123 35t49 84t-37 80t-159 81q-121 50 -197 114t-76 179q0 156 117 258q117 103 304 103t351 -103q57 -33 57 -86q1 -53 -29 -85q-56 -60 -143 -7q-125 86 -252 86q-77 0 -121 -35t-44 -82q0 -48 38 -78t159 -80q120 -50 196 -117t76 -175q0 -166 -122 -266
t-331 -100t-397 141q-45 33 -45 83t29 81q30 31 69 31t74 -27q143 -115 311 -115zM482 1530q54 0 85 -10t64 -47l78 -91l133 93q82 55 146 55t65 -39q0 -27 -29 -55l-176 -166q-59 -59 -131 -60h-68q-82 0 -117 66l-83 160q-20 41 -21 53q0 41 54 41z" />
    <glyph glyph-name="Tcommaaccent" unicode="&#x162;" horiz-adv-x="1267" 
d="M500 -10q-63 0 -93 44t-10 118l283 1048h-318q-48 0 -82 35t-34 82t35 82t81 35h951q47 0 82 -35t35 -82t-35 -82t-82 -35h-381l-293 -1087q-33 -123 -139 -123zM297 -248q0 51 39 90t97 39t90 -32t32 -89q0 -121 -94 -211q-102 -106 -236 -106q-47 0 -47 37t55 49
q137 29 160 131q-96 20 -96 92z" />
    <glyph glyph-name="tcommaaccent" unicode="&#x163;" horiz-adv-x="837" 
d="M639 113q0 -133 -233 -131q-131 0 -203 57t-72 156q0 63 19 124l145 549h-29q-38 6 -66 34t-28 73t31 76t73 30h76l51 185q33 123 138 123q63 0 92 -43t8 -117l-41 -148h166q43 -1 74 -31q30 -30 30 -75t-30 -76t-74 -31h-223l-140 -522q-8 -41 -8 -61q0 -84 105 -84
q22 0 54 4t58 -21t27 -71zM282 -119q58 0 90 -32t31 -89q0 -121 -94 -211q-102 -106 -235 -106q-47 0 -47 37t55 49q137 29 160 131q-96 20 -97 92q0 51 39 90q40 39 98 39z" />
    <glyph glyph-name="Tcaron" unicode="&#x164;" horiz-adv-x="1267" 
d="M500 -10q-63 0 -93 44t-10 118l283 1048h-318q-48 0 -82 35t-34 82t35 82t81 35h951q47 0 82 -35t35 -82t-35 -82t-82 -35h-381l-293 -1087q-33 -123 -139 -123zM712 1864q54 0 85 -10t63 -48l78 -90l133 92q83 56 147 56t64 -39q0 -27 -29 -56l-176 -165
q-59 -59 -131 -60h-67q-82 0 -117 66l-84 159q-20 41 -21 54q1 41 55 41z" />
    <glyph glyph-name="tcaron" unicode="&#x165;" horiz-adv-x="837" 
d="M639 113q0 -133 -233 -131q-131 0 -203 57t-72 156q0 63 19 124l145 549h-29q-38 6 -66 34t-28 73t31 76t73 30h76l51 185q33 123 138 123q63 0 92 -43t8 -117l-41 -148h166q43 -1 74 -31q30 -30 30 -75t-30 -76t-74 -31h-223l-140 -522q-8 -41 -8 -61q0 -84 105 -84
q22 0 54 4t58 -21t27 -71zM969 1602h41q49 0 49 -41q0 -23 -23 -64l-141 -252q-31 -49 -74 -49t-43 39q0 15 6 27l76 256q23 84 109 84z" />
    <glyph glyph-name="Umacron" unicode="&#x16a;" horiz-adv-x="1560" 
d="M1335 1575h-542q-37 0 -64 27q-27 28 -27 64t27 63t64 26h542q39 -1 66 -27t27 -63t-28 -63q-26 -26 -65 -27zM176 451q0 102 33 227l170 643q16 57 54 90t94 33t86 -43t10 -119l-172 -639q-20 -94 -21 -158q0 -123 78 -199t232 -75q154 -1 260 107q108 108 157 300
l189 703q14 57 53 90t95 33t86 -43t9 -119l-190 -702q-162 -601 -692 -603q-250 0 -391 127q-140 127 -140 347z" />
    <glyph glyph-name="umacron" unicode="&#x16b;" horiz-adv-x="1265" 
d="M1102 1241h-543q-37 0 -63 27q-26 28 -27 64q0 36 27 63t63 26h543q40 -1 66 -27t26 -63t-26 -63t-66 -27zM854 -10q-51 0 -82 30t-29 74l13 45q-162 -162 -321 -162q-159 -1 -248 87t-89 237q0 63 33 191l127 477q33 125 137 125q63 0 92 -44t9 -118l-121 -451
q-15 -57 -15 -123t50 -111q50 -44 144 -44q95 0 176 75t114 195l133 496q33 125 137 125q63 0 92 -44t8 -118l-217 -819q-34 -123 -143 -123z" />
    <glyph glyph-name="Ubreve" unicode="&#x16c;" horiz-adv-x="1560" 
d="M1050 1548q-120 0 -203 68t-83 160q0 40 27 64t73 24t72 -49q37 -93 141 -93t178 93q43 49 85 49t62 -20q22 -20 22 -53q0 -32 -23 -60q-55 -79 -143 -131t-208 -52zM176 451q0 102 33 227l170 643q16 57 54 90t94 33t86 -43t10 -119l-172 -639q-20 -94 -21 -158
q0 -123 78 -199t232 -75q154 -1 260 107q108 108 157 300l189 703q14 57 53 90t95 33t86 -43t9 -119l-190 -702q-162 -601 -692 -603q-250 0 -391 127q-140 127 -140 347z" />
    <glyph glyph-name="ubreve" unicode="&#x16d;" horiz-adv-x="1265" 
d="M816 1214q-120 0 -203 68t-83 160q0 40 27 64t74 24t71 -49q38 -92 142 -92t178 92q43 49 84 49q40 0 62 -20t22 -53q0 -32 -23 -60q-55 -79 -143 -131t-208 -52zM854 -10q-51 0 -82 30t-29 74l13 45q-162 -162 -321 -162q-159 -1 -248 87t-89 237q0 63 33 191l127 477
q33 125 137 125q63 0 92 -44t9 -118l-121 -451q-15 -57 -15 -123t50 -111q50 -44 144 -44q95 0 176 75t114 195l133 496q33 125 137 125q63 0 92 -44t8 -118l-217 -819q-34 -123 -143 -123z" />
    <glyph glyph-name="Uring" unicode="&#x16e;" horiz-adv-x="1560" 
d="M176 451q0 102 33 227l170 643q16 57 54 90t94 33t86 -43t10 -119l-172 -639q-20 -94 -21 -158q0 -123 78 -199t232 -75q154 -1 260 107q108 108 157 300l189 703q14 57 53 90t95 33t86 -43t9 -119l-190 -702q-162 -601 -692 -603q-250 0 -391 127q-140 127 -140 347z
M1212 1780q0 112 -111 110q-54 0 -95 -46t-41 -99q1 -53 29 -82t82 -29t95 46t41 100zM1071 1536q-102 0 -161 56q-58 56 -58 152t76 170q76 75 178 75q102 -1 160 -57t59 -150q0 -94 -76 -170t-178 -76z" />
    <glyph glyph-name="uring" unicode="&#x16f;" horiz-adv-x="1265" 
d="M854 -10q-51 0 -82 30t-29 74l13 45q-162 -162 -321 -162q-159 -1 -248 87t-89 237q0 63 33 191l127 477q33 125 137 125q63 0 92 -44t9 -118l-121 -451q-15 -57 -15 -123t50 -111q50 -44 144 -44q95 0 176 75t114 195l133 496q33 125 137 125q63 0 92 -44t8 -118
l-217 -819q-34 -123 -143 -123zM872 1569q-54 0 -96 -46q-42 -45 -41 -99q0 -54 29 -82t83 -29q54 0 95 46t41 99t-29 82q-28 29 -82 29zM842 1214q-102 0 -160 56t-59 152q0 95 75 170q76 75 178 75t161 -56q59 -57 59 -151t-76 -170t-178 -76z" />
    <glyph glyph-name="Uhungarumlaut" unicode="&#x170;" horiz-adv-x="1560" 
d="M1409 1872q45 0 81 -26t36 -58t-39 -62l-170 -129q-76 -55 -135 -55t-60 45q0 27 21 47l164 181q57 57 102 57zM1033 1872q46 0 82 -26t36 -58t-39 -62l-170 -129q-76 -55 -135 -55t-59 45q0 27 22 47l164 181q53 57 99 57zM176 451q0 102 33 227l170 643q16 57 54 90
t94 33t86 -43t10 -119l-172 -639q-20 -94 -21 -158q0 -123 78 -199t232 -75q154 -1 260 107q108 108 157 300l189 703q14 57 53 90t95 33t86 -43t9 -119l-190 -702q-162 -601 -692 -603q-250 0 -391 127q-140 127 -140 347z" />
    <glyph glyph-name="uhungarumlaut" unicode="&#x171;" horiz-adv-x="1265" 
d="M1176 1538q44 0 80 -26t36 -58t-39 -61l-170 -129q-76 -56 -135 -56t-59 45q0 27 20 47l164 181q58 57 103 57zM800 1538q46 0 82 -26t36 -58t-39 -61l-170 -129q-75 -56 -135 -56t-60 45q0 27 23 47l163 181q54 57 100 57zM854 -10q-51 0 -82 30t-29 74l13 45
q-162 -162 -321 -162q-159 -1 -248 87t-89 237q0 63 33 191l127 477q33 125 137 125q63 0 92 -44t9 -118l-121 -451q-15 -57 -15 -123t50 -111q50 -44 144 -44q95 0 176 75t114 195l133 496q33 125 137 125q63 0 92 -44t8 -118l-217 -819q-34 -123 -143 -123z" />
    <glyph glyph-name="Uogonek" unicode="&#x172;" horiz-adv-x="1560" 
d="M635 -154q0 -24 17 -36t59 -23q57 -18 55 -61q-4 -68 -112 -68t-164 38t-56 99q0 90 127 197q-184 33 -285 153q-100 121 -100 306q0 102 33 227l170 643q16 57 54 90t94 33t86 -43t10 -119l-172 -639q-20 -94 -21 -158q0 -123 78 -199t232 -75q154 -1 260 107
q108 108 157 300l189 703q14 57 53 90t95 33t86 -43t9 -119l-190 -702q-74 -274 -223 -424q-172 -172 -455 -179q-86 -80 -86 -131z" />
    <glyph glyph-name="uogonek" unicode="&#x173;" horiz-adv-x="1265" 
d="M811 -154q0 -24 17 -36t59 -23q57 -18 55 -61q-4 -68 -112 -68t-163 38q-56 38 -57 99q0 100 164 225q-31 27 -31 74l13 45q-162 -162 -321 -162q-159 -1 -248 87t-89 237q0 63 33 191l127 477q33 125 137 125q63 0 92 -44t9 -118l-121 -451q-15 -57 -15 -123t50 -111
q50 -44 144 -44q95 0 176 75t114 195l133 496q33 125 137 125q64 0 92 -44t8 -118l-217 -819q-16 -55 -61 -101q-125 -111 -125 -166z" />
    <glyph glyph-name="Wcircumflex" unicode="&#x174;" horiz-adv-x="2248" 
d="M1432 -20h-11q-111 0 -116 112l-68 916l-561 -924q-66 -104 -164 -104h-12q-106 0 -117 112l-104 1176q-5 32 -5 70t37 72t93 34t91 -29q34 -29 35 -78l70 -966l582 979q55 98 143 98h14q106 0 113 -100l64 -977l598 989q51 84 137 84q51 0 84 -28t33 -66t-23 -78
l-746 -1188q-63 -104 -167 -104zM1690 1583q0 -41 -54 -41t-86 9q-31 9 -63 46l-80 93l-131 -93q-80 -55 -158 -55q-53 0 -53 39q0 23 29 55l176 166q59 59 131 60h67q82 0 115 -66l84 -160q23 -37 23 -53z" />
    <glyph glyph-name="wcircumflex" unicode="&#x175;" horiz-adv-x="1746" 
d="M178 987q0 37 39 72t91 35t86 -30t36 -79l31 -641l385 651q55 98 145 99h13q104 0 110 -101l37 -651l399 674q43 78 119 78q47 0 74 -26q53 -51 4 -140l-516 -846q-57 -100 -160 -100h-8q-109 0 -115 114l-39 635l-387 -647q-59 -102 -160 -102h-8q-108 -1 -114 114
l-58 817q-4 37 -4 74zM1360 1249q0 -41 -54 -41t-85 10t-64 46l-80 92l-131 -92q-80 -55 -158 -56q-53 0 -53 39q0 23 29 56l176 165q59 59 131 60h68q81 0 114 -66l84 -159q23 -37 23 -54z" />
    <glyph glyph-name="Ycircumflex" unicode="&#x176;" horiz-adv-x="1341" 
d="M1231 1583q0 -41 -54 -41t-85 9t-64 46l-80 93l-131 -93q-80 -55 -158 -55q-53 0 -53 39q0 23 29 55l176 166q59 59 131 60h68q81 0 114 -66l84 -160q23 -37 23 -53zM1389 1446q119 0 117 -108q0 -52 -46 -97l-678 -706l-112 -422q-16 -57 -54 -90t-95 -33q-56 0 -86 43
t-9 119l111 409l-283 670q-25 57 -25 101t38 78t98 34q88 0 122 -98l222 -566l553 594q68 72 127 72z" />
    <glyph glyph-name="ycircumflex" unicode="&#x177;" horiz-adv-x="1198" 
d="M1063 1249q0 -41 -54 -41t-85 10t-64 46l-80 92l-131 -92q-80 -56 -145 -56t-66 39q0 23 29 56l176 165q59 59 131 60h68q81 0 114 -66l84 -159q23 -37 23 -54zM170 -123q88 0 174 121l-151 915q-5 37 -5 75t35 72t87 34t86 -30t38 -81l96 -709l451 738q47 82 129 82
q49 0 79 -27t30 -66t-33 -92l-606 -940q-109 -167 -210 -235t-214 -68t-174 31q-76 33 -76 108q0 45 29 77t57 32t69 -12q63 -25 109 -25z" />
    <glyph glyph-name="Ydieresis" unicode="&#x178;" horiz-adv-x="1341" 
d="M1172 1808q56 0 91 -35q34 -36 21 -85l-8 -33q-12 -49 -54 -82t-100 -33t-91 36q-34 36 -21 85l8 33q14 50 56 82t98 32zM765 1808q56 0 90 -36t22 -84l-9 -33q-12 -49 -54 -82t-99 -33t-91 36t-22 85l8 33q14 50 56 82t99 32zM1389 1446q119 0 117 -108q0 -52 -46 -97
l-678 -706l-112 -422q-16 -57 -54 -90t-95 -33q-56 0 -86 43t-9 119l111 409l-283 670q-25 57 -25 101t38 78t98 34q88 0 122 -98l222 -566l553 594q68 72 127 72z" />
    <glyph glyph-name="Zacute" unicode="&#x179;" horiz-adv-x="1394" 
d="M444 1210q-48 0 -80 33t-32 79t33 79t79 33h938q51 0 80 -26t29 -71v-4q0 -59 -70 -125l-1052 -985h698q47 0 80 -34q33 -35 33 -79t-33 -77t-80 -33h-975q-49 0 -79 26t-29 70v4q-1 55 69 125l1053 985h-662zM956 1542q-72 0 -71 47q0 25 20 45l164 181q57 57 103 57
t96 -28t49 -57q0 -29 -39 -58l-174 -132q-76 -55 -148 -55z" />
    <glyph glyph-name="zacute" unicode="&#x17a;" horiz-adv-x="1134" 
d="M328 1081h710q51 -1 81 -25t30 -65v-2q0 -59 -59 -110l-758 -676h493q41 0 72 -30t31 -72q0 -41 -31 -71t-72 -30h-739q-51 0 -81 25t-30 67v2q0 57 60 109l758 676h-465q-43 -1 -73 29t-30 72t30 72t73 29zM949 1538q46 0 95 -28q94 -54 11 -115l-174 -131
q-76 -56 -148 -56t-71 47q0 25 20 45l164 181q57 57 103 57z" />
    <glyph glyph-name="Zdotaccent" unicode="&#x17b;" horiz-adv-x="1394" 
d="M992 1808q56 0 91 -36t23 -84l-8 -33q-12 -49 -56 -82t-100 -33q-57 0 -92 36t-23 85l9 33q14 50 57 82t99 32zM444 1210q-48 0 -80 33t-32 79t33 79t79 33h938q51 0 80 -26t29 -71v-4q0 -59 -70 -125l-1052 -985h698q47 0 80 -34q33 -35 33 -79t-33 -77t-80 -33h-975
q-49 0 -79 26t-29 70v4q-1 55 69 125l1053 985h-662z" />
    <glyph glyph-name="zdotaccent" unicode="&#x17c;" horiz-adv-x="1134" 
d="M771 1475q56 0 91 -36t23 -85l-8 -33q-11 -49 -55 -82t-101 -33t-92 36t-23 85l8 33q14 51 58 83t99 32zM328 1081h710q51 -1 81 -25t30 -65v-2q0 -59 -59 -110l-758 -676h493q41 0 72 -30t31 -72q0 -41 -31 -71t-72 -30h-739q-51 0 -81 25t-30 67v2q0 57 60 109l758 676
h-465q-43 -1 -73 29t-30 72t30 72t73 29z" />
    <glyph glyph-name="Zcaron" unicode="&#x17d;" horiz-adv-x="1394" 
d="M444 1210q-48 0 -80 33t-32 79t33 79t79 33h938q51 0 80 -26t29 -71v-4q0 -59 -70 -125l-1052 -985h698q47 0 80 -34q33 -35 33 -79t-33 -77t-80 -33h-975q-49 0 -79 26t-29 70v4q-1 55 69 125l1053 985h-662zM748 1864q54 0 86 -10q31 -10 63 -48l78 -90l133 92
q82 56 146 56t65 -39q0 -27 -29 -56l-176 -165q-59 -59 -131 -60h-68q-81 0 -116 66l-84 159q-20 41 -21 54q0 41 54 41z" />
    <glyph glyph-name="zcaron" unicode="&#x17e;" horiz-adv-x="1134" 
d="M328 1081h710q51 -1 81 -25t30 -65v-2q0 -59 -59 -110l-758 -676h493q41 0 72 -30t31 -72q0 -41 -31 -71t-72 -30h-739q-51 0 -81 25t-30 67v2q0 57 60 109l758 676h-465q-43 -1 -73 29t-30 72t30 72t73 29zM527 1530q54 0 85 -10t64 -47l78 -91l133 93q82 55 146 55
t65 -39q0 -27 -29 -55l-176 -166q-59 -59 -131 -60h-68q-81 0 -116 66l-84 160q-20 41 -21 53q0 41 54 41z" />
    <glyph glyph-name="florin" unicode="&#x192;" horiz-adv-x="1101" 
d="M926 936q44 0 74 -31t30 -74t-31 -73t-73 -29h-240l-203 -461q-128 -291 -372 -291q-61 0 -102 27q-40 27 -40 78t35 76t84 26q115 2 184 158l170 387h-53q-37 0 -67 30q-30 31 -29 73q0 42 31 73t73 31h138l92 205q137 315 422 315q194 0 194 -113q0 -49 -34 -79
t-74 -25l-80 6q-137 0 -217 -174l-60 -135h148z" />
    <glyph glyph-name="Aringacute" unicode="&#x1fa;" horiz-adv-x="1552" 
d="M940 1564q0 -54 29 -82t83 -28t94 47t40 101t-29 82t-83 28t-94 -47t-40 -101zM557 569h506l-98 580zM78 -10q-47 0 -76 28t-29 72q0 45 31 82l889 1237q-68 55 -68 153t76 174t178 74q101 0 161 -57t60 -134t-36 -137t-99 -91l221 -1215q8 -46 8 -80t-36 -70
q-37 -36 -90 -36t-86 28t-39 74l-43 254h-699l-194 -276q-57 -80 -129 -80zM1079 1901q0 25 21 45l164 180q57 57 103 57q46 1 95 -27q95 -53 11 -116l-175 -131q-76 -55 -148 -55t-71 47z" />
    <glyph glyph-name="aringacute" unicode="&#x1fb;" horiz-adv-x="1193" 
d="M828 1571q-54 0 -94 -46q-42 -45 -42 -99t29 -82t83 -29q54 0 95 46t41 99t-29 82t-83 29zM799 1217q-102 0 -161 56q-58 56 -58 151t75 170q77 75 179 75t160 -56q58 -57 58 -151t-75 -170q-76 -76 -178 -75zM809 1774q0 25 20 45l164 180q57 57 103 57t96 -28
q49 -28 49 -56q0 -30 -39 -59l-174 -131q-76 -56 -148 -56t-71 48zM852 719q0 164 -240 164q-104 -1 -168 -19t-98 -18q-32 0 -60 28t-28 72q0 74 78 98q158 52 348 52t300 -87t110 -247q0 -59 -23 -158l-131 -491q-35 -123 -139 -123q-117 0 -105 114l11 39
q-150 -166 -357 -166q-141 0 -233 82t-92 213q0 182 132 286t341 106q158 0 336 -54q18 57 18 109zM272 314q0 -158 194 -158q96 0 190 74t126 184l15 49q-127 41 -253 41t-199 -55t-73 -135z" />
    <glyph glyph-name="AEacute" unicode="&#x1fc;" horiz-adv-x="2172" 
d="M1171 1434h983q45 0 79 -33t34 -80t-33 -80t-80 -33h-694l-100 -374h541q47 0 81 -33t33 -79q0 -46 -34 -79t-80 -33h-601l-104 -385h645q47 -1 80 -33t33 -79t-33 -80t-80 -33h-811q-63 0 -93 44t-9 116l51 186h-524l-232 -283q-63 -73 -117 -73q-106 1 -106 90
q0 51 39 98l960 1159q82 97 172 97zM637 569h401l172 645h-43zM1524 1542q-72 0 -72 47q0 25 21 45l163 181q58 57 104 57t95 -28t49 -57t-39 -58l-174 -132q-75 -55 -147 -55z" />
    <glyph glyph-name="aeacute" unicode="&#x1fd;" horiz-adv-x="1941" 
d="M1636 694q0 90 -53 148t-169 59q-116 0 -211 -79t-138 -204h563q8 37 8 76zM852 719q0 164 -240 164q-111 0 -213 -31q-20 -6 -53 -6q-32 0 -60 28t-28 72q0 74 78 98q154 51 326 52q291 0 370 -189q176 197 416 197q196 0 310 -119t114 -301q0 -66 -12 -119
q-25 -111 -123 -110h-695q-2 -6 -2 -21q6 -120 78 -188t196 -68t224 66q87 53 144 -2q28 -27 28 -75t-49 -79q-154 -113 -365 -113q-301 0 -417 226q-213 -223 -500 -224q-164 0 -259 80t-95 219q0 180 134 284q135 104 323 104t352 -54q18 57 18 109zM558 504
q-138 0 -212 -55t-74 -135q0 -158 195 -158q92 0 189 46t178 128q-18 83 -9 121q-129 53 -267 53zM1340 1538q46 0 96 -28t49 -57q0 -29 -39 -58l-174 -131q-76 -56 -148 -56t-71 47q0 25 20 45l164 181q57 57 103 57z" />
    <glyph glyph-name="Oslashacute" unicode="&#x1fe;" horiz-adv-x="1712" 
d="M1152 1563q-72 0 -71 47q0 25 21 45l164 180q57 57 103 57t95 -28q95 -53 11 -115l-175 -131q-76 -55 -148 -55zM41 55q0 35 51 82l154 129q-90 145 -90 350t107 401q107 197 305 319t455 122t439 -172l156 131q45 37 84 37t58 -20q20 -20 20 -56t-51 -82l-164 -139
q86 -147 86 -346t-108 -395q-109 -196 -307 -318q-198 -123 -451 -123t-435 166l-147 -123q-43 -38 -82 -38q-80 2 -80 75zM816 197q169 0 303 94t206 235t72 289q0 94 -35 176l-823 -690q108 -104 277 -104zM410 640q0 -126 36 -212l828 696q-111 111 -282 111t-305 -93
q-133 -93 -205 -235q-72 -141 -72 -267z" />
    <glyph glyph-name="oslashacute" unicode="&#x1ff;" horiz-adv-x="1323" 
d="M784 1255q0 25 21 45l164 181q57 57 103 57t95 -28q94 -54 11 -115l-174 -131q-76 -56 -148 -56t-72 47zM92 469q0 251 186 443t445 192q193 0 319 -103l76 68q43 35 79 35q35 0 57 -20t22 -53q0 -34 -41 -75l-80 -67q76 -123 76 -281q1 -250 -187 -441t-444 -192
q-195 1 -330 107l-75 -68q-39 -34 -77 -34t-60 19t-22 53t42 75l86 72q-72 111 -72 270zM330 477q0 -57 16 -110l533 479q-63 51 -170 51q-155 0 -267 -132t-112 -288zM614 182q154 0 267 131t112 289q0 61 -20 119l-537 -485q69 -54 178 -54z" />
    <glyph glyph-name="Scommaaccent" unicode="&#x218;" horiz-adv-x="1304" 
d="M621 203q121 0 199 55t77 132q0 77 -56 123q-56 47 -224 113t-261 152q-92 86 -92 226q0 198 158 324t404 126t434 -141q57 -43 57 -101t-36 -93q-36 -36 -85 -36t-76 27q-145 121 -323 121q-121 0 -194 -56q-73 -57 -73 -129t58 -116t230 -110q171 -68 259 -154t88 -228
q0 -205 -163 -332t-396 -126q-338 0 -532 184q-49 41 -49 99t34 95q35 37 85 37t87 -33q93 -86 181 -122t209 -37zM452 -125q58 0 90 -32t31 -89q0 -121 -94 -211q-102 -106 -235 -106q-47 0 -47 37t55 49q137 29 160 131q-96 20 -97 92q0 51 39 90q40 39 98 39z" />
    <glyph glyph-name="scommaaccent" unicode="&#x219;" horiz-adv-x="1021" 
d="M465 170q74 0 123 35t49 84t-37 80t-159 81q-121 50 -197 114t-76 179q0 156 117 258q117 103 304 103t351 -103q57 -33 57 -86q1 -53 -29 -85q-56 -60 -143 -7q-125 86 -252 86q-77 0 -121 -35t-44 -82q0 -48 38 -78t159 -80q120 -50 196 -117t76 -175q0 -166 -122 -266
t-331 -100t-397 141q-45 33 -45 83t29 81q30 31 69 31t74 -27q143 -115 311 -115zM172 -248q0 51 39 90t97 39t90 -32t32 -89q0 -121 -94 -211q-102 -106 -236 -106q-47 0 -47 37t56 49q136 29 159 131q-96 20 -96 92z" />
    <glyph glyph-name="schwa" unicode="&#x259;" horiz-adv-x="1228" 
d="M303 387q0 -90 54 -148q54 -59 169 -59t211 79t137 204h-561q-10 -31 -10 -76zM625 903q-125 0 -222 -65q-45 -25 -81 -25t-64 27q-27 26 -27 74t48 79q155 113 373 113t352 -128t133 -345q0 -161 -79 -311t-229 -247t-341 -97t-306 118q-115 119 -114 301q0 49 12 119
q25 111 123 111h696v20q-5 119 -77 187t-197 69z" />
    <glyph glyph-name="circumflex" unicode="&#x2c6;" horiz-adv-x="1024" 
d="M972 1208q-54 0 -85 10t-64 46l-80 92l-131 -92q-80 -56 -145 -56t-66 39q0 23 29 56l176 165q59 59 131 60h68q82 0 115 -66l84 -159q23 -37 22 -54q0 -41 -54 -41z" />
    <glyph glyph-name="caron" unicode="&#x2c7;" horiz-adv-x="1024" 
d="M492 1530q54 0 86 -10q31 -10 63 -47l78 -91l133 93q82 55 146 55t65 -39q0 -27 -29 -55l-176 -166q-59 -59 -131 -60h-68q-81 0 -116 66l-84 160q-20 41 -21 53q0 41 54 41z" />
    <glyph glyph-name="breve" unicode="&#x2d8;" horiz-adv-x="1024" 
d="M712 1214q-120 0 -203 68t-83 160q0 40 27 64t73 24t72 -49q37 -92 141 -92t179 92q43 49 84 49q40 0 62 -20t22 -53q0 -32 -23 -60q-55 -79 -143 -131t-208 -52z" />
    <glyph glyph-name="dotaccent" unicode="&#x2d9;" horiz-adv-x="1024" 
d="M753 1475q56 0 91 -36t22 -85l-8 -33q-12 -49 -55 -82t-100 -33t-93 36q-35 36 -22 85l8 33q14 51 57 83q44 32 100 32z" />
    <glyph glyph-name="ring" unicode="&#x2da;" horiz-adv-x="1024" 
d="M740 1315q54 0 96 46q41 46 41 99t-29 82t-83 29t-95 -46q-41 -45 -41 -99q0 -110 111 -111zM770 1669q102 0 160 -56q58 -57 59 -151q0 -94 -76 -170t-178 -75q-102 0 -161 56q-58 56 -58 151t76 170t178 75z" />
    <glyph glyph-name="ogonek" unicode="&#x2db;" horiz-adv-x="1024" 
d="M402 -342q-108 0 -163 38q-56 38 -57 99q0 100 172 230l158 -11q-129 -111 -129 -168q0 -24 17 -36t59 -23q57 -18 55 -61q-4 -68 -112 -68z" />
    <glyph glyph-name="tilde" unicode="&#x2dc;" horiz-adv-x="1024" 
d="M416 1210q-37 0 -59 20q-21 20 -21 48q0 29 16 55q106 190 252 191q76 0 154 -64q74 -55 106 -55q55 0 109 76q35 41 72 41t57 -18t20 -49q0 -30 -14 -56q-109 -188 -252 -189q-76 0 -156 64q-74 55 -104 55q-53 0 -111 -76q-32 -43 -69 -43z" />
    <glyph glyph-name="hungarumlaut" unicode="&#x2dd;" horiz-adv-x="1024" 
d="M1008 1538q45 0 81 -26q35 -26 35 -58t-39 -61l-170 -129q-76 -56 -135 -56t-59 45q0 27 20 47l164 181q58 57 103 57zM632 1538q46 0 82 -26t36 -58t-39 -61l-170 -129q-75 -56 -135 -56t-60 45q0 27 23 47l163 181q54 57 100 57z" />
    <glyph glyph-name="commaaccent" unicode="&#x326;" horiz-adv-x="1024" 
d="M176 -248q0 51 39 90t97 39t90 -32t32 -89q0 -121 -94 -211q-102 -106 -236 -106q-47 0 -47 37t56 49q136 29 159 131q-96 20 -96 92z" />
    <glyph glyph-name="Wgrave" unicode="&#x1e80;" horiz-adv-x="2248" 
d="M1262 1870q62 0 81 -64l66 -174q8 -18 8 -37q0 -53 -78 -53q-37 0 -58 11t-46 44l-105 132q-24 35 -24 61t47 52q47 28 109 28zM1432 -20h-11q-111 0 -116 112l-68 916l-561 -924q-66 -104 -164 -104h-12q-106 0 -117 112l-104 1176q-5 32 -5 70t37 72t93 34t91 -29
q34 -29 35 -78l70 -966l582 979q55 98 143 98h14q106 0 113 -100l64 -977l598 989q51 84 137 84q51 0 84 -28t33 -66t-23 -78l-746 -1188q-63 -104 -167 -104z" />
    <glyph glyph-name="wgrave" unicode="&#x1e81;" horiz-adv-x="1746" 
d="M772 1456q0 26 47 52q47 28 109 28t82 -63l65 -175q8 -18 8 -36q0 -53 -77 -54q-36 0 -58 12t-47 44l-104 131q-25 35 -25 61zM178 987q0 37 39 72t91 35t86 -30t36 -79l31 -641l385 651q55 98 145 99h13q104 0 110 -101l37 -651l399 674q43 78 119 78q47 0 74 -26
q53 -51 4 -140l-516 -846q-57 -100 -160 -100h-8q-109 0 -115 114l-39 635l-387 -647q-59 -102 -160 -102h-8q-108 -1 -114 114l-58 817q-4 37 -4 74z" />
    <glyph glyph-name="Wacute" unicode="&#x1e82;" horiz-adv-x="2248" 
d="M1432 -20h-11q-111 0 -116 112l-68 916l-561 -924q-66 -104 -164 -104h-12q-106 0 -117 112l-104 1176q-5 32 -5 70t37 72t93 34t91 -29q34 -29 35 -78l70 -966l582 979q55 98 143 98h14q106 0 113 -100l64 -977l598 989q51 84 137 84q51 0 84 -28t33 -66t-23 -78
l-746 -1188q-63 -104 -167 -104zM1390 1542q-72 0 -71 47q0 25 20 45l164 181q57 57 103 57t96 -28q49 -28 49 -57t-39 -58l-174 -132q-76 -55 -148 -55z" />
    <glyph glyph-name="wacute" unicode="&#x1e83;" horiz-adv-x="1746" 
d="M178 987q0 37 39 72t91 35t86 -30t36 -79l31 -641l385 651q55 98 145 99h13q104 0 110 -101l37 -651l399 674q43 78 119 78q47 0 74 -26q53 -51 4 -140l-516 -846q-57 -100 -160 -100h-8q-109 0 -115 114l-39 635l-387 -647q-59 -102 -160 -102h-8q-108 -1 -114 114
l-58 817q-4 37 -4 74zM985 1255q0 25 21 45l163 181q57 57 103 57t96 -28q49 -28 49 -57t-39 -58l-174 -131q-76 -56 -148 -56t-71 47z" />
    <glyph glyph-name="Wdieresis" unicode="&#x1e84;" horiz-adv-x="2248" 
d="M1432 -20h-11q-111 0 -116 112l-68 916l-561 -924q-66 -104 -164 -104h-12q-106 0 -117 112l-104 1176q-5 32 -5 70t37 72t93 34t91 -29q34 -29 35 -78l70 -966l582 979q55 98 143 98h14q106 0 113 -100l64 -977l598 989q51 84 137 84q51 0 84 -28t33 -66t-23 -78
l-746 -1188q-63 -104 -167 -104zM1631 1808q56 0 90 -36t22 -84l-8 -33q-13 -49 -55 -82t-99 -33t-91 36t-22 85l9 33q14 50 56 82t98 32zM1224 1808q56 0 90 -36t21 -84l-8 -33q-12 -49 -54 -82t-99 -33t-92 36q-34 36 -21 85l8 33q14 51 56 83q43 31 99 31z" />
    <glyph glyph-name="wdieresis" unicode="&#x1e85;" horiz-adv-x="1746" 
d="M178 987q0 37 39 72t91 35t86 -30t36 -79l31 -641l385 651q55 98 145 99h13q104 0 110 -101l37 -651l399 674q43 78 119 78q47 0 74 -26q53 -51 4 -140l-516 -846q-57 -100 -160 -100h-8q-109 0 -115 114l-39 635l-387 -647q-59 -102 -160 -102h-8q-108 -1 -114 114
l-58 817q-4 37 -4 74zM1299 1475q57 0 91 -36t21 -85l-8 -33q-12 -49 -54 -82q-41 -33 -99 -33t-92 36t-21 85l8 33q14 51 56 83t98 32zM892 1475q56 0 90 -36t22 -85l-9 -33q-12 -49 -54 -82t-99 -33t-91 36t-22 85l8 33q15 51 57 83t98 32z" />
    <glyph glyph-name="Ygrave" unicode="&#x1ef2;" horiz-adv-x="1341" 
d="M647 1790q0 26 47 52q47 28 109 28t82 -64l65 -174q8 -18 8 -37q0 -53 -77 -53q-37 0 -59 11t-46 44l-104 132q-25 35 -25 61zM1389 1446q119 0 117 -108q0 -52 -46 -97l-678 -706l-112 -422q-16 -57 -54 -90t-95 -33q-56 0 -86 43t-9 119l111 409l-283 670
q-25 57 -25 101t38 78t98 34q88 0 122 -98l222 -566l553 594q68 72 127 72z" />
    <glyph glyph-name="ygrave" unicode="&#x1ef3;" horiz-adv-x="1198" 
d="M481 1456q0 26 47 52q47 28 109 28t82 -63l65 -175q8 -18 9 -36q0 -53 -78 -54q-37 0 -59 12t-46 44l-104 131q-25 35 -25 61zM170 -123q88 0 174 121l-151 915q-5 37 -5 75t35 72t87 34t86 -30t38 -81l96 -709l451 738q47 82 129 82q49 0 79 -27t30 -66t-33 -92
l-606 -940q-109 -167 -210 -235t-214 -68t-174 31q-76 33 -76 108q0 45 29 77t57 32t69 -12q63 -25 109 -25z" />
    <glyph glyph-name="enspace" unicode="&#x2002;" horiz-adv-x="1024" 
 />
    <glyph glyph-name="emspace" unicode="&#x2003;" horiz-adv-x="2048" 
 />
    <glyph glyph-name="threeperemspace" unicode="&#x2004;" horiz-adv-x="681" 
 />
    <glyph glyph-name="fourperemspace" unicode="&#x2005;" horiz-adv-x="512" 
 />
    <glyph glyph-name="thinspace" unicode="&#x2009;" horiz-adv-x="272" 
 />
    <glyph glyph-name="hairspace" unicode="&#x200a;" horiz-adv-x="153" 
 />
    <glyph glyph-name="endash" unicode="&#x2013;" horiz-adv-x="1085" 
d="M252 510q-51 0 -86 34t-35 83t35 84t86 34h631q49 -1 85 -35t36 -83t-36 -83t-85 -34h-631z" />
    <glyph glyph-name="emdash" unicode="&#x2014;" horiz-adv-x="1843" 
d="M252 510q-51 0 -86 34t-35 83t35 84t86 34h1388q49 -1 85 -35t36 -83t-36 -83t-85 -34h-1388z" />
    <glyph glyph-name="quoteleft" unicode="&#x2018;" horiz-adv-x="600" 
d="M376 854q-64 0 -96 49t-16 131l8 35q43 180 162 279q96 84 217 94q63 2 64 -56q0 -45 -58 -57q-174 -43 -192 -182q102 -27 80 -133l-6 -29q-15 -59 -57 -95t-106 -36z" />
    <glyph glyph-name="quoteright" unicode="&#x2019;" horiz-adv-x="600" 
d="M514 1444q64 0 96 -49t15 -131l-9 -35q-43 -180 -161 -279q-96 -84 -217 -94q-63 -2 -64 55q0 45 57 58q174 43 193 182q-102 27 -80 133l6 29q14 59 56 95q44 36 108 36z" />
    <glyph glyph-name="quotesinglbase" unicode="&#x201a;" horiz-adv-x="600" 
d="M218 293q64 0 96 -49t16 -131l-8 -35q-43 -180 -162 -279q-96 -84 -217 -94q-63 -2 -64 55q0 45 58 58q174 43 192 182q-102 27 -80 133l6 29q15 59 57 95t106 36z" />
    <glyph glyph-name="quotedblleft" unicode="&#x201c;" horiz-adv-x="1073" 
d="M850 854q-64 0 -96 49t-15 131l9 35q43 180 161 279q96 84 217 94q63 2 64 -56q0 -45 -57 -57q-174 -43 -193 -182q102 -27 80 -133l-6 -29q-14 -59 -56 -95q-44 -36 -108 -36zM376 854q-64 0 -96 49t-16 131l8 35q43 180 162 279q96 84 217 94q63 2 64 -56
q0 -45 -58 -57q-174 -43 -192 -182q102 -27 80 -133l-6 -29q-15 -59 -57 -95t-106 -36z" />
    <glyph glyph-name="quotedblright" unicode="&#x201d;" horiz-adv-x="1073" 
d="M514 1444q64 0 96 -49t15 -131l-9 -35q-43 -180 -161 -279q-96 -84 -217 -94q-63 -2 -64 55q0 45 57 58q174 43 193 182q-102 27 -80 133l6 29q14 59 56 95q44 36 108 36zM988 1444q64 0 96 -49t16 -131l-8 -35q-43 -180 -162 -279q-96 -84 -217 -94q-63 -2 -64 55
q0 45 58 58q174 43 192 182q-102 27 -80 133l6 29q15 59 57 95t106 36z" />
    <glyph glyph-name="quotedblbase" unicode="&#x201e;" horiz-adv-x="1075" 
d="M218 293q64 0 96 -49t16 -131l-8 -35q-43 -180 -162 -279q-96 -84 -217 -94q-63 -2 -64 55q0 45 58 58q174 43 192 182q-102 27 -80 133l6 29q15 59 57 95t106 36zM694 293q64 0 96 -49t15 -131l-8 -35q-43 -180 -162 -279q-96 -84 -217 -94q-63 -2 -64 55q0 45 58 58
q174 43 192 182q-102 27 -80 133l6 29q14 59 56 95q44 36 108 36z" />
    <glyph glyph-name="dagger" unicode="&#x2020;" horiz-adv-x="841" 
d="M879 1104q0 -31 -22 -51t-54 -19l-201 17l-119 -502q-18 -72 -80 -72q-35 0 -52 25t-5 65l143 484l-167 -13q-33 -2 -55 18t-21 50q0 31 21 51q22 20 52 19l199 -17l37 207q16 78 84 78q43 0 59 -28t0 -75l-63 -182l168 12q31 2 53 -17t23 -50z" />
    <glyph glyph-name="daggerdbl" unicode="&#x2021;" horiz-adv-x="854" 
d="M674 328q0 -32 -22 -52t-52 -18l-197 16l-41 -206q-12 -78 -81 -78q-43 0 -60 27q-16 28 0 75l66 182l-172 -12q-31 -2 -53 18t-22 51q0 30 22 50t55 18l198 -16l74 334l105 334l-166 -13q-33 -2 -55 18t-21 50q0 31 21 51q22 20 53 19l198 -17l37 207q16 78 84 78
q43 0 59 -28t1 -75l-64 -182l168 12q31 2 53 -17t23 -50q0 -31 -22 -51t-54 -19l-199 17l-73 -334l-107 -334l168 12q32 2 54 -17t22 -50z" />
    <glyph glyph-name="bullet" unicode="&#x2022;" horiz-adv-x="1005" 
d="M496 424q-106 0 -169 62t-63 187t95 237t235 112q106 0 168 -64t61 -187q0 -123 -95 -235t-232 -112z" />
    <glyph glyph-name="ellipsis" unicode="&#x2026;" horiz-adv-x="1669" 
d="M1244 -10q-66 0 -100 38t-24 95l8 33q12 59 56 95t110 36q64 0 99 -39t24 -96l-8 -31q-10 -59 -55 -95t-110 -36zM706 -10q-64 0 -100 38q-35 38 -24 95l8 33q12 59 56 95t109 36t99 -39t25 -96l-9 -31q-10 -59 -55 -95t-109 -36zM166 -10q-64 0 -98 38t-25 95l8 33
q13 59 57 95t108 36t100 -39q34 -39 24 -96l-8 -31q-10 -59 -56 -95t-110 -36z" />
    <glyph glyph-name="perthousand" unicode="&#x2030;" horiz-adv-x="2586" 
d="M302 -10q-36 0 -58 20t-23 55q0 35 31 66l1233 1278q37 37 73 37t58 -22t23 -54q0 -32 -31 -67l-1233 -1276q-37 -37 -73 -37zM2129 135q79 0 140 86q61 85 61 175t-38 134q-39 44 -118 45q-79 0 -140 -86q-62 -86 -62 -175t39 -134t118 -45zM2105 -16q-135 0 -220 87
t-85 239t114 284q114 131 266 131t236 -86q84 -87 85 -239q0 -152 -114 -284t-282 -132zM1151 314q0 -179 156 -179q79 0 142 86q62 86 62 187q0 167 -156 167q-79 0 -141 -86t-63 -175zM505 860q79 0 140 85t61 175q1 178 -145 178q-90 0 -151 -86t-62 -186
q0 -166 157 -166zM1286 -16q-135 0 -220 87t-85 239t114 284q114 131 266 131t236 -86q84 -87 84 -239q1 -152 -113 -284t-282 -132zM483 709q-137 0 -221 86q-84 87 -84 239t114 284t281 132q135 0 221 -87t85 -239q0 -152 -114 -283q-114 -132 -282 -132z" />
    <glyph glyph-name="guilsinglleft" unicode="&#x2039;" horiz-adv-x="724" 
d="M599 981q42 0 68 -25q25 -24 25 -70t-37 -75l-317 -307l133 -266q16 -39 16 -74q-1 -35 -31 -64t-75 -28q-66 0 -98 63l-152 301q-27 54 -27 82t33 57l361 355q59 51 101 51z" />
    <glyph glyph-name="guilsinglright" unicode="&#x203a;" horiz-adv-x="724" 
d="M124 86q-44 0 -70 25t-26 71t38 74l317 307l-133 266q-37 91 15 138q32 29 75 28q66 0 98 -63l152 -301q27 -53 27 -81t-33 -58l-361 -355q-55 -51 -99 -51z" />
    <glyph glyph-name="fraction" unicode="&#x2044;" horiz-adv-x="1083" 
d="M1226 1563q88 1 89 -83q0 -40 -43 -91l-1247 -1534q-53 -66 -97 -66q-88 -1 -88 83q0 40 43 91l1247 1534q52 66 96 66z" />
    <glyph glyph-name="Euro" unicode="&#x20ac;" horiz-adv-x="1452" 
d="M987 983q37 0 63 -26q26 -25 26 -61t-26 -62t-63 -25h-426q-23 -63 -39 -172h373q37 0 63 -27q26 -26 25 -62q0 -36 -26 -62t-62 -25h-375q16 -121 92 -190t189 -68q158 0 284 121q39 34 86 34t81 -30t34 -82q0 -51 -49 -92q-197 -178 -431 -178t-381 130
q-146 131 -167 355h-100q-37 -1 -63 25q-25 26 -25 62t26 62t62 27h102q10 94 33 172h-43q-37 0 -63 26q-25 25 -25 61t26 62t62 25h96q90 213 266 344t402 131q309 0 448 -229q33 -53 33 -98t-36 -79t-95 -34t-92 51q-44 78 -104 120t-171 42q-239 0 -370 -248h360z" />
    <glyph glyph-name="published" unicode="&#x2117;" horiz-adv-x="1699" 
d="M782 721h150q74 0 117 36t43 95v4q0 61 -42 95t-118 34h-150v-264zM631 408v636q0 31 22 54q23 23 54 22h237q139 0 220 -70t81 -192v-4q0 -127 -90 -197t-225 -69h-148v-180q0 -33 -22 -55q-22 -21 -52 -21q-32 0 -55 21q-22 22 -22 55zM233 713q-1 -276 189 -470
t472 -194t473 196t192 472v4q-1 276 -191 470q-190 193 -472 193t-472 -196t-191 -471v-4zM893 -25q-309 0 -524 216t-215 522v4q0 305 217 523t526 218t524 -216t215 -521v-4q0 -305 -217 -523t-526 -219z" />
    <glyph glyph-name="servicemark" unicode="&#x2120;" horiz-adv-x="1443" 
d="M208 977q22 0 44 -19q80 -70 172 -69q55 1 89 25t34 59t-24 55q-25 20 -105 52t-118 70t-38 95q0 89 70 145t186 56t189 -66q27 -20 27 -45t-15 -40q-14 -15 -39 -15t-41 16q-66 52 -130 52t-97 -25t-33 -57t25 -54q26 -20 105 -51t116 -67t37 -97q0 -94 -71 -150
t-195 -56t-220 88q-22 18 -22 43t16 40t38 15zM1491 1440h10q29 0 41 -22t4 -58l-139 -508q-16 -57 -66 -57q-29 0 -42 20t-3 55l95 342l-201 -215q-29 -33 -65 -33t-52 37l-84 213l-100 -362q-16 -57 -64 -57q-31 0 -44 20t-3 55l140 508q16 61 65 62h10q37 0 56 -47
l112 -291l258 299q33 39 72 39z" />
    <glyph glyph-name="trademark" unicode="&#x2122;" horiz-adv-x="1427" 
d="M1477 1440h8q29 0 42 -22t5 -58l-139 -508q-18 -57 -66 -57q-29 0 -42 20t-3 55l92 342l-200 -215q-27 -33 -64 -33t-53 37l-82 213l-101 -362q-16 -57 -65 -57q-31 0 -43 20t-2 55l139 508q12 61 66 62h8q37 0 55 -47l113 -291l258 299q35 39 74 39zM358 793
q-29 0 -43 20t-6 55l125 455h-131q-25 0 -41 16t-16 39t16 39t41 17h418q23 0 39 -16t16 -40q0 -23 -16 -39t-39 -16h-164l-129 -473q-16 -57 -70 -57z" />
    <glyph glyph-name="minus" unicode="&#x2212;" horiz-adv-x="1298" 
d="M1100 604h-809q-49 0 -83 34t-34 82t34 82t83 34h809q47 0 82 -34t35 -82t-35 -82t-82 -34z" />
    <glyph glyph-name="Q.alt" horiz-adv-x="1712" 
d="M156 604q0 217 107 413q107 197 305 319t438 122q288 0 466 -179t179 -450q0 -169 -69 -329t-191 -281l53 -61q41 -46 41 -98t-34 -86t-93 -34t-92 56l-66 84q-186 -104 -401 -105q-285 -1 -464 179t-179 450zM995 1227q-174 0 -306 -91q-132 -90 -202 -230
q-69 -140 -69 -305t110 -279t297 -115q129 0 244 65l-123 150q-45 63 -45 109t36 82t92 36t89 -51l127 -174q143 172 144 391q0 180 -110 296t-284 116z" />
    <glyph glyph-name="a.alt" 
d="M1217 1094q63 0 91 -44t7 -118l-217 -819q-33 -123 -144 -123q-53 0 -82 30t-26 78l12 45q-166 -166 -348 -166t-301 126t-119 337q0 281 181 472q181 192 425 192t361 -215l22 80q33 125 138 125zM606 190q152 0 271 129t118 299q0 119 -76 196q-77 77 -198 77
q-153 0 -263 -127t-110 -307q0 -123 70 -195t188 -72z" />
    <glyph glyph-name="aacute.alt" 
d="M1217 1094q63 0 91 -44t7 -118l-217 -819q-33 -123 -144 -123q-53 0 -82 30t-26 78l12 45q-166 -166 -348 -166t-301 126t-119 337q0 281 181 472q181 192 425 192t361 -215l22 80q33 125 138 125zM606 190q152 0 271 129t118 299q0 119 -76 196q-77 77 -198 77
q-153 0 -263 -127t-110 -307q0 -123 70 -195t188 -72zM1092 1538q46 0 96 -28t49 -57q0 -29 -39 -58l-174 -131q-76 -56 -148 -56t-71 47q0 25 20 45l164 181q57 57 103 57z" />
    <glyph glyph-name="abreve.alt" 
d="M872 1214q-120 0 -203 68t-83 160q0 40 26 64t74 24q47 0 72 -49q37 -92 141 -92t178 92q43 49 84 49t63 -20t22 -53q0 -32 -23 -60q-55 -79 -143 -131t-208 -52zM1217 1094q63 0 91 -44t7 -118l-217 -819q-33 -123 -144 -123q-53 0 -82 30t-26 78l12 45
q-166 -166 -348 -166t-301 126t-119 337q0 281 181 472q181 192 425 192t361 -215l22 80q33 125 138 125zM606 190q152 0 271 129t118 299q0 119 -76 196q-77 77 -198 77q-153 0 -263 -127t-110 -307q0 -123 70 -195t188 -72z" />
    <glyph glyph-name="acircumflex.alt" 
d="M1217 1094q63 0 91 -44t7 -118l-217 -819q-33 -123 -144 -123q-53 0 -82 30t-26 78l12 45q-166 -166 -348 -166t-301 126t-119 337q0 281 181 472q181 192 425 192t361 -215l22 80q33 125 138 125zM606 190q152 0 271 129t118 299q0 119 -76 196q-77 77 -198 77
q-153 0 -263 -127t-110 -307q0 -123 70 -195t188 -72zM1178 1249q0 -41 -54 -41t-86 10q-31 10 -63 46l-80 92l-131 -92q-80 -55 -158 -56q-53 0 -53 39q0 23 29 56l176 165q59 59 131 60h67q82 0 115 -66l84 -159q23 -37 23 -54z" />
    <glyph glyph-name="adieresis.alt" 
d="M1217 1094q63 0 91 -44t7 -118l-217 -819q-33 -123 -144 -123q-53 0 -82 30t-26 78l12 45q-166 -166 -348 -166t-301 126t-119 337q0 281 181 472q181 192 425 192t361 -215l22 80q33 125 138 125zM606 190q152 0 271 129t118 299q0 119 -76 196q-77 77 -198 77
q-153 0 -263 -127t-110 -307q0 -123 70 -195t188 -72zM1119 1475q56 0 90 -36t22 -85l-8 -33q-13 -49 -55 -82t-99 -33t-91 36t-22 85l9 33q14 51 56 83t98 32zM712 1475q56 0 90 -36t21 -85l-8 -33q-12 -49 -54 -82t-99 -33t-92 36q-34 36 -21 85l8 33q14 51 56 83
q43 32 99 32z" />
    <glyph glyph-name="agrave.alt" 
d="M746 1536q62 0 81 -63l66 -175q8 -18 8 -36q0 -53 -78 -54q-37 0 -58 12t-46 44l-105 131q-24 35 -24 61t47 52q47 28 109 28zM1217 1094q63 0 91 -44t7 -118l-217 -819q-33 -123 -144 -123q-53 0 -82 30t-26 78l12 45q-166 -166 -348 -166t-301 126t-119 337
q0 281 181 472q181 192 425 192t361 -215l22 80q33 125 138 125zM606 190q152 0 271 129t118 299q0 119 -76 196q-77 77 -198 77q-153 0 -263 -127t-110 -307q0 -123 70 -195t188 -72z" />
    <glyph glyph-name="amacron.alt" 
d="M1159 1241h-543q-38 0 -64 27q-26 28 -26 64t27 63t63 26h543q39 -1 66 -27t27 -63t-28 -63q-26 -26 -65 -27zM1217 1094q63 0 91 -44t7 -118l-217 -819q-33 -123 -144 -123q-53 0 -82 30t-26 78l12 45q-166 -166 -348 -166t-301 126t-119 337q0 281 181 472
q181 192 425 192t361 -215l22 80q33 125 138 125zM606 190q152 0 271 129t118 299q0 119 -76 196q-77 77 -198 77q-153 0 -263 -127t-110 -307q0 -123 70 -195t188 -72z" />
    <glyph glyph-name="aogonek.alt" 
d="M1217 1094q63 0 91 -44t7 -118l-217 -819q-16 -55 -62 -101q-125 -111 -125 -166q-1 -24 17 -36t59 -23q57 -18 55 -61q-4 -68 -111 -68t-164 38q-56 38 -56 99q0 102 166 225q-31 27 -31 78l12 45q-166 -166 -348 -166t-301 126t-119 337q0 281 181 472q181 192 425 192
t361 -215l22 80q33 125 138 125zM606 190q152 0 271 129t118 299q0 119 -76 196q-77 77 -198 77q-153 0 -263 -127t-110 -307q0 -123 70 -195t188 -72z" />
    <glyph glyph-name="aring.alt" 
d="M1217 1094q63 0 91 -44t7 -118l-217 -819q-33 -123 -144 -123q-53 0 -82 30t-26 78l12 45q-166 -166 -348 -166t-301 126t-119 337q0 281 181 472q181 192 425 192t361 -215l22 80q33 125 138 125zM606 190q152 0 271 129t118 299q0 119 -76 196q-77 77 -198 77
q-153 0 -263 -127t-110 -307q0 -123 70 -195t188 -72zM1040 1460q0 111 -111 111q-54 0 -95 -46q-41 -45 -41 -99q0 -110 111 -111q54 0 95 46t41 99zM934 1669q102 0 160 -56q58 -57 59 -151q0 -94 -76 -170t-178 -75q-102 0 -161 56q-58 56 -58 151t76 170t178 75z" />
    <glyph glyph-name="aring.alt2" horiz-adv-x="1193" 
d="M643 1202q0 -54 29 -82t83 -28t95 46t41 99t-29 82t-83 29t-95 -46t-41 -100zM272 314q0 -158 194 -158q96 0 190 74t126 184l15 49q-127 41 -253 41t-199 -55t-73 -135zM852 719q0 164 -240 164q-104 -1 -168 -19t-98 -18q-32 0 -60 28t-28 72q0 74 78 98q117 37 223 46
q-29 43 -29 102q0 104 76 180t178 76t160 -57t60 -144q0 -119 -103 -194q193 -78 193 -291q0 -59 -23 -158l-131 -491q-35 -123 -139 -123q-117 0 -105 114l11 39q-150 -166 -357 -166q-141 0 -233 82t-92 213q0 182 132 286t341 106q158 0 336 -54q18 57 18 109z" />
    <glyph glyph-name="aringacute.alt" 
d="M1217 1094q63 0 91 -44t7 -118l-217 -819q-33 -123 -144 -123q-53 0 -82 30t-26 78l12 45q-166 -166 -348 -166t-301 126t-119 337q0 281 181 472q181 192 425 192t361 -215l22 80q33 125 138 125zM606 190q152 0 271 129t118 299q0 119 -76 196q-77 77 -198 77
q-153 0 -263 -127t-110 -307q0 -123 70 -195t188 -72zM1040 1460q0 111 -111 111q-54 0 -95 -46q-41 -45 -41 -99q0 -110 111 -111q54 0 95 46t41 99zM934 1669q102 0 160 -56q58 -57 59 -151q0 -94 -76 -170t-178 -75q-102 0 -161 56q-58 56 -58 151t76 170t178 75z
M911 1774q0 25 21 45l164 180q57 57 103 57t95 -28q95 -53 11 -115l-175 -131q-76 -56 -148 -56t-71 48z" />
    <glyph glyph-name="aringacute.alt2" horiz-adv-x="1193" 
d="M1047 1833q45 0 95 -28t50 -57t-39 -58l-174 -131q-76 -55 -148 -55t-71 46q0 25 20 45l164 181q57 57 103 57zM643 1202q0 -54 29 -82t83 -28t95 46t41 99t-29 82t-83 29t-95 -46t-41 -100zM272 314q0 -158 194 -158q96 0 190 74t126 184l15 49q-127 41 -253 41
t-199 -55t-73 -135zM852 719q0 164 -240 164q-104 -1 -168 -19t-98 -18q-32 0 -60 28t-28 72q0 74 78 98q117 37 223 46q-29 43 -29 102q0 104 76 180t178 76t160 -57t60 -144q0 -119 -103 -194q193 -78 193 -291q0 -59 -23 -158l-131 -491q-35 -123 -139 -123
q-117 0 -105 114l11 39q-150 -166 -357 -166q-141 0 -233 82t-92 213q0 182 132 286t341 106q158 0 336 -54q18 57 18 109z" />
    <glyph glyph-name="atilde.alt" 
d="M577 1210q-37 0 -59 20t-20 48q0 29 16 55q106 190 252 191q76 0 154 -64q74 -55 106 -55q55 0 109 76q35 41 71 41t58 -18q20 -18 20 -49q0 -30 -14 -56q-109 -188 -252 -189q-76 0 -156 64q-74 55 -104 55q-53 0 -111 -76q-33 -43 -70 -43zM1217 1094q63 0 91 -44
t7 -118l-217 -819q-33 -123 -144 -123q-53 0 -82 30t-26 78l12 45q-166 -166 -348 -166t-301 126t-119 337q0 281 181 472q181 192 425 192t361 -215l22 80q33 125 138 125zM606 190q152 0 271 129t118 299q0 119 -76 196q-77 77 -198 77q-153 0 -263 -127t-110 -307
q0 -123 70 -195t188 -72z" />
    <glyph glyph-name="three.alt" horiz-adv-x="1259" 
d="M545 203q139 1 222 67t83 159t-76 141t-213 48h-4q-49 0 -80 30t-31 74t31 76t74 31h74q158 -1 255 59t97 165q0 80 -66 129t-166 49q-147 0 -274 -94q-45 -33 -89 -33t-75 30t-31 78t41 82q105 84 201 121t252 41q207 8 337 -98t130 -268q0 -283 -352 -373
q96 -33 158 -109t63 -186q0 -190 -162 -318t-418 -129q-297 0 -471 181q-43 47 -43 96t35 85t84 36t92 -39q127 -131 322 -131z" />
    <glyph glyph-name="registered.alt" horiz-adv-x="1699" 
d="M745 748h191q72 0 114 32t42 90v2q0 58 -41 90t-115 31h-191v-245zM596 412v641q0 31 22 53t52 20h272q152 0 238 -82q61 -66 61 -163v-4q0 -174 -172 -232l150 -184q18 -20 18 -50t-20 -52q-21 -21 -53 -21t-60 35l-195 245h-164v-206q-1 -31 -23 -53q-22 -21 -52 -21
t-53 21q-21 22 -21 53zM233 713q-1 -276 189 -470t472 -194t473 196t192 472v4q-1 276 -191 470q-190 193 -472 193t-472 -196t-191 -471v-4zM893 -25q-309 0 -524 216t-215 522v4q0 305 217 523t526 218t524 -216t215 -521v-4q0 -305 -217 -523t-526 -219z" />
    <glyph glyph-name="NUL" horiz-adv-x="0" 
 />
    <glyph glyph-name="hfjslug" horiz-adv-x="1421" 
d="M872 580q-33 0 -32 34q0 12 9 24t23 11q14 0 24 -11t9 -24q0 -34 -33 -34zM997 612h-22v35h22q20 0 21 -16q-1 -19 -21 -19zM659 823q-33 0 -33 45t33 78l41 -80q-16 -43 -41 -43zM645 1056q0 30 29 29q27 -1 27 -35t-31 -69q-25 45 -25 75zM494 662l28 -97h17l22 70h2
l23 -70h16l29 97h-17l-20 -72h-2l-23 72h-14l-23 -72h-2l-20 72h-16zM270 662v-95h17v66l51 -66h14v95h-16v-66l-51 66h-15zM395 662v-95h70v15h-53v26h47v15h-47v24h53v15h-70zM750 567h16v35l37 60h-19l-26 -46l-27 46h-18l37 -60v-35zM872 565q20 1 34 15q33 33 1 68
q-15 16 -35 16t-34 -16t-14 -34q0 -20 14 -34t34 -15zM1034 631q0 31 -35 31h-41v-95h17v31h24l21 -31h18l-24 35q20 8 20 29zM1071 662v-95h16v25l17 16l31 -41h20l-41 54l37 41h-21l-40 -50h-3v50h-16zM729 1047q0 63 -55 63q-25 0 -41 -18q-35 -39 12 -125
q-47 -37 -47 -83q0 -91 59 -89q39 0 60 49h2l24 -49l25 12l-35 65q13 29 27 80l-27 6q-8 -37 -16 -61h-2l-33 64q47 43 47 86zM985 799q63 0 64 73v281h-33v-281q0 -45 -33 -45q-16 0 -41 11v-31q20 -8 43 -8zM377 1153v-352h31v162h96v-162h31v352h-31v-162h-96v162h-31z
M819 1153v-352h31v160h78v28h-78v135h88v29h-119zM1319 -410h-426l-16 29h-334l-17 -29h-424v621q29 0 48 19q18 19 18 46q0 26 -20 46t-46 20v1135h205l62 161h684l59 -161h207v-1887z" />
    <glyph glyph-name="i.dot" horiz-adv-x="585" 
d="M164 -10q-63 0 -92 43t-9 117l222 819q33 125 137 125q64 0 92 -44t8 -118l-219 -819q-35 -123 -139 -123zM491 1237q-60 0 -97 34q-36 34 -23 83l6 24q12 53 56 84q45 31 105 31t96 -34t25 -83l-6 -24q-12 -51 -57 -83t-105 -32z" />
    <glyph glyph-name="caron.alt" horiz-adv-x="1024" 
d="M776 1499h41q49 0 49 -41q0 -23 -22 -63l-142 -252q-32 -49 -74 -49t-42 39q0 14 6 26l76 256q23 84 108 84z" />
    </font>
</defs>
</svg>
